<?xml version="1.0" encoding="UTF-8"?>
<svg id="Layer_1" data-name="Layer 1" xmlns="http://www.w3.org/2000/svg" viewBox="0 0 75 79">
  <defs>
    <style>
      .cls-1 {
        fill: #fff;
      }
    </style>
  </defs>
  <path class="cls-1" d="m73.32,28.63c-1.26-.87-3.38-.54-4.69.77-10.09,10.12-20.16,20.26-30.25,30.37-3.33,3.33-6.57,6.78-10.11,9.88-4.4,3.85-11.16,3.9-15.92.47-6.58-4.74-7.34-14-1.59-19.98,3.03-3.16,6.14-6.25,9.23-9.34,10.49-10.49,20.98-20.97,31.48-31.45.32-.32.66-.63,1.02-.9,5.73-4.27,11.82-.03,12.9,4.28.85,3.4-.2,6.18-2.64,8.61-10.85,10.8-21.67,21.64-32.51,32.45-.44.44-.95.85-1.49,1.17-1.42.83-3,.58-4.04-.57-1.09-1.2-1.22-2.82-.24-4.14.46-.63,1.02-1.19,1.58-1.74,4.95-4.92,9.9-9.82,14.85-14.74.32-.32.61-.68.83-1.07,1.09-1.97-.27-4.3-2.51-4.5-1.55-.14-2.66.47-3.69,1.5-2.4,2.43-4.83,4.83-7.23,7.25-2.96,2.98-6.03,5.86-8.83,8.97-2.71,3.01-2.86,6.72-1.47,10.28,2.58,6.61,11.57,7.96,16.43,2.86,3.81-4,7.77-7.86,11.69-11.76,7.02-6.99,14.04-13.99,21.11-20.92,3.71-3.64,5.67-7.85,5.13-13.13-.87-8.51-9.38-14.73-17.79-12.93-3.23.69-5.94,2.32-8.21,4.69-1.07,1.11-2.13,2.23-3.22,3.31-12.27,12.25-24.54,24.5-36.81,36.75C1.57,49.8-.45,55.48.43,62.1c1.05,7.91,5.56,13.13,12.91,16.04,2.16.85,4.45.76,6.73.86,1.69-.13,3.39-.14,5.05-.42,3.16-.54,5.84-2.19,8.15-4.31,2.58-2.36,4.97-4.93,7.45-7.4,3.38-3.37,6.76-6.73,10.13-10.11,5.45-5.48,10.89-10.97,16.34-16.47,2.23-2.25,4.49-4.48,6.67-6.78,1.43-1.51,1.14-3.73-.54-4.88Z"/>
</svg>