<?xml version="1.0" encoding="UTF-8"?>
<svg id="Layer_1" data-name="Layer 1" xmlns="http://www.w3.org/2000/svg" viewBox="0 0 91 79">
  <defs>
    <style>
      .cls-1 {
        fill: #fff;
      }
    </style>
  </defs>
  <path class="cls-1" d="m75.19,26.25c-1.01-.99-2.29-1.53-3.62-1.53-.05,0-.1,0-.16,0h0c-1.44.02-2.77.58-3.74,1.59-.97,1.01-1.49,2.37-1.47,3.84.04,3.01,2.17,5.12,5.19,5.12,3.17-.03,5.41-2.23,5.4-5.24,0-1.43-.57-2.77-1.6-3.77Z"/>
  <path class="cls-1" d="m35.61,24.78h0c-2.8,0-5.09,2.37-5.1,5.27,0,1.43.52,2.74,1.47,3.7.98.98,2.33,1.53,3.81,1.53,1.54,0,2.9-.53,3.85-1.48.95-.95,1.47-2.29,1.46-3.77,0-3.09-2.26-5.25-5.48-5.25Z"/>
  <path class="cls-1" d="m58.94,30.12c.01-1.44-.53-2.79-1.52-3.79-.97-.98-2.26-1.52-3.63-1.52h-.02c-3.1,0-5.46,2.25-5.48,5.23,0,1.43.53,2.74,1.51,3.71.98.96,2.33,1.5,3.79,1.51,3.09,0,5.33-2.16,5.35-5.14Z"/>
  <path class="cls-1" d="m82.76,49.43c4.83-5.04,7.47-10.48,8.06-16.64.77-8-1.83-15.05-7.75-20.94C75.44,4.24,65.92.14,55.53,0c-4.46.02-7.89.37-11.46,1.15-10.66,2.34-18.45,7.53-23.81,15.87-.23.36-.64.72-1.24,1.09-1.1.69-2.22,1.35-3.34,2.01-2.12,1.25-4.3,2.53-6.32,3.98C1.32,29.85-1.77,39.02,1.09,48.63c1.09,3.67,3.28,6.6,5.27,8.99.85,1.02,1.24,2.06,1.23,3.27,0,.65.02,1.31.05,1.97.04.9.08,1.84.02,2.77-.01.21-.02.43-.02.66l.02,1.63c.02.62.03,1.25.01,1.92l.06,6.9c.11.87.69,1.65,1.54,2.03.86.38,1.84.27,2.63-.29l6.72-5.52c1.44-1.33,2.89-2.69,4.34-4.05,1.15-1.08,2.41-1.5,3.96-1.33,8.82.98,16.23-.48,22.62-4.44,2.39-1.48,5-2.36,7.77-2.6.56-.05,1.11-.11,1.67-.18.65-.08,1.23-.14,1.81-.19,2.31-.2,3.92.31,5.2,1.66.87.92,1.85,1.77,2.79,2.59.45.39.88.76,1.3,1.14l1.26,1.15c.98.9,1.96,1.8,2.98,2.65,1.22,1.02,2.54,1.27,3.72.72,1.38-.64,1.5-2.15,1.59-3.15.01-.12,0-.25,0-.45l-.04-3.65c-.03-2.74-.06-5.48-.1-8.22-.02-1.42.45-2.54,1.45-3.43.57-.51,1.15-1.07,1.81-1.77Zm-41.45,10.9c-4.26,1.52-8.41,1.96-12.7,1.33-1.38-.2-2.75-.25-4.07-.15-2.11.17-4,1.15-5.8,3-1.24,1.27-2.54,2.52-3.81,3.73l-1.33,1.28v-1.18c0-.93-.01-1.86,0-2.8.02-.92.07-1.84.12-2.76.03-.52.05-1.05.08-1.57.13-3.07-.93-5.8-3.16-8.11-2.41-2.5-3.88-5.39-4.36-8.59-.64-4.22.36-8.25,2.96-11.98,1.67-2.39,3.86-4.37,6.7-6.04l.81-.48-.05.94c-.02.45-.04.89-.05,1.33-.19,7.38,1.61,13.46,5.49,18.58,2.79,3.68,6.46,6.66,10.92,8.87,2.33,1.15,4.74,2.17,7.07,3.15l2.4,1.01-1.23.44Zm36.74-14.89c-1.01.89-2.02,1.97-3,3.2-1.5,1.89-2.07,4.22-1.73,7.12.14,1.19.18,2.42.22,3.6l.04,1.19-1.18-1.06c-1.02-.93-2.19-1.99-3.19-3.1-2.1-2.32-4.58-3.03-8.03-2.3-10.79,2.28-20.75.13-29.58-6.39-5.09-3.76-8.06-8.71-8.83-14.73-.67-5.25.66-10.16,3.97-14.58,4.22-5.65,10.18-9.39,17.7-11.14,9.08-2.1,17.81-1.19,25.96,2.72,5.89,2.83,9.97,6.74,12.48,11.96,3.87,8.07,1.93,17.51-4.83,23.49Z"/>
</svg>