<?xml version="1.0" encoding="UTF-8"?>
<svg id="Capa_2" data-name="Capa 2" xmlns="http://www.w3.org/2000/svg" viewBox="0 0 69 81">
  <defs>
    <style>
      .cls-1 {
        fill: #ffff;
      }
    </style>
  </defs>
  <path class="cls-1" d="m40.02,6.85V0C18.04.21.19,18.05-.01,40.04h6.85c.21-18.21,14.98-32.98,33.19-33.19Z"/>
  <path class="cls-1" d="m40.02,19.44v-6.85c-15.04.21-27.24,12.4-27.45,27.45h6.85c.21-11.26,9.33-20.39,20.6-20.6Z"/>
  <path class="cls-1" d="m32.02,36.43c-2.41,0-4.38,1.96-4.38,4.38s1.96,4.38,4.38,4.38,4.38-1.96,4.38-4.38-1.96-4.38-4.38-4.38Z"/>
  <path class="cls-1" d="m49.38,36.62c-2.41,0-4.38,1.96-4.38,4.38s1.96,4.38,4.38,4.38,4.38-1.96,4.38-4.38-1.96-4.38-4.38-4.38Z"/>
  <path class="cls-1" d="m69.01,24.44c0-6.59-5.36-11.95-11.95-11.95h-10.92v7.03h10.58c2.91,0,5.27,2.36,5.27,5.27v32.27c0,2.83-2.3,5.14-5.14,5.14H24.06c-2.62,0-4.75-2.13-4.75-4.75v-11.67h-7.03v11.5c0,6.59,5.36,11.95,11.95,11.95h25.96v11.78l14.93-14.9c2.48-2.27,3.9-5.48,3.9-8.83V24.44Z"/>
</svg>