<?xml version="1.0" encoding="UTF-8"?>
<svg id="Layer_1" data-name="Layer 1" xmlns="http://www.w3.org/2000/svg" viewBox="0 0 75 79">
  <defs>
    <style>
      .cls-1 {
        fill: #fff;
      }
    </style>
  </defs>
  <path class="cls-1" d="m74.82,10.28v-2.46c.01-1.58.01-3.15,0-4.73-.03-2.02-1.11-3.09-3.14-3.09H3.08c-.26,0-.49,0-.75.06C1.01.36.18,1.47.18,2.97c0,.84,0,1.68,0,2.52,0,1.73.02,3.51-.03,5.26-.03,1.44.44,2.6,1.5,3.65,1.81,1.79,3.59,3.61,5.37,5.43.84.86,1.68,1.72,2.53,2.58,5.83,5.92,11.67,11.84,17.51,17.75.12.12.16.22.16.41,0,11.77,0,23.54,0,35.3,0,.32.02.63.07.92.12.73.54,1.38,1.16,1.78.42.27.91.41,1.4.41.21,0,.43-.03.64-.08.4-.11.82-.27,1.29-.5,2.21-1.08,4.43-2.16,6.63-3.26,2.03-1.01,4.05-2.03,6.07-3.05l1.52-.77c1.17-.59,1.77-1.59,1.77-2.98-.01-6.27,0-12.53,0-18.8v-6.27s0-.88,0-.88c0-.62-.01-1.23,0-1.85,0-.12.06-.26.11-.31,3.44-3.53,6.88-7.06,10.35-10.57,5.09-5.16,10.2-10.3,15.31-15.44.99-.99,1.41-2.06,1.31-3.26-.02-.23-.02-.47-.01-.7Zm-19.02,14.22c-4,4.06-7.99,8.13-12.03,12.23-.58.59-1.24,1.26-1.37,2.28-.03.26-.04.52-.04.77v1.51c0,8.58,0,17.15,0,25.73q0,.18-.16.25c-2.45,1.19-4.89,2.39-7.33,3.59l-2.26,1.1v-31.54s-.01-.22-.01-.22c0-.12,0-.25,0-.37.07-1.07-.31-2.01-1.15-2.86-2.36-2.36-4.7-4.75-7.04-7.13l-.45-.46c-2.74-2.79-5.48-5.58-8.22-8.38l-6.85-6.98h57.2l-10.29,10.46Zm13.65-15.88c-.32,0-.64,0-.96,0H6.11c-.22,0-.45,0-.58,0-.01-.13-.01-.36-.01-.58v-2.69s62.93,0,62.93,0h.42c.19,0,.38.01.58,0,0,1.07,0,2.14,0,3.27Z"/>
</svg>