<?xml version="1.0" encoding="UTF-8"?>
<svg id="Layer_1" data-name="Layer 1" xmlns="http://www.w3.org/2000/svg" viewBox="0 0 84 79">
  <defs>
    <style>
      .cls-1 {
        fill: #fff;
      }
    </style>
  </defs>
  <path class="cls-1" d="m9.94,68.99h64.14c0-.32,0-.61,0-.91,0-8.51-.02-17.01.03-25.52,0-.97.21-2.01.61-2.89.89-1.99,3.07-2.95,5.32-2.52,2.03.39,3.7,2.25,3.87,4.33.03.42.05.84.05,1.26,0,10.07,0,20.14,0,30.2,0,.6,0,1.22-.1,1.81-.41,2.55-2.04,4.01-4.65,4.2-.53.04-1.07.04-1.61.04-23.82,0-47.64,0-71.45,0-.67,0-1.36-.03-2.02-.14-2.33-.41-3.71-1.88-3.99-4.21-.06-.51-.1-1.02-.1-1.53,0-10.14,0-20.28,0-30.41,0-1.85.41-3.55,2.02-4.67,1.61-1.13,3.38-1.32,5.16-.43,1.75.88,2.68,2.37,2.69,4.33.03,8.72.02,17.43.03,26.15,0,.28,0,.56,0,.92Z"/>
  <path class="cls-1" d="m46.95,16.96c0,.46,0,.73,0,1.01,0,13.03,0,26.06,0,39.09,0,.91-.04,1.82-.1,2.72-.15,2.41-2.17,4.32-4.61,4.38-2.62.07-4.79-1.69-5.06-4.14-.09-.83-.13-1.67-.13-2.51,0-13.19,0-26.38,0-39.58v-1c-.27.25-.45.41-.61.58-2.79,2.78-5.5,5.64-8.37,8.33-2.78,2.61-7.15,1.28-8.12-2.36-.41-1.54-.08-2.95.87-4.21.2-.26.42-.5.65-.73,5.62-5.62,11.24-11.24,16.86-16.86,1.42-1.42,3.07-2.08,5.01-1.41.85.29,1.71.8,2.35,1.43,5.61,5.53,11.17,11.11,16.73,16.69,1.37,1.37,2.15,3.02,1.69,5-.84,3.59-4.9,4.94-7.92,2.66-.39-.29-.75-.63-1.09-.98-2.49-2.48-4.98-4.98-7.47-7.47-.18-.18-.36-.35-.67-.64Z"/>
</svg>