<?xml version="1.0" encoding="UTF-8"?>
<svg id="Layer_1" data-name="Layer 1" xmlns="http://www.w3.org/2000/svg" viewBox="0 0 79 79">
  <defs>
    <style>
      .cls-1 {
        fill: #fff;
      }
    </style>
  </defs>
  <path class="cls-1" d="m59.46,64.48c-2.46-.03-5.01-.03-7.57,0-1.28.01-2.09.75-2.14,1.97-.03.56.14,1.05.49,1.43.39.42.97.65,1.68.67.49.01.98.02,1.47.02.38,0,.76,0,1.14,0h1.13s1.25,0,1.25,0c.87,0,1.74,0,2.6-.01,1.29-.03,2.09-.81,2.08-2.04,0-1.23-.82-2.01-2.12-2.02Z"/>
  <path class="cls-1" d="m39.68,58.76c-.53.02-1.05.27-1.41.67-.36.4-.55.91-.52,1.43.05,1.04,1,1.93,2.05,1.93.02,0,.04,0,.07,0,.53-.02,1.02-.25,1.38-.64.37-.4.56-.92.54-1.47-.02-.54-.25-1.04-.65-1.4-.4-.36-.89-.54-1.45-.52Z"/>
  <path class="cls-1" d="m12.61,54.56c-1.04.03-2.02,1.04-2.02,2.06,0,1.04,1,2.03,2.05,2.04h0c1.06,0,1.99-.96,2-2.06,0-.55-.23-1.08-.63-1.48-.38-.37-.9-.59-1.4-.56Z"/>
  <path class="cls-1" d="m78.96,76.04c-.16-1.24-.32-2.48-.49-3.72-.52-3.92-1.06-7.97-1.46-11.96-.58-5.79-2.67-10.19-6.41-13.45-3.38-2.95-7.39-4.68-11.91-5.14-.39-.04-1.19-.12-1.37-.35-.6-.74-1.09-1.56-1.61-2.43-.14-.23-.27-.46-.41-.68.14-.12.26-.24.39-.35,3.9-3.45,5.89-7.79,5.91-12.91,0-.68,0-1.36,0-2.04,0-1.22-.02-2.48.02-3.71.01-.47.18-1.02.45-1.51.69-1.23,1.34-2.67.43-4.32-.2-.37-.38-.74-.55-1.12-.18-.4-.37-.79-.58-1.18-.28-.51-.5-.92-.7-1.29-.43-.81-.77-1.45-1.45-2.53-.05-.09-4.96-8.69-17.36-7.17-.51.05-.96.12-1.37.22-5.72,1.28-9.83,4.9-12.2,10.76-.08.21-.16.42-.23.63-.13.39-.25.75-.44,1.04-1.18,1.81-1.17,3.22.03,5.02.11.16.44.66.44,1.02.02.75,0,1.49-.02,2.24-.03,1.13-.06,2.29.04,3.44.16,1.92.41,4.17,1.03,6.3.79,2.74,2.46,5.11,5.24,7.43-.12.19-.24.38-.35.57-.49.8-.95,1.55-1.47,2.27-.19.25-.59.49-.86.51-3.69.29-6.85,1.23-9.66,2.88-.75.44-1.47.93-2.22,1.45-.12.08-.24.16-.36.24l-.11-1.81c-.14-2.4-.28-4.75-.45-7.1-.04-.56.09-.81.62-1.16,4.11-2.75,6.04-6.58,5.74-11.4-.31-4.96-2.84-8.61-7.5-10.83-1.04-.5-1.89-.54-2.53-.14-.64.4-.97,1.2-.97,2.37,0,.65,0,1.31,0,1.96,0,1.43.01,2.91-.03,4.36,0,.25-.21.63-.51.96-.24.27-.56.48-.88.7-.05.03-.1.07-.15.1-1.35-.62-1.86-1.63-1.69-3.31.14-1.39.1-2.81.06-4.19l-.03-1.07c-.02-.78-.31-1.41-.82-1.78-.52-.37-1.22-.45-1.98-.21-.31.1-.64.24-1.02.42C2.72,16.34.31,19.94.02,24.77c-.29,4.74,1.71,8.68,5.78,11.39.5.33.61.55.57,1.17-.47,7.31-.84,13.74-1.14,19.65-.06,1.17.08,2.31.41,3.29.92,2.75,2.94,4.38,6.17,4.99l-.3,2.79c-.27,2.56-.54,5.08-.86,7.59-.12.94-.16,1.99.43,2.65.43.49,1.1.71,2.19.71,9.93,0,19.87,0,29.8,0,11.11,0,22.22,0,33.32,0,1.04,0,1.72-.22,2.14-.7.43-.49.56-1.18.42-2.26ZM34.65,8.34c1.26-1.43,3.19-2.73,5.4-3.65,2.13-.71,9.52-2.52,15.12,3.78.04.07.08.14.13.21l.64.93c-7.47-1.92-14.8-1.91-22.31.04.35-.49.66-.92,1.01-1.32Zm-3.51,7.44c-.07-.07-.14-.19-.22-.34,2.05-1.52,4.34-2.09,6.13-2.42,6.23-1.15,11.83-1.01,17.13.41,1.04.28,2.07.77,3.07,1.23.4.19.8.38,1.2.56.2.09.26.16.27.18,0,0,0,.12-.25.44-1.11,1.36-2.46,1.74-4.11,1.16-4.33-1.49-9.15-1.83-14.74-1.02-1.1.16-2.17.49-3.21.81-.67.21-1.36.42-2.04.59-1.23.29-2.04-.47-2.97-1.35l-.26-.24Zm1.34,11.96c-.3-1.54-.34-3.15-.38-4.86-.01-.56-.03-1.12-.05-1.69,1.88.6,3.46.07,4.99-.44l.14-.05c3.3-1.11,6.99-1.36,11.62-.78.92.12,1.82.37,2.77.65.75.22,1.53.44,2.33.59.9.16,1.79.19,2.74.22.28,0,.57.02.86.03.32,4.53.01,9.19-3.82,12.84-3.52,3.35-7.6,4.41-12.12,3.14-4.98-1.39-8.11-4.73-9.08-9.65Zm9.56,14.01h5.69l-2.78,4.65-2.91-4.65Zm.2,8.05l-3.79,2.82-1.7-5.03c-.03-.08-.05-.15-.07-.23-.05-.18-.11-.39-.21-.59-1.06-1.95-.85-3.6.67-5.14l5.11,8.18Zm10.32-8.15l.11.17c.46.72.89,1.37,1.29,2.04.06.11.08.28.07.34-.7,2.4-1.41,4.8-2.14,7.26l-.34,1.13-3.85-2.82,4.87-8.12ZM11.9,61.08c-1.63-.32-2.74-1.8-2.65-3.51.14-2.67.3-5.34.46-8.01l.31-5.17c.16-2.79.33-5.57.53-8.36.1-1.34-.39-2.18-1.63-2.79-2.68-1.34-4.44-3.77-4.82-6.67-.37-2.85.67-5.59,2.85-7.51,0,.22,0,.44,0,.65-.02,1.33-.03,2.59.06,3.85.05.79.48,1.69,1.05,2.24.72.69,1.54,1.29,2.33,1.87.31.22.61.45.91.68.87.66,1.82.66,2.69,0,.34-.26.68-.51,1.02-.76.81-.59,1.65-1.21,2.4-1.92.61-.58.87-1.56.91-2.22.07-1.21.06-2.43.05-3.71,0-.2,0-.41,0-.61,1.14.98,1.92,2.14,2.41,3.62,1.39,4.2-.39,8.49-4.31,10.44-1.33.66-1.86,1.58-1.75,3.07.41,6.02.82,12.37,1.27,19.96.05.84.08,1.8-.16,2.61-.51,1.74-2.05,2.64-3.91,2.27Zm56.63,13.74v-1.56s0-4.13,0-4.13v-.41c0-.36.01-.73-.01-1.09-.08-1.29-.83-2.06-2.02-2.06h-.01c-1.21,0-2,.83-2.02,2.1-.02,1.46-.02,2.93-.01,4.39v2.76s-39.88,0-39.88,0v-1.63c0-1.8,0-3.58,0-5.36,0-1.22-.5-1.96-1.51-2.22-.65-.17-1.27-.06-1.73.3-.5.39-.78,1.03-.79,1.81-.02,1.49-.02,2.97-.01,4.46v2.66s-5.64,0-5.64,0l.65-6.19c.03-.32.06-.65.1-.97.08-.85.16-1.74.32-2.58.06-.32.3-.71.55-.88,2.54-1.72,3.73-4.1,3.56-7.06l-.06-1.05c-.08-1.28-.16-2.6-.17-3.89,0-.39.18-.88.42-1.14,2.84-3.07,6.44-4.81,11.01-5.31.55-.06.66.02.83.54.8,2.56,1.66,5.14,2.5,7.64l.74,2.23c.3.92.79,1.49,1.43,1.69.66.21,1.41.02,2.22-.57,1.07-.78,2.14-1.57,3.27-2.41l.71-.53v4.81c0,1.66,0,3.32,0,4.98,0,2.14,1.24,2.48,1.98,2.5.55.02,1.06-.16,1.41-.51.44-.43.67-1.11.67-2.03,0-2.25,0-4.5,0-6.75v-3.02s2.8,2.02,2.8,2.02c.19.14.38.28.57.42.24.18.47.35.71.52.84.6,1.6.78,2.25.57.65-.22,1.13-.83,1.43-1.81.79-2.58,1.61-5.34,2.52-8.51q.52-1.81,2.47-1.51c6.29.96,11.4,5.67,12.7,11.72.41,1.9.62,3.89.83,5.81.09.89.19,1.77.3,2.65l1.1,8.6h-6.17Z"/>
</svg>