<?xml version="1.0" encoding="UTF-8"?>
<svg id="Layer_1" xmlns="http://www.w3.org/2000/svg" viewBox="0 0 148 375">
    <defs>
        <style>
            .cls-1 {
                fill:#fff;
            }
        </style>
    </defs>
    <path class="cls-1"
        d="m68.48,370c-9.66-19.84-9.66-35.38-14.21-42.33s-9.95-2.31-12.79-6.94-26.72-32.74-33.82-40.67-3.41-19.51,1.42-26.79c4.83-7.28,5.68-21.49,3.69-34.06-1.99-12.57,3.13-18.52,4.83-33.73s-5.97-20.83-8.81-23.81c-2.84-2.98-5.12-6.28,1.42-14.55,6.54-8.27,1.99-19.51,2.84-33.07.85-13.56,11.37-28.77,19.04-36.38,7.67-7.61,3.41-20.17,2.27-29.43-1.14-9.26,4.26-15.87,7.96-8.27,3.69,7.61,13.93,5.29,18.47,2.65s9.38-32.41,13.93-36.04,15.49.17,15.49.17c-1.42,8.6-3.69,28.77,1.42,36.04,5.12,7.28,9.95,8.27,6.82,20.5s6.82,6.94,7.96,27.12,1.71,47.62-3.69,60.19c-5.4,12.57-12.51,21.16-9.66,38.36,1.48,8.92,3.11,20.79,9.85,31.89h0s-11.13,17.54-11.42,24.49c-.28,6.94,13.36,36.04,24.16,40.01,10.8,3.97,17.91,5.29,23.31,8.93,5.4,3.64,6.25,18.85,4.55,22.49-1.71,3.64-9.38,3.31-11.37,6.28s-2.84,17.86-15.06,19.18c-12.22,1.32-19.04-6.94-23.87-3.31s-6.25,25.79-5.97,29.76l-18.76,1.32Z" />
</svg>