<?xml version="1.0" encoding="UTF-8"?><svg id="Layer_1" xmlns="http://www.w3.org/2000/svg" viewBox="0 0 161 301"><defs><style>.cls-1{fill:#fff;}</style></defs><path class="cls-1" d="m4.35,172.32c2.58,19.81,21.81,25.09,22.1,32.36.29,7.26,3.07,16.96-14.25,29.28.25.45.5.92.76,1.43,5.74,11.23-1.72,24.76,5.45,26.74s14.06,2.31,16.07,5.61,3.44,5.61,3.73,12.88,7.17,10.9,14.06,6.6,16.36-3.3,19.53-4.57c3.18-1.27,7.44-4.34,10.6-3.68s3.44,3.96,8.9,4.95c5.45.99,7.46.66,10.62,1.98s3.73,7.92,9.76,9.91,3.16-3.96,10.62-7.26,10.62.99,16.64-1.32,3.44-7.59,8.32-15.52,9.76,1.65,10.14-10.02c.38-11.67-10.43-22.01-20.19-41.82-9.76-19.81-9.76-35.33-14.35-42.26s-10.04-2.31-12.91-6.93c-2.87-4.62-26.98-32.69-34.15-40.61-7.17-7.92-3.44-19.48,1.43-26.74s5.74-21.46,3.73-34.01c-2.01-12.55,3.16-18.49,4.88-33.68,1.72-15.19-6.03-20.8-8.9-23.77-1.44-1.49-2.73-3.06-2.83-5.3h0s-6.35-2.95-10.65,2.99-3.73,14.2-10.62,20.8-20.66,4.95-27.84,11.56c-7.17,6.6-12.63,19.81-10.04,24.43s6.31,14.53,1.15,20.8-10.04,11.56-8.9,17.5,7.46,14.2,6.89,23.44-12.34,24.43-9.76,44.24Z"/></svg>