<?xml version="1.0" encoding="UTF-8"?><svg id="Layer_1" xmlns="http://www.w3.org/2000/svg" viewBox="0 0 160 208"><defs><style>.cls-1{fill:#fff;}</style></defs><path class="cls-1" d="m136.53,49.96c-2.01-.66-7.17,2.31-11.77-6.6s.29-10.57,5.17-12.88c2.12-1.01,6.32-3.51,9.99-6.46-5.98-1.25-1.95-8.39-4.83-11.7-3.16-3.63-17.51-12.88-20.66-3.63s-8.61,5.61-19.8,4.95c-11.19-.66-10.9-9.24-16.07-8.25s-6.03,7.59-3.16,10.9,1.15,9.91-2.3,19.48-9.47,9.24-19.23,16.18-10.04,13.21-16.07,20.14c-1.62,1.87-3.14,2.87-4.49,3.34,1.51,7.35-5.31,11.41-11.15,20.27-1.01,1.52-2.22,2.63-3.57,3.41.69,4.27,1.05,9.24-.01,12.93-2.3,7.92-6.03,24.04,0,27.4s20.09,2.31,20.66,6.6-6.6,30.38-4.02,35.66,16.64,4.95,20.09,6.93c3.44,1.98,17.51,16.18,26.98,14.53s22.57-9.46,23.05-17.28c.48-7.82,1.91-29.61-.67-31.26s-17.79-10.24-14.64-13.87,7.17-10.9,13.77-9.91c6.6.99,7.75,3.3,11.48-7.26,3.73-10.57,12.05-3.3,14.64-6.27s13.49-22.78,14.64-38.3-6.03-28.39-8.04-29.06Z"/></svg>