<?xml version="1.0" encoding="UTF-8"?><svg id="Layer_1" xmlns="http://www.w3.org/2000/svg" viewBox="0 0 275 201"><defs><style>.cls-1{fill:#fff;}</style></defs><path class="cls-1" d="m255.85,94.68c0-3.4,15.63-10,19.01-30.12-3.01-.39-5.27-.95-5.95-1.74-2.58-2.97,6.31-19.17-2.58-35.01-8.9-15.84-20.95-15.84-23.82-12.53s-4.02,12.55-10.9,13.87-15.73,1.32-17.05,1.32-11.07,7.92-21.12,6.6-13.49-.33-11.77-10.24c0,0,.33-1.47.5-3.74-6.02-.28-22.34-3.15-24.17-7.66-2.01-4.95-6.16-5.21-9.18-3.63s-7.46-4.29-12.34-6.27c-4.88-1.98-12.57,4.77-15.76,5.03-3.18.25-11.5-8.66-16.96-6.68-5.45,1.98-14.79,16.02-19.16,19.23-4.37,3.22-11.26,11.8-17.86,8.17s-9.53-16.42-14.66-16.8c-5.14-.37-18.62,3.59-21.49,7.55s-7.75,7.59-10.33,12.22-8.61,7.26-13.77,6.6c-2.49-.32-4.52.18-6.05.54.07,2.24.05,4.47-.12,6.56-.86,10.57,1.72,16.51,5.74,21.13s2.3,8.25,4.3,12.88,14.64.99,16.36,13.21c1.72,12.22,5.74,25.75,15.78,31.04,10.04,5.28,25.54,4.62,31.57,11.56,6.03,6.93,7.75,15.52,9.47,22.12s2.01,12.55-3.73,19.15.86,7.92,4.02,16.51c.24.64.41,1.26.53,1.85,1.35-.47,2.87-1.47,4.49-3.34,6.03-6.93,6.31-13.21,16.07-20.14s15.78-6.6,19.23-16.18c3.44-9.57,5.17-16.18,2.3-19.48-2.87-3.3-2.01-9.91,3.16-10.9,5.17-.99,4.88,7.59,16.07,8.25s16.64,4.29,19.8-4.95,17.51,0,20.66,3.63c3.16,3.63-2.01,11.89,6.89,11.89s12.05,10.9,17.79,10.24,6.6-5.61,12.63-5.61,10.33,8.25,22.67,4.95c12.34-3.3,5.74-10.9,14.06-20.47,8.32-9.57,9.76-25.09,6.89-28.39-2.87-3.3-11.19-8.58-11.19-12.22Z"/></svg>