<?xml version="1.0" encoding="UTF-8"?><svg id="Layer_1" xmlns="http://www.w3.org/2000/svg" viewBox="0 0 268 194"><defs><style>.cls-1{fill:#fff;}</style></defs><path class="cls-1" d="m157.45,6.72c.97,1.97,1.96,3.85,2.94,5.65,8.77,16.05,17.4,25.37,17.06,35.77-.38,11.56-5.21,2.08-10.04,9.92-4.83,7.85-2.27,13.08-8.24,15.37-5.97,2.29-9.1-1.96-16.48,1.31-7.39,3.27-4.55,9.16-10.52,7.19-5.97-1.96-6.54-8.5-9.66-9.81-3.13-1.31-5.12-.98-10.52-1.96-5.4-.98-5.68-4.25-8.81-4.91s-7.35,2.39-10.5,3.65c-3.14,1.26-12.52.28-19.35,4.53-6.82,4.25-13.64.65-13.93-6.54-.28-7.19-1.71-9.48-3.69-12.75-1.99-3.27-8.81-3.6-15.92-5.56s.28-15.37-5.4-26.49-8.53-7.19-10.23-7.19-4.55,2.29-7.11,1.96-7.67-.33-7.39,5.89c.28,6.21,9.1,9.48,8.53,13.41-.57,3.92-.57,19.95,1.71,23.22,2.27,3.27,10.52,13.08,11.08,17.66.57,4.58,2.56,11.45,5.12,13.08,2.56,1.64,8.81,1.31,11.94,4.25s8.81,14.72,11.65,18.31,13.36,9.16,15.06,13.41,5.68,18.31,14.5,29.43c8.81,11.12,4.55,27.8,12.22,32.37,7.67,4.58,10.8-14.39,18.47-17.99,7.67-3.6,6.5,2.29,12.2-2.29,5.7-4.58,9.12-10.14,11.1-20.6,1.99-10.46,3.13-17,5.68-18.31,2.56-1.31,4.83-.65,7.39-2.62s14.35-21.17,26.15-19.95,10.23,11.45,12.79,14.06,9.66,7.19,11.37,10.46c1.71,3.27,3.41,8.83,3.41,12.1s10.52,13.73,14.21,12.75c3.69-.98,5.4-6.54,11.37-6.54s15.06,10.46,20.18,9.81c5.12-.65,1.42-26.49-1.14-35.32s-7.96-9.81-13.36-8.83c-5.4.98-25.86,0-34.11-9.81-8.24-9.81-2.84-29.76-3.13-34.01s-11.65-12.75-11.37-20.6c.28-7.85,0-17.66-3.41-21.26-2.52-2.66-8.32-12.13-11.27-18.46-1.04-2.22-1.73-4.06-1.8-5.08l-18.76,1.31Z"/></svg>