<?xml version="1.0" encoding="UTF-8"?><svg id="Layer_1" xmlns="http://www.w3.org/2000/svg" viewBox="0 0 747 822"><defs><style>.cls-1{fill:#fff;}</style></defs><path class="cls-1" d="m180.97,812.85c.86.38,1.82.25,2.62-.27,5.48-3.6,32-20.56,41.76-18.49,10.9,2.31-4.02-23.44,6.89-28.06s55.67-11.24,57.82-12.39,2.15-6.76,14.78-12.37,7.65,3.3,20.33,0c12.67-3.3,6.07-28.06,18.7-31.37,12.63-3.3,9.52,2.31,18.39,0,8.87-2.31-14.38-17.83,10.88-20.14s-7.75-30.71,4.88-42.92,27.26-35,49.65-30.38,19.46-1.53,3.01-43.75c-3.73-9.57,11.77-32.36,21.52-44.24,9.76-11.89,0-33.35,11.48-46.22s10.9-4.62,30.42-18.82c19.51-14.2,16.45-21.46,36.45-29.72,11.19-4.62,19.11,2.71,35.87-3.3,17.51-6.27,21.52-20.14,33.29-20.14s.86,8.25,26.98,6.6c26.11-1.65,27.26-26.41,45.34-28.06s20.09,6.6,32.71,8.91,12.63,1.32,20.95,11.89,6.89-11.56-8.04-23.77c-14.92-12.22-16.36-5.61-16.93-18.82s-12.63-11.89-19.51-6.6-26.98,18.49-25.25-1.65,10.04-13.87,22.96-33.68c12.91-19.81,8.32-22.45,19.23-35.99s19.8-24.1,12.05-31.7-11.77-3.3-22.38-15.85c-10.62-12.55-22.38,8.58-30.42-11.89-8.04-20.47-20.66-12.88-24.97-11.23s-5.17,5.28-24.11,7.26-27.84-11.23-34.15-12.22c-6.31-.99-20.95,6.6-29.56,15.19-8.61,8.58-40.18,6.27-48.79-.33s-22.05,15.22-39.15,5.3c-17.1-9.92-24.27-11.57-23.98-27.42s3.44-31.37-5.74-35c-9.18-3.63-15.78,5.94-24.68-12.22s2.01-17.5-8.9-30.71-12.91,3.3-28.41-10.9c-15.5-14.2-19.8-12.88-26.4-14.53s-23.24-47.54-25.25-48.87-8.04-10.57-18.65-14.53-4.93-11.83-22.67-13.87c-8.61-.99-7.24-17.12-18.07-16.67-4.02.17-7.18,11.06-10.05,11.39s-18.37-2.31-19.8-1.32,4.02,11.23,5.45,15.85,4.3,12.88,13.2,14.86c8.9,1.98,8.9,9.24,7.17,15.19-1.72,5.94-.57,24.76-5.17,31.37-4.59,6.6-6.89,1.65-12.34,10.9s-.29,15.52-10.33,35.66c-10.04,20.14-33.58,47.87-50.79,65.7-17.22,17.83-29.85,29.72-63.42,43.58-33.58,13.87-36.73,11.89-55.67,18.49s-32.71,8.91-34.15,17.5c-1.43,8.58-3.73,28.72,1.43,35.99s10.04,8.25,6.89,20.47c-3.16,12.22,6.89,6.93,8.04,27.07,1.15,20.14,1.72,47.54-3.73,60.09s-12.63,21.13-9.76,38.3,6.31,45.23,46.2,57.78c39.89,12.55,32.43,6.27,46.49,28.72,14.06,22.45,17.51.33,30.42.33s11.77,11.89,30.71,17.83,24.97-7.26,38.74,3.63c13.77,10.9,19.23,32.03,12.63,56.13-6.6,24.1-25.25,13.87-30.99,5.94-5.74-7.92-10.04-7.92-12.63-4.95s-10.9,58.11-10.62,66.36c.29,8.25,5.45,22.78,14.06,31.7,8.61,8.91,17.79,19.15,12.91,36.32s-18.37,27.4-18.65,34.67c-.23,5.85-.83,7.63.81,8.36Z"/></svg>