<?xml version="1.0" encoding="UTF-8"?><svg id="Layer_1" xmlns="http://www.w3.org/2000/svg" viewBox="0 0 201 209"><defs><style>.cls-1{fill:#fff;}</style></defs><path class="cls-1" d="m185.13,175.66c.19-8.93-5.8-16.89-6.92-22.67-1.15-5.94,3.73-11.23,8.9-17.5s1.43-16.18-1.15-20.8c-2.37-4.25,2.04-15.75,8.35-22.71h0s-14.09-19.55-17.53-26.15-12.34-25.75-17.8-27.95c-5.46-2.2-14.62,4.18-20.36,2.53-5.74-1.65-13.41-12.79-22.38-13.21-8.98-.42-12.91,3.96-15.78,6.93-2.87,2.97-7.17,12.88-17.46,5.62-10.29-7.26-2.63-16.18,0-26.58,2.63-10.4-7.25-12.38-12.67-5.78-5.42,6.6-5.74,7.59-21.24,6.27-15.5-1.32-11.19-5.28-18.08-5.61-6.89-.33-21.24,14.53-24.11,27.58-2.87,13.05,24.97,51.66,24.68,57.93s-6.03,3.3-8.04,13.21,18.65,17.83,24.97,25.75c6.31,7.92,2.87,28.06-2.87,34.67s-15.21,1.65-18.65,4.62.29,13.54,8.9,17.17,4.59,14.86,20.38,16.18c15.78,1.32,21.52-2.31,21.52-8.25s6.03-11.56,6.03-11.56c0,0,37.59-14.2,43.05-20.14s-1.72-24.43,2.3-27.07,12.63,2.64,18.08,16.18c5.45,13.54,0,14.86,5.74,18.82,5.69,3.93,22.1,7.2,32.17,1.78,0,.25,0,.5,0,.75Z"/></svg>