<?xml version="1.0" encoding="UTF-8"?><svg id="Layer_1" xmlns="http://www.w3.org/2000/svg" viewBox="0 0 238 441"><defs><style>.cls-1{fill:#fff;}</style></defs><path class="cls-1" d="m18.48,235.7c1,4.01.32,10.51-.51,16.5-1.15,8.25,3.44,14.2,6.03,17.17,2.58,2.97,2.58,10.24,2.58,15.52,0,4.74,7.39,16.66,6.42,23.11h13.09c5.45,0,22.67.99,28.98,9.24,6.31,8.25,1.15,14.53,4.88,27.4,3.73,12.88,19.51,23.44,22.1,26.41s-3.73,6.93-8.04,7.92c-4.25.98-4.02,4.2-4.02,7.46,0-.02,0-.03,0-.03,2.35,5.19,5,10.56,8.32,13.37,4.3,3.63,4.02,16.84,17.51,23.77s27.84,2.31,29.85,2.31c.12,0,.23.03.35.09,1.6-1.21,3.56-2.4,5.11-2.4,3.16,0-1.3-6.27,1.65-9.41,2.95-3.14,17.29-31.86,27.91-40.45,10.62-8.58,16.64-3.3,20.09-5.94s12.91-8.58,17.51-10.24,6.89-20.8,5.74-22.12-11.48-10.57-11.48-17.5.57-14.2-2.3-14.2-45.37-34.89-45.5-45.51c-.13-10.62,15.91-10.94,17.36-22.5,1.45-11.56-17.56-30.14-17.49-38.31s13.77-5.28,14.92-12.22-2.87-13.87,7.75-23.44c10.62-9.57,22.38-26.08,20.95-34.34-1.43-8.25-11.48-14.2-10.33-26.08,1.15-11.89-8.04-11.89-4.59-15.85s15.78-17.17,18.08-30.38c2.3-13.21,3.16-31.7.86-31.7s-7.46,6.6-14.92,7.59c-7.46.99-27.55,20.8-30.13,20.8s-12.34,6.93-21.24,4.29c-8.9-2.64-28.41-13.21-33-16.18s-21.24-13.21-28.98-13.21c-2.32,0-4.44.12-6.26.29,2.9,7.85,5.06,20.53,3.1,26.02-2.58,7.26-17.51,15.85-20.66,19.48s-2.3,15.19-2.3,18.82-7.75-1.65-12.34,3.63-8.61,10.57-9.47,16.18c-.86,5.61,8.32,16.84,4.3,30.05-4.02,13.21-24.39,30.38-27.84,34.34s1.43,4.95,2.58,6.34c1.15,1.39,2.87.93,6.42,4.9,3.55,3.97,3.34,12.54.47,22.77s10.04,16.51,4.59,22.78c-2.86,3.29-5.88,3.67-8.1,3.29v.12Z"/></svg>