<?xml version="1.0" encoding="UTF-8"?><svg id="Layer_1" xmlns="http://www.w3.org/2000/svg" viewBox="0 0 249 331"><defs><style>.cls-1{fill:#fff;}</style></defs><path class="cls-1" d="m173.66,321.18c-5.71-8.36-5.31-23.94-11.62-24.6-6.31-.66-6.6,22.12-11.19,24.1-4.59,1.98-11.48-3.63-13.77-5.28s-13.77,0-20.38-1.32-8.6-6.45-8.6-6.45c.01-8.6-2.09-21.22-3.74-26.9-2.58-8.91-8.04-9.91-13.49-8.91s-26.11,0-34.44-9.91c-8.32-9.91-2.87-30.05-3.16-34.34s-11.77-12.88-11.48-20.8,0-17.83-3.44-21.46-12.91-19.81-13.2-23.77,1.15-26.08,6.03-29.72,11.77,4.62,24.11,3.3,13.2-16.18,15.21-19.15,9.76-2.64,11.48-6.27.86-18.82-4.59-22.45-12.63-4.95-23.53-8.91c-10.9-3.96-24.68-33.02-24.39-39.95.29-6.93,11.53-24.45,11.53-24.45h0c6.31,10.27,17.07,19.9,36.25,25.94,39.89,12.55,32.43,6.27,46.49,28.72,14.06,22.45,17.51.33,30.42.33s11.77,11.89,30.71,17.83,24.97-7.26,38.74,3.63c13.77,10.9,19.23,32.03,12.63,56.13-6.6,24.1-25.25,13.87-30.99,5.94-5.74-7.92-10.04-7.92-12.63-4.95s-10.9,58.11-10.62,66.36c.29,8.25,5.45,22.78,14.06,31.7,8.61,8.91,17.79,19.15,12.91,36.32s-18.37,27.4-18.65,34.67c-.12,3-.35,6.39,0,7.59.29.99-3.16,1.32-4.88,1.32-3.87,0-8.61.33-11.77-4.29Z"/></svg>