<?xml version="1.0" encoding="UTF-8"?>
<svg id="Layer_1" data-name="Layer 1" xmlns="http://www.w3.org/2000/svg" viewBox="0 0 92 79">
  <defs>
    <style>
      .cls-1 {
        fill: #fff;
      }
    </style>
  </defs>
  <path class="cls-1" d="m27.7,43.72c2.43-2.47,5.1-4.52,8.36-5.51,2.23-.68,4.58-1.16,6.9-1.28,3.05-.15,6.15-.08,9.18.29,4.51.54,8.28,2.75,11.51,5.91.17.16.34.31.6.55.27-.43.5-.81.74-1.18,2.39-3.59,5.69-5.62,10.05-5.61,3,0,6.06-.45,8.94.88,4.64,2.13,7.23,5.73,7.35,10.83.14,6.38.06,12.76.03,19.14-.01,3.34-2.26,5.54-5.64,5.55-4.73.02-9.45,0-14.18,0-.51,0-1.02,0-1.55,0-.55,2.65-1.83,4.59-4.4,5.37-.79.24-1.67.29-2.51.29-11.3.02-22.6-.07-33.89.06-3.75.04-6.37-1.81-7.24-5.72-.47,0-.98,0-1.49,0-4.77,0-9.55.01-14.32,0-3.37-.01-5.52-2.11-5.53-5.45-.02-6.38-.04-12.76,0-19.14.05-6.55,5.28-11.76,11.81-11.82,2.22-.02,4.48-.16,6.64.21,3.91.67,6.73,3.04,8.62,6.64Zm18.15,30c5.67,0,11.34-.02,17.01.02,1.24,0,1.81-.39,1.8-1.71-.05-4.58.11-9.17-.05-13.75-.25-7.09-3.68-12.14-10.21-14.99-3.63-1.58-7.51-1.3-11.32-1.15-8.26.31-14.78,6.23-15.53,14.46-.45,4.97-.18,10.01-.22,15.01-.02,1.99.13,2.12,2.06,2.12,5.48,0,10.97,0,16.45,0Zm-23.78-5.73c0-2.73,0-5.31,0-7.9,0-2.98.14-5.92,1.14-8.79,1.4-4-1.1-8.31-5.29-9.01-1.66-.28-3.39-.22-5.08-.18-4.12.09-6.84,2.91-6.85,7.04,0,5.81,0,11.61,0,17.42,0,.45.05.91.08,1.42h16Zm63.93,0c0-6.48.01-12.8,0-19.12,0-3.45-2.16-6.06-5.59-6.59-1.57-.24-3.2-.18-4.8-.17-6.17.05-8.03,5.75-6.79,9.49.64,1.93.89,4.05,1.01,6.1.17,2.92.05,5.85.07,8.78,0,.5.04,1,.06,1.52h16.04Z"/>
  <path class="cls-1" d="m45.96,0c8.57,0,15.39,6.77,15.4,15.31.01,8.64-6.79,15.45-15.42,15.43-8.55-.01-15.33-6.82-15.33-15.38C30.61,6.8,37.4,0,45.96,0Zm-10.11,15.42c.05,5.49,4.73,10.13,10.18,10.09,5.49-.05,10.13-4.74,10.09-10.19-.04-5.49-4.72-10.13-10.19-10.08-5.5.05-10.13,4.72-10.08,10.18Z"/>
  <path class="cls-1" d="m5.09,21.05c0-5.44,4.24-9.7,9.66-9.71,5.51-.01,9.76,4.25,9.75,9.76-.02,5.42-4.29,9.65-9.73,9.64-5.43,0-9.67-4.26-9.68-9.69Zm14.15.19c.15-2.3-1.82-4.47-4.22-4.65-2.3-.17-4.48,1.77-4.68,4.18-.2,2.34,1.84,4.59,4.28,4.72,2.31.12,4.46-1.86,4.62-4.25Z"/>
  <path class="cls-1" d="m77.29,11.34c5.41.03,9.62,4.31,9.6,9.76-.02,5.47-4.33,9.68-9.87,9.64-5.38-.05-9.57-4.37-9.53-9.83.04-5.39,4.34-9.59,9.8-9.56Zm-.12,14.16c2.34.01,4.44-2.05,4.47-4.41.04-2.33-2.01-4.44-4.37-4.51-2.37-.07-4.56,2.09-4.55,4.48.01,2.35,2.1,4.43,4.44,4.44Z"/>
</svg>