<?xml version="1.0" encoding="UTF-8"?>
<svg id="Layer_1" data-name="Layer 1" xmlns="http://www.w3.org/2000/svg" viewBox="0 0 79.5 79">
  <defs>
    <style>
      .cls-1 {
        fill: #fff;
      }
    </style>
  </defs>
  <path class="cls-1" d="m.26,18.85c.01-3.11.5-6.11,2-8.89,1.34-2.48,3.29-4.34,5.82-5.5,3.03-1.39,6.11-2.71,9.23-3.91,3.51-1.35,7.14-.12,9.09,3.11,2.59,4.3,5.1,8.64,7.52,13.03,2.01,3.63,1.08,7.4-2.2,9.95-.93.72-1.88,1.44-2.68,2.29-1.6,1.69-1.83,3.7-.72,5.76.41.76.92,1.52,1.53,2.13,4.34,4.35,8.69,8.69,13.08,12.99,1.37,1.34,3.01,2.1,5.01,1.71,1.35-.27,2.4-1.06,3.28-2.07.58-.66,1.06-1.4,1.62-2.07,2.61-3.14,5.81-3.95,9.47-2.15,2.5,1.23,4.88,2.73,7.3,4.12,1.86,1.06,3.7,2.14,5.55,3.22,3.72,2.18,5.01,6.01,3.36,9.97-1,2.4-2,4.81-2.98,7.21-2.13,5.2-6.11,7.98-11.54,8.92-5.55.96-10.8-.22-15.89-2.35-6.56-2.74-12.34-6.78-17.88-11.16-11.22-8.87-20.29-19.52-26.5-32.49C1.82,28.68.45,24.54.27,20.08c-.02-.41,0-.82,0-1.23Zm5.11-.44c-.02,3.99.81,7.25,2.26,10.38,8.47,18.25,21.79,31.84,39.51,41.22,3.73,1.97,7.69,3.34,11.89,3.79,5.66.6,9.59-1.09,12.02-6.58.89-2.03,1.73-4.08,2.56-6.13.83-2.06.36-3.38-1.56-4.5-3.81-2.2-7.62-4.39-11.44-6.58-1.48-.85-3.15-.48-4.15.9-.41.57-.83,1.15-1.29,1.68-2.21,2.52-4.87,4.19-8.33,4.13-2.6-.04-4.85-1.12-6.82-2.74-4.43-3.66-8.52-7.68-12.33-11.97-1.41-1.59-2.84-3.24-3.88-5.08-2.15-3.81-1.71-7.57,1.05-10.94.96-1.17,2.18-2.15,3.37-3.11,1.52-1.23,1.91-2.63.94-4.33-2.18-3.84-4.38-7.66-6.61-11.47-1.09-1.86-2.39-2.25-4.39-1.44-2.23.91-4.44,1.87-6.68,2.76-3.25,1.3-5.18,3.69-5.83,7.1-.22,1.12-.25,2.29-.31,2.91Z"/>
  <path class="cls-1" d="m51.15,17.75c-.61-2.08-1.36-4.04-1.73-6.07-1.01-5.48,2.14-10.07,7.63-11.34,5.52-1.28,11.25,2.24,12.36,7.61.44,2.13.06,4.21-.65,6.22-.41,1.16-.91,2.28-1.41,3.51.21.12.44.25.68.37,6.3,3.22,9.83,8.45,11.14,15.3.06.32.07.65.08.98.06,1.8-.49,2.76-2.23,3.29-1.7.51-3.45.89-5.2,1.16-5.71.89-11.45,1.21-17.23.85-4.08-.26-8.13-.79-12.12-1.73-2.69-.63-3.34-1.64-2.91-4.38,1.04-6.58,4.37-11.61,10.18-14.95.52-.3,1.03-.61,1.4-.84Zm22.78,15.54c-.62-1.62-1-3.11-1.73-4.4-2.97-5.26-7.57-7.74-13.58-7.57-6.49.18-12.05,4.78-13.44,11.05-.13.59-.13.9.64,1.05,6.81,1.27,13.66,1.64,20.56.92,2.42-.25,4.82-.67,7.54-1.05Zm-14.55-17.68c2.9,0,5.16-2.28,5.14-5.18-.02-2.97-2.22-5.21-5.11-5.21-2.98,0-5.29,2.24-5.3,5.12,0,2.95,2.31,5.26,5.27,5.26Z"/>
</svg>