<?xml version="1.0" encoding="UTF-8"?>
<svg id="Layer_1" data-name="Layer 1" xmlns="http://www.w3.org/2000/svg" viewBox="0 0 90 79">
  <defs>
    <style>
      .cls-1 {
        fill: #fff;
      }
    </style>
  </defs>
  <path class="cls-1" d="m43.95,64.23h0c-2.22,0-4.09,1.86-4.1,4.07,0,1.05.44,2.1,1.21,2.88s1.82,1.22,2.88,1.22h0c1.07,0,2.09-.43,2.87-1.21.79-.78,1.22-1.8,1.22-2.87,0-2.21-1.87-4.09-4.09-4.09Zm1.31,5.38c-.34.35-.8.55-1.29.56h-.03c-1,0-1.82-.81-1.83-1.82-.02-.99.83-1.88,1.81-1.9h.03c.44,0,.89.19,1.24.52.37.36.59.84.6,1.33,0,.49-.18.96-.52,1.31Z"/>
  <path class="cls-1" d="m28.99,64.23h-.03c-1.08,0-2.08.41-2.84,1.16-.77.76-1.19,1.79-1.2,2.9,0,2.29,1.75,4.1,4.01,4.12h.05c1.05,0,2.04-.41,2.8-1.15.78-.77,1.22-1.81,1.22-2.91,0-2.29-1.75-4.1-4.01-4.11Zm1.25,5.41c-.35.34-.8.53-1.28.53h-.02c-1.01-.01-1.82-.85-1.81-1.87,0-.49.22-.97.58-1.32.35-.34.79-.52,1.25-.52h.03c1,.02,1.83.89,1.82,1.89,0,.49-.2.95-.56,1.3Z"/>
  <path class="cls-1" d="m58.66,64.23c-1.11-.03-2.14.36-2.92,1.11-.78.74-1.23,1.75-1.25,2.83-.03,1.15.38,2.21,1.15,3.01.75.77,1.76,1.2,2.85,1.22h.05c2.18,0,3.97-1.77,4.02-3.96.04-2.3-1.67-4.15-3.9-4.21Zm1.14,5.42c-.35.34-.8.52-1.27.52h-.03c-1.01-.02-1.82-.86-1.81-1.88,0-.49.22-.97.59-1.32.36-.35.82-.52,1.28-.52.99.02,1.82.89,1.81,1.9,0,.49-.21.95-.56,1.3Z"/>
  <path class="cls-1" d="m76.55,8.64c-7.87,0-15.75,0-23.62,0H13.56c-1.89,0-2.05.16-2.05,2.09,0,12.75,0,25.5,0,38.25,0,1.81.24,2.06,2,2.06,10.5,0,21,0,31.5,0s21,0,31.5,0c1.73,0,1.99-.26,1.99-1.95,0-12.83,0-25.65,0-38.48,0-1.76-.2-1.96-1.94-1.96Zm-62.61,2.4h62.11v22.49c-.08,0-.17.01-.25.02-.23.02-.45.03-.67.03-1.64,0-3.29,0-4.93,0-4.31,0-8.77,0-13.16.03h-.02c-.72,0-1.1-.24-1.45-.9-.62-1.2-1.46-2.76-2.4-4.3-.12-.19-.73-1.14-1.35-1.17h-.02c-.5,0-1.1.67-1.37,1.1-.91,1.5-1.78,3.03-2.71,4.64-.29.51-.59,1.03-.89,1.56-.12-.42-.23-.82-.34-1.21-.28-1.01-.54-1.93-.79-2.86-.3-1.12-.59-2.23-.88-3.35-.67-2.56-1.37-5.2-2.09-7.8-.14-.52-.68-1.18-1.17-1.29-.28-.06-.52-.03-.72.11-.38.25-.51.8-.59,1.25-.6,3.5-1.19,7.01-1.78,10.52l-.77,4.59c-.34,2.03-.67,3.87-1.13,5.76-.02-.04-.03-.08-.05-.12-.13-.33-.26-.66-.38-1-.27-.77-.53-1.55-.8-2.32-.59-1.72-1.2-3.5-1.84-5.23-.17-.47-.64-1.18-1.12-1.26-.03,0-.07,0-.1,0-.46,0-1.12.46-1.35.87-1.05,1.88-2.57,2.61-5.06,2.45-2.51-.16-5.08-.12-7.56-.09-1.05.01-2.14.03-3.21.03h-1.19V11.05Zm62.13,37.55H13.94v-12.69h1.11c1.23,0,2.46,0,3.69,0,3.14,0,6.39-.02,9.59.04,1.53.04,2.44-.43,3.05-1.53.07-.13.19-.24.33-.38.04-.04.09-.08.13-.13l2.59,7.44c.13.38.26.75.4,1.13.3.87.62,1.76.91,2.65v.04c.22.61.44,1.3,1.3,1.29.02,0,.05,0,.07,0,.96-.04,1.09-.83,1.2-1.46v-.03c.33-1.89.65-3.82.96-5.68.23-1.38.46-2.76.69-4.13.57-3.35,1.14-6.64,1.9-9.98l.25.95c.43,1.62.86,3.24,1.29,4.86.14.53.28,1.06.42,1.59.44,1.65.89,3.36,1.38,5.02.13.43.6,1.09,1.04,1.15.42.05,1.06-.41,1.32-.83.89-1.47,1.76-2.99,2.6-4.46.34-.59.68-1.19,1.02-1.78.12-.21.25-.42.41-.67l.15-.25c.22.39.43.77.64,1.14.56.98,1.08,1.91,1.57,2.86.43.83,1.02,1.19,2,1.19h.02c4.72-.03,9.51-.02,14.15-.02h5.92v12.69Z"/>
  <path class="cls-1" d="m64.15,26.92c.67.52,1.02.78,1.38.78s.7-.25,1.34-.76l.13-.1c.49-.39,1-.78,1.48-1.21,1.49-1.34,3.02-2.82,3.89-4.84.93-2.14.02-4.59-2.06-5.57-1.61-.76-3.22-.54-4.77.65-1.41-1.13-2.91-1.39-4.48-.78-1.18.46-2.05,1.33-2.46,2.46-.44,1.21-.31,2.57.37,3.82,1.3,2.38,3.36,4.12,5.2,5.56Zm-2.9-9.71c.43-.31.87-.46,1.31-.46.71,0,1.42.4,2.1,1.21.29.34.55.5.83.5h.01c.32,0,.63-.22,1-.69.66-.82,1.44-1.15,2.34-.98.9.17,1.53.75,1.83,1.66.29.89-.09,1.67-.54,2.37-1.22,1.89-2.94,3.36-4.62,4.67-1.87-1.48-3.5-2.87-4.67-4.78-.88-1.44-.74-2.68.41-3.5Z"/>
  <path class="cls-1" d="m89.87,7.76c0-4.7-3.03-7.74-7.72-7.75-3.56,0-7.11,0-10.67,0h-4.64s-14.77,0-14.77,0c-14.77,0-29.55,0-44.32,0C3.27.01.14,3.07.14,7.45c-.02,21.34-.02,42.68,0,64.02,0,4.15,3.06,7.26,7.26,7.4.45.01.9,0,1.35,0h.14s0,.12,0,.12h71.84l.44-.05v-.03c.28-.02.56-.04.84-.04,4.91-.07,7.85-3.03,7.85-7.91,0-21.07,0-42.14,0-63.22Zm-3.47,63.75c-.03,2.3-1.55,3.82-3.87,3.88-.56.02-1.11.01-1.67,0H8.42c-3.52,0-4.83-1.3-4.83-4.79v-9.38h82.82v6.22c0,1.35.01,2.7,0,4.05ZM3.59,57.64V8.09c0-3.27,1.41-4.66,4.71-4.66h73.46c3.26,0,4.65,1.37,4.65,4.58v49.63s-82.83,0-82.83,0Z"/>
</svg>