<?xml version="1.0" encoding="UTF-8"?>
<svg id="Layer_1" data-name="Layer 1" xmlns="http://www.w3.org/2000/svg" viewBox="0 0 81 79">
  <defs>
    <style>
      .cls-1 {
        fill: #fff;
      }
    </style>
  </defs>
  <path class="cls-1" d="m81.02,38.97c-.47-1.93-1.89-3.48-3.99-4.36-3.02-1.27-5.79-.76-8.01,1.47-2.01,2.02-3.96,4.05-6.01,6.2-.76.79-1.53,1.6-2.31,2.41-1.86-2.73-4.47-2.93-6.81-2.89l-1.42.02c-2.79.04-5.67.09-8.48-.05-2.91-.15-5.68-.49-8.25-1-4.13-.83-7.51-.66-10.63.54-3.45,1.33-6.37,3.65-9.16,7.27-.07-.09-.13-.18-.2-.26-.36-.48-.7-.93-1.09-1.32-.71-.72-1.26-1.02-1.84-1.02h0c-.58,0-1.14.32-1.85,1.05-3.38,3.49-6.76,6.99-10.12,10.49-.51.53-1.02,1.16-1.01,1.88.02.73.56,1.35,1.15,1.91,5.82,5.55,11.65,11.1,17.48,16.64.73.69,1.32,1.04,1.9,1.04s1.18-.36,1.89-1.09c3.19-3.27,6.38-6.54,9.57-9.81,1.73-1.78,1.84-2.27.46-4.01.45-.03.9-.06,1.36-.09,1.37-.1,2.8-.2,4.19-.21,2.8-.02,5.6-.02,8.4-.01,3.63,0,7.39,0,11.09-.04,4.24-.06,7.64-1.67,10.1-4.78,1.53-1.93,3.17-3.82,4.75-5.66.71-.83,1.43-1.65,2.14-2.48l1.63-1.91c1.2-1.4,2.4-2.8,3.58-4.23,1.46-1.75,2-3.78,1.52-5.71Zm-61.2,34.68l-15.07-14.34,8.08-8.39,15.46,15-8.47,7.74Zm56.54-31.6c-2.22,2.64-4.46,5.28-6.7,7.91l-3.63,4.27c-.73.86-1.47,1.71-2.18,2.59-1.44,1.77-3.35,2.69-5.68,2.75-2.8.06-5.64.07-8.4.08-2.89,0-5.88.02-8.82.09-2.48.06-5,.22-7.44.38-1.45.09-2.9.19-4.35.26-.37.02-.76-.07-.9-.2-2.51-2.39-5-4.8-7.51-7.24l-1.66-1.61c2.96-4.45,8.58-8.42,15.75-6.53,2.91.76,5.97.97,8.03,1.05,2.77.12,5.58.09,8.29.07,1.27-.01,2.54-.02,3.79-.02.92,0,1.62.24,2.08.71.45.46.68,1.13.67,2-.01,1.71-.96,2.61-2.73,2.63-2,.01-4,.01-5.99,0-1.4,0-2.79,0-4.19,0-.75,0-1.34.17-1.76.5-.44.35-.68.87-.67,1.51,0,.74.33,1.98,2.45,1.99h.95c3.07.02,6.24.03,9.36,0,3.63-.04,5.92-1.98,6.61-5.6.08-.43.31-.89.58-1.16,2.73-2.75,5.64-5.64,9.45-9.38,1.31-1.29,3.12-1.38,4.49-.22,1.13.95,1.17,1.94.11,3.19Z"/>
  <path class="cls-1" d="m25.49,22.56c.29.07.57.15.86.22.69.18,1.41.37,2.12.49.79.13,1.08.53,1.37,1.25.06.14.11.26.17.36.08.15.13.27.17.43.06.3.05.57-.03.71-.37.66-.76,1.31-1.14,1.95-.23.38-.46.76-.69,1.15-.11.19-.19.38-.29.6l-.05.12c-.07.17-.06.36.03.52h0c.14.25.3.45.5.66l.64.67c.67.7,1.36,1.43,2.05,2.11.73.73,1.15.77,2.07.23l1.34-.8c.58-.35,1.17-.7,1.75-1.05.18-.1.71-.01,1.31.21.64.25,1.16.58,1.22.79.01.03.02.07.04.1.01.04.03.08.04.12.28,1.14.56,2.29.84,3.43.21.85.62,1.18,1.47,1.19.7,0,1.37,0,2.01,0,.69,0,1.36,0,2.01,0,.8,0,1.23-.33,1.42-1.1l.17-.66c.21-.81.43-1.65.6-2.49.13-.65.39-.95,1.05-1.2.18-.07.32-.13.45-.19.18-.08.33-.15.51-.2.21-.05.52-.07.71.03.67.38,1.34.78,1.98,1.17.42.25.84.51,1.26.75.57.34,1.3.25,1.77-.22.94-.93,1.9-1.88,2.85-2.84.6-.61.66-1.1.23-1.83-.12-.21-.24-.42-.36-.63-.36-.64-.74-1.3-1.18-1.9-.52-.73-.57-1.24-.2-2.05l.05-.11c.11-.23.21-.46.33-.65.1-.16.27-.36.45-.41,1.23-.33,2.49-.64,3.71-.93.95-.23,1.26-.6,1.26-1.53,0-1.3,0-2.59,0-3.89,0-.73-.5-1.36-1.21-1.53l-1.24-.3c-.81-.2-1.62-.39-2.43-.59-.26-.06-.61-.52-.86-1.13-.27-.65-.36-1.28-.21-1.53.23-.38.46-.76.69-1.15.4-.66.8-1.33,1.19-1.99.35-.59.25-1.34-.23-1.83-.84-.85-1.75-1.76-2.79-2.8-.63-.62-1.12-.68-1.88-.24-.23.13-.46.26-.68.39-.67.38-1.36.78-1.99,1.23-.65.47-.96.56-1.55.2-.27-.17-.54-.29-1.03-.44-.32-.1-.45-.25-.53-.6-.23-1.01-.48-2.03-.72-3.01l-.16-.65c-.21-.86-.61-1.18-1.48-1.18-1.31,0-2.64,0-3.96,0-.89,0-1.29.33-1.5,1.22-.08.32-.16.64-.24.96-.17.64-.34,1.31-.45,1.97l-.03.16c-.12.75-.15.91-.92,1.19-.34.13-.79.32-.97.44-.34.22-.62.21-1-.04-.85-.55-1.74-1.07-2.59-1.57l-.44-.26c-.76-.45-1.25-.39-1.88.22-.96.95-1.89,1.89-2.75,2.76-.68.68-.73,1.13-.23,1.97.13.21.25.43.37.64.31.55.64,1.12,1.01,1.64.56.77.81,1.12.31,2.24-.1.35-.19.47-.29.59-.03.04-.06.07-.08.11-.07.1-.27.39-.48.45-.82.23-1.65.43-2.46.63-.4.1-.79.2-1.19.3-.8.2-1.13.63-1.14,1.45,0,1.43,0,2.75,0,4.02,0,.82.35,1.25,1.15,1.45Zm1.33-4.73l2.85-.73c.09-.02.18-.05.27-.07.19-.05.38-.11.57-.14.8-.13,1.11-.72,1.32-1.56.16-.64.41-1.23.72-1.75.47-.77.51-1.34.15-1.93-.48-.79-.95-1.58-1.42-2.36l-.52-.87,1.86-1.8c.27.16.54.32.82.49.73.43,1.48.88,2.23,1.35.6.38,1.16.4,1.82.07.85-.43,1.74-.76,2.49-1.02.56-.2.97-.66,1.11-1.24.21-.9.43-1.8.65-2.7l.26-1.06h2.53l.25,1.01c.23.93.47,1.88.69,2.83.15.65.51,1.01,1.22,1.2.9.25,1.75.66,2.47,1.04.54.28,1.03.27,1.56-.05.86-.52,1.73-1.04,2.57-1.54l.68-.41,1.82,1.8c-.17.29-.34.57-.51.86-.44.74-.9,1.51-1.37,2.26-.4.63-.41,1.2-.03,1.9.42.78.71,1.49.9,2.16.22.78.59,1.18,1.26,1.33.93.21,1.88.45,2.79.68.34.09.69.17,1.04.26v2.53c-.32.08-.64.16-.97.24-.79.2-1.61.41-2.42.56-1,.19-1.53.68-1.76,1.63-.17.69-.5,1.35-.88,2.08-.33.63-.31,1.18.06,1.77.47.75.93,1.53,1.37,2.27.17.28.33.56.5.84l-1.85,1.82c-.26-.15-.52-.31-.79-.47-.74-.44-1.51-.89-2.27-1.37-.68-.43-1.31-.4-2.12.09-.48.29-1.06.53-1.76.72-.78.21-1.34.53-1.53,1.38-.19.88-.43,1.77-.65,2.63-.09.33-.18.67-.26,1.01h-2.52c-.08-.3-.15-.59-.23-.89-.2-.75-.41-1.53-.56-2.3-.21-1.06-.7-1.6-1.65-1.82-.63-.15-1.24-.46-1.84-.76l-.3-.15c-.59-.3-1.12-.29-1.67.05-.75.46-1.51.92-2.27,1.37-.31.19-.62.37-.93.56l-1.78-1.87c.15-.25.31-.52.46-.78.44-.74.89-1.51,1.37-2.27.39-.62.4-1.2.03-1.9-.31-.6-.66-1.31-.87-2.06-.24-.87-.64-1.29-1.36-1.46-.86-.19-1.74-.42-2.59-.64-.35-.09-.69-.18-1.04-.27v-2.53Z"/>
  <path class="cls-1" d="m43.25,26.94h.01c2.11,0,4.09-.81,5.57-2.28,1.49-1.48,2.31-3.45,2.31-5.55,0-4.32-3.51-7.85-7.83-7.87h-.04c-2.08,0-4.04.81-5.52,2.27-1.49,1.49-2.32,3.47-2.32,5.58,0,4.32,3.5,7.84,7.81,7.85Zm-3.8-11.67c1.02-1.02,2.39-1.58,3.86-1.58h.01c3.01,0,5.37,2.38,5.37,5.41,0,3.02-2.36,5.39-5.38,5.41h-.03c-1.44,0-2.79-.56-3.81-1.58-1.03-1.03-1.6-2.39-1.6-3.84,0-1.45.56-2.81,1.58-3.82Z"/>
</svg>