<?xml version="1.0" encoding="UTF-8"?>
<svg id="Layer_1" data-name="Layer 1" xmlns="http://www.w3.org/2000/svg" viewBox="0 0 68 81">
  <defs>
    <style>
      .cls-1 {
        fill: #fff;
      }
    </style>
  </defs>
  <path class="cls-1" d="m68.28,27.36c-.16,4.31-.2,8.62-.5,12.91-.35,5.02-1.75,9.8-3.93,14.33-5.14,10.68-13.1,18.6-23.67,23.92-3.58,1.8-7.28,2.01-10.9.21-9.96-4.98-17.96-12.07-23.08-22.09-3.69-7.21-5.54-14.89-5.5-23.01.02-5.55-.02-11.1,0-16.65,0-1.64.56-2.27,2.16-2.8,3.71-1.23,7.45-2.36,11.11-3.71,6.42-2.38,12.56-5.37,18.46-8.86,1.36-.81,2.69-.84,4.06-.04,9.23,5.39,18.98,9.55,29.25,12.47,1.15.33,2.21.78,2.5,2.1.1.46.09.95.09,1.43,0,3.27,0,6.53,0,9.8-.02,0-.04,0-.06,0Zm-5.25,1.71c0-3.15-.02-6.31.02-9.46,0-.66-.19-.91-.82-1.1-9.38-2.83-18.34-6.65-26.88-11.45-.62-.35-1.11-.34-1.72-.03-2.3,1.18-4.64,2.29-6.93,3.49-6.43,3.36-13.21,5.84-20.05,8.18-.55.19-.71.43-.71,1,.03,4.84.01,9.69.02,14.53,0,3.19.36,6.35,1.1,9.46,3.28,13.59,11.36,23.37,23.64,29.85,2.59,1.37,5.07,1.34,7.64,0,3.93-2.07,7.56-4.56,10.8-7.61,6.42-6.04,10.86-13.22,12.77-21.9,1.09-4.94,1.03-9.95,1.12-14.96Z"/>
  <path class="cls-1" d="m50.9,31.28c-.82-.81-1.9-.94-2.94-.29-.4.25-.76.58-1.1.91-4.28,4.28-8.55,8.56-12.82,12.84h0s-2.22,2.22-2.22,2.22c-.36-.34-.56-.52-.76-.72-2.2-2.18-4.38-4.38-6.59-6.54-.48-.46-1.03-.89-1.62-1.19-.9-.46-1.89-.19-2.61.58-.69.74-.88,1.7-.42,2.57.26.49.62.94,1.01,1.33,2.49,2.53,5,5.04,7.5,7.55.57.57,1.13,1.14,1.74,1.67,1.18,1.03,2.18,1.02,3.39.02.19-.16.38-.34.56-.52,5.45-5.46,10.9-10.93,16.34-16.4.32-.32.61-.66.85-1.04.66-1.05.53-2.16-.32-3Z"/>
</svg>