<?xml version="1.0" encoding="UTF-8"?>
<svg id="Layer_1" data-name="Layer 1" xmlns="http://www.w3.org/2000/svg" viewBox="0 0 67 79">
  <defs>
    <style>
      .cls-1 {
        fill: #fff;
      }
    </style>
  </defs>
  <path class="cls-1" d="m66.88,19.85c0-.86-.43-1.89-1.04-2.5-5.33-5.43-10.63-10.72-15.74-15.74-.63-.61-1.7-1.05-2.61-1.06-6.93-.05-13.97-.05-20.77-.04h-3.97c-5.16,0-8.37,3.23-8.38,8.42v3.91s0,1.57,0,1.57h-1.57c-1.5,0-2.93,0-4.37,0-4.5.03-7.9,3.38-7.91,7.79-.03,16.14-.03,32.78,0,49.48,0,4.45,3.4,7.81,7.9,7.82,6.11,0,12.22.01,18.32.01s12.22,0,18.32-.01c4.6,0,7.95-3.38,7.98-8.02,0-1.39,0-2.78,0-4.24v-1.63s1.54,0,1.54,0c1.46,0,2.86,0,4.26,0,4.73-.02,8.03-3.28,8.04-7.92.03-14.55.02-26.57-.03-37.83Zm-16.44-9.37v-1.86s8.38,8.35,8.38,8.35c-.4,0-.79,0-1.19.01-1.92.02-3.73.03-5.56-.05-.86-.04-1.59-.96-1.61-2.04-.03-1.47-.03-2.94-.02-4.41Zm-2.07,61.72c-.06,1.36-1.24,2.5-2.76,2.66-.32.03-.63.03-.95.03H9.15c-3,0-4.02-1.01-4.02-4.01V22.84c0-2.73,1.1-3.84,3.79-3.85.74,0,1.47,0,2.22,0h3.23s0,11.71,0,11.71v26.45c0,5.29,3.16,8.46,8.44,8.46,5.71,0,11.42,0,17.13,0h8.45c0,.59,0,1.17.01,1.75.02,1.67.03,3.25-.04,4.84Zm13.92-14.93c0,2.63-1.12,3.75-3.75,3.75-11.91,0-23.82,0-35.73,0-2.7,0-3.81-1.11-3.81-3.83V8.89c0-2.63,1.12-3.76,3.74-3.76,3.18,0,6.35,0,9.53,0,2.12,0,4.24,0,6.36,0h7.16c0,.51.01,1.02.02,1.52.02,1.41.04,2.74-.03,4.08-.26,4.61.34,7.27,1.99,8.91,1.67,1.66,4.44,2.27,8.97,1.99,1.3-.08,2.62-.06,4-.04.51,0,1.03.02,1.55.02v35.66Z"/>
  <path class="cls-1" d="m53.56,49.74c-3.18,0-6.35,0-9.52,0h-3.81s-3.59,0-3.59,0c-3.29,0-6.58,0-9.87,0-1,0-1.76.26-2.26.76-.39.39-.59.93-.59,1.54,0,1.43,1.08,2.28,2.87,2.28,4.47,0,8.93,0,13.4,0s8.93,0,13.4,0c.97,0,1.75-.27,2.24-.77.39-.4.6-.93.6-1.55-.01-1.42-1.08-2.27-2.87-2.27Z"/>
  <path class="cls-1" d="m24.68,44.14c.48.38,1.16.58,1.97.58,2.01,0,4.02,0,6.03,0h2.47s2.46,0,2.46,0c.82,0,1.64,0,2.46,0,1.19,0,2.39,0,3.58,0,1.7,0,2.58-.74,2.62-2.16.02-.69-.17-1.24-.57-1.65-.45-.47-1.15-.71-2.05-.71-5.67-.02-11.34-.02-17,0-1.67,0-2.75.9-2.75,2.27,0,.69.27,1.26.78,1.67Z"/>
  <path class="cls-1" d="m29.4,30.02c1.05,1.05,2.25,1.05,3.29,0,2.39-2.39,4.78-4.78,7.18-7.18,1.22-1.22,2.44-2.42,3.64-3.65.87-.88.85-2.21-.01-3.03-.83-.78-2.11-.75-2.96.1-1.57,1.56-3.14,3.14-4.71,4.7-1.58,1.58-3.17,3.17-4.79,4.79-.36-.37-.69-.71-1.03-1.05-1.04-1.04-2.07-2.08-3.12-3.11-.69-.69-1.64-.85-2.46-.46-1.3.63-1.57,2.33-.53,3.38,1.82,1.84,3.66,3.66,5.49,5.49Z"/>
</svg>