<?xml version="1.0" encoding="UTF-8"?>
<svg id="Capa_2" data-name="Capa 2" xmlns="http://www.w3.org/2000/svg" viewBox="0 0 202 190">
  <path d="m165.65,43.68c1.89,1.75,3.75,3.44,5.57,5.17,4.91,4.65,9.58,9.5,13.71,14.88,3.54,4.61,6.73,9.43,9.52,14.51,2.71,4.95,4.14,10.3,4.48,15.94.53,8.85-1.75,16.94-6.5,24.37-3.59,5.61-7.4,11.05-11.82,16.07-5.46,6.21-11.31,11.98-17.87,17.05-8.3,6.41-17.25,11.61-27.12,15.16-7.51,2.7-15.21,4.58-23.15,5.47-7.08.8-14.15.68-21.25-.11-5.07-.56-10.12-1.13-15.03-2.51-7.4-2.07-14.54-4.81-21.33-8.45-1.26-.68-2.52-1.36-3.77-2.07-.49-.28-.8-.2-1.23.22-8.18,8.22-16.35,16.45-24.58,24.62-3.15,3.13-7.66,3.07-11.09.01-3.04-2.7-3.47-7.28-.87-10.61,1.17-1.5,2.56-2.83,3.91-4.18,6.36-6.35,12.73-12.67,19.12-18.99.58-.58.41-.88-.1-1.37-3.79-3.63-7.65-7.21-11.31-10.97-4.82-4.97-9.02-10.46-12.79-16.28-1.18-1.82-2.43-3.59-3.5-5.47-2.96-5.22-4.63-10.85-5.06-16.85-.62-8.51,1.53-16.32,5.85-23.6,4.39-7.39,9.65-14.12,15.33-20.56,5.1-5.77,10.98-10.62,17.01-15.31,6.85-5.33,14.45-9.37,22.52-12.55,7.38-2.91,15.03-4.75,22.85-5.89,7.27-1.06,14.61-1.28,21.92-.76,8.85.63,17.5,2.45,25.86,5.48,5.69,2.06,11.15,4.66,16.38,7.71.67.39,1.04.28,1.55-.23,7.74-7.76,15.48-15.51,23.25-23.25,1.48-1.47,3.1-2.67,5.27-3.05,3.89-.67,7.24,1.69,8.55,4.91,1.39,3.4.31,6.29-1.85,8.93-.6.74-1.31,1.39-1.98,2.07-6.73,6.7-13.46,13.4-20.18,20.09-.09.09-.15.2-.29.39Zm-25.28,2.31c-3.51-1.48-6.76-3.03-10.13-4.23-6.27-2.24-12.74-3.8-19.39-4.39-3.76-.33-7.55-.5-11.33-.51-3.85-.01-7.67.44-11.49.98-6.11.87-12.07,2.29-17.78,4.58-8.96,3.59-17.09,8.65-24.41,14.92-9.35,8.02-17.39,17.17-23.38,28.02-3.27,5.93-3.6,12.16-1.77,18.58.91,3.18,2.9,5.77,4.75,8.44,3.89,5.6,7.78,11.19,12.68,15.98,3.14,3.07,6.38,6.04,9.58,9.04.4.38.75.7,1.34.1,5.87-5.94,11.76-11.85,17.66-17.74.53-.53.67-.92.26-1.63-1.09-1.9-2.24-3.8-3.08-5.82-2.92-7.05-3.93-14.36-2.76-21.96.98-6.36,3.36-12.16,7.12-17.3,4.93-6.75,11.23-11.77,19.27-14.53,7.32-2.51,14.71-3.09,22.27-1.54,4.66.96,8.92,2.94,13.01,5.31.69.4,1.07.34,1.61-.21,4.98-5.02,9.99-10.01,14.99-15.01.26-.26.5-.56.97-1.07Zm13.87,9.26c-.24.16-.36.22-.45.31-6.09,6.08-12.17,12.16-18.26,18.23-.4.4-.33.69-.07,1.15,1.72,3.04,3.37,6.1,4.44,9.47,1.91,6.02,2.53,12.09,1.49,18.34-.67,4.05-1.83,7.95-3.6,11.62-2.5,5.18-6.01,9.61-10.47,13.33-5.07,4.23-10.74,7.02-17.19,8.42-4.37.94-8.74,1.47-13.16.92-5.27-.66-10.34-2.06-14.96-4.82-.85-.51-1.75-.92-2.61-1.4-.46-.25-.77-.21-1.16.18-5.07,5.11-10.16,10.2-15.24,15.3-.23.23-.45.48-.85.92,3.94,1.58,7.64,3.19,11.43,4.54,7.37,2.63,14.96,4.3,22.81,4.6,6.69.26,13.35.19,19.98-1.02,4.04-.74,8.06-1.57,11.91-2.99,8.29-3.04,16.1-7.07,23.18-12.32,3.69-2.74,7.08-5.92,10.45-9.07,6.23-5.85,11.39-12.59,16.11-19.69,1.89-2.85,3.58-5.77,4.29-9.19,1.22-5.89.78-11.57-2.29-16.81-2.04-3.48-4.33-6.83-6.68-10.11-3.45-4.83-7.58-9.1-11.76-13.3-2.31-2.32-4.86-4.4-7.34-6.62Zm-74.98,52.12c.74-.81,1.3-1.45,1.9-2.05,5.06-5.07,10.12-10.14,15.2-15.19,4.96-4.94,9.94-9.87,14.91-14.8.59-.58.55-.75-.28-1.1-2.51-1.06-5.11-1.83-7.84-1.85-2.56-.02-5.17-.01-7.67.42-2.8.48-5.27,1.95-7.68,3.48-2.92,1.86-5.46,4.1-7.23,7.08-2.87,4.82-4.27,9.99-3.62,15.68.32,2.83,1.17,5.44,2.32,8.32Zm11.47,11.29c11.34,4.75,22.51,1.55,28.81-5.61,7.59-8.63,7.45-20.01,3.74-26.88-10.82,10.8-21.65,21.62-32.55,32.5Z"/>
</svg>