<?xml version="1.0" encoding="UTF-8"?>
<svg id="Capa_2" data-name="Capa 2" xmlns="http://www.w3.org/2000/svg" viewBox="0 0 263 258.5" fill="#fff">
  <path d="m131.53,1.69c71.85.19,128.84,58.7,127.49,129.91-1.33,70.4-58.54,126.55-130.42,125.18C61.19,255.49,2.42,200.34,3.99,125.94,5.41,58.11,60.88,1.99,131.53,1.69Zm80.95,205.75c26.2-25.94,40.66-70.63,25.58-114.92-14.98-44-57.85-76.61-108.21-75.92-46.46.64-90.53,30.19-105.92,79.17-13.44,42.78.57,85.55,26.55,111.65,16.42-33.79,43-52.25,80.94-53.62,38.01,1.31,64.65,19.73,81.05,53.63Zm-78.71,34.46c4.37-.05,10.98-.63,17.55-1.66,7.04-1.1,13.8-3.22,20.43-5.73,10.06-3.82,19.28-9.22,27.98-15.52.69-.5.68-1.04.38-1.73-1.37-3.06-2.65-6.17-4.11-9.18-5.81-12-14.77-21.16-25.95-28.21-9.21-5.81-19.16-9.54-30.1-10.57-6.94-.66-13.85-.75-20.71.43-15.35,2.65-28.51,9.66-39.5,20.61-7.75,7.73-13.18,17.01-16.88,27.29-.13.36.21,1.12.56,1.39,8.43,6.41,17.58,11.51,27.47,15.37,13.08,5.11,26.62,7.43,42.89,7.52Z"/>
  <path d="m83.96,89.11c.02-26.05,21.74-47.71,48.08-47.35,27.09.37,47.12,22.64,46.89,47.34-.26,28.04-21.9,47.76-48.03,47.53-26.88-.23-46.86-21.86-46.94-47.52Zm80.09-.21c.15-18.17-15.74-32.42-32.55-32.25-18.74.19-32.1,15.14-32.6,31.34-.61,19.6,15.64,33.95,32.62,33.92,15.19-.03,32.56-12.24,32.53-33.01Z"/>
</svg>