<?xml version="1.0" encoding="UTF-8"?><svg id="Layer_1" xmlns="http://www.w3.org/2000/svg" viewBox="0 0 175 265"><defs><style>.cls-1{fill:#fff;}</style></defs><path class="cls-1" d="m154.53,151.89c2.01-7.26,6.31-22.45,9.47-26.74s7.75-7.59,6.31-14.53c-1.43-6.93-22.38-1.32-27.55-13.21s-10.04-16.84-14.06-19.15-8.32-9.57-8.61-13.54-.11-9.68-.11-9.68h0c-4.63-2.25-11.52-9.62-11.52-12.28,0-3.3-1.72-8.91-3.44-12.22s-8.9-7.92-11.48-10.57-1-12.97-12.91-14.2c-11.91-1.23-23.82,18.16-26.4,20.14s-4.88,1.32-7.46,2.64-3.73,7.92-5.74,18.49c-2.01,10.57-5.45,16.18-11.21,20.8s-4.57-1.32-12.32,2.31c-5.61,2.63-8.81,13.39-13.09,17.38h0c-.04,11.27,16.97,35.94,16.97,41.89,0,21.13,4.59,26.74,10.33,40.83,5.74,14.08,18.94,44.36,25.83,50.63,6.89,6.27,10.95,25.04,16.36,23.77s4.3-6.27,5.17-8.91.86-10.9,1.72-12.55,6.31-.66,8.32,3.63,0,13.87,4.3,17.83,8.04,14.2,11.48,14.53c11.76,1.13,12.05-10.57,15.05-15.09,2.99-4.52,5.9-2.08,10.49-4.72s4.3-15.19,6.31-15.52,5.17-2.97,8.52-7.56,11.28,2.6,12-6.18c.72-8.78-6.18-12.68-7.9-17.63-1.72-4.95-1.15-9.57-2.08-14.37-.93-4.79-4.52-9.41-4.23-14.03.29-4.62,9.47-4.95,11.48-12.22Z"/></svg>