<?xml version="1.0" encoding="UTF-8"?><svg id="Layer_1" xmlns="http://www.w3.org/2000/svg" viewBox="0 0 181 173"><defs><style>.cls-1{fill:#fff;}</style></defs><path class="cls-1" d="m168.85,81.11c-3.44-5.28-23.24-20.8-35.01-25.42s-26.4-11.56-29.27-14.86-2.58-6.93-4.88-7.59-15.21-1.32-20.09.66-8.97,2.97-11.94,1.98c-1.5-.5-3.99-1.34-6.24-2.04-1.36,3.81-15.47,4.92-17.11,3.03-1.72-1.98-7.36-10.01-10.14-11.28-2.78-1.27-17.13-14.47-18.85-12.49s-2.87,29.39,1.43,34.34,10.33,11.23,9.76,16.18-2.58,14.2-2.58,18.49,15.5,24.43,15.5,32.03-2.01,4.29-2.01,9.24,1.72,17.17-.57,19.81-4.59,21.79.57,21.79,16.64-.33,21.81-6.27c5.17-5.94,16.07-10.24,25.54-8.91,5.97.83,8.06,6.66,7.56,10.84,3.47.16,7.2-.39,8.22-2.92,2.01-4.95,6.31-6.6,11.48-7.59,5.17-.99,12.33-.33,14.34-.99s0-5.94,6.89-10.57,10.9-14.53,12.91-16.84,7.75,2.31,14.64-10.24c6.89-12.55,11.48-25.09,8.04-30.38Z"/></svg>