<?xml version="1.0" encoding="UTF-8"?><svg id="Layer_1" xmlns="http://www.w3.org/2000/svg" viewBox="0 0 380 261"><defs><style>.cls-1{fill:#fff;}</style></defs><path class="cls-1" d="m35.6,42.95c5.44,3.34,12.16,8.68,16.02,11.72,5.45,4.29,8.61,16.18,14.36,20.47,5.75,4.29,21.22,0,23.52,1.32s2.01,13.87,6.31,14.86,9.47-11.56,12.08-14.53c2.61-2.97,8.58,0,13.74,0s19.51-4.62,22.38-4.62,8.61,5.94,10.04.99,10.33-5.94,19.23-8.91c8.9-2.97,9.76-12.88,8.04-24.1-1.72-11.23,3.16-18.16,8.03-18.16,1.8,0,2.97-1.89,3.26-4.33,3.39.11,6.94-.47,7.94-2.93,2.01-4.95,6.31-6.6,11.48-7.59,5.17-.99,12.33-.33,14.34-.99.24-.08.42-.22.57-.42,5.52,8.16,13.62,23.54,16.66,22.54,4.02-1.32,23.82-3.96,26.42-3.87,2.61.09.84-9.67,1.41-13.63s3.73-.33,6.89,3.3c4.02,4.62,12.91,10.9,11.19,12.88-3.38,3.89-4.02,11.23-4.02,19.81s24.11,6.27,26.4,6.27,5.45-11.89,6.89-11.89,4.59,3.63,7.17,5.28,21.24-1.98,21.24,2.64,6.31,14.2,9.76,16.51,2.58,11.56,1.43,19.81,3.44,14.2,6.03,17.17,2.58,10.24,2.58,15.52,9.18,19.48,5.74,25.09c-3.44,5.61-1.72,13.21-3.73,17.17s-4.02,6.6-7.46,13.21-14.92,6.6-19.51,8.25-8.61,8.25-8.61,13.87-6.89,10.24-10.9,12.55-1.43,6.6-2.01,17.17.57,12.22,3.73,15.85-2.58,13.87-7.75,14.53-16.93-6.6-21.6-8.25-13.41,0-23.17-5.28c-9.76-5.28-12.91-16.84-15.5-19.81s-12.05-2.97-14.35-7.26c-2.3-4.29-11.77-14.2-16.36-13.21-4.59.99-10.62-3.96-20.66-8.25s-17.79-9.91-24.11-15.52-13.77-10.24-19.8-13.87c-6.03-3.63-23.53-5.61-30.42-7.59s-30.42-23.77-32.43-26.08-24.39-7.26-29.15-7.2c-4.75.07-14.76-13.93-17.92-19.22s-33.86-17.17-40.18-21.46c-2.78-1.89-4.39-4.11-5.32-6,4.35-1.9,5.59-11.41,8.19-17.11,3.16-6.93,11.77-8.25,17.51-10.57,0,0,4.41-3.3,4.36-6.1Z"/></svg>