<?xml version="1.0" encoding="UTF-8"?><svg id="Layer_1" xmlns="http://www.w3.org/2000/svg" viewBox="0 0 214 331"><defs><style>.cls-1{fill:#fff;}</style></defs><path class="cls-1" d="m196.05,238.79c-9.47-1.32-20.38,2.97-25.54,8.91s-16.64,6.27-21.81,6.27-2.87-19.15-.57-21.79.57-14.86.57-19.81,2.01-1.65,2.01-9.24-15.5-27.73-15.5-32.03,2.01-13.54,2.58-18.49-5.45-11.23-9.76-16.18-3.16-32.36-1.43-34.34,16.07,11.23,18.85,12.49c2.78,1.27,8.41,9.3,10.14,11.28s17.22.66,17.22-3.63-7.46-13.21-12.34-12.55c-4.88.66-11.19-6.93-11.19-10.9s-2.3-11.23-4.59-13.87-1.43-6.93-1.43-16.18-21.81-32.03-23.82-34.34c-1.4-1.61-1.41-11.75-1.28-17.73-4.15-1.69-7.04-4.39-10.49-4.39-6.03,0-6.89,4.95-12.63,5.61s-8.9-10.24-17.79-10.24c-.79,0-1.47-.07-2.06-.19,0,0,0,0,0,0-3.68,2.95-7.87,5.46-9.99,6.46-4.88,2.31-9.76,3.96-5.17,12.88s9.76,5.94,11.77,6.6,9.18,13.54,8.04,29.06-12.05,35.33-14.64,38.3-10.9-4.29-14.64,6.27c-3.73,10.57-4.88,8.25-11.48,7.26-6.6-.99-10.62,6.27-13.77,9.91-3.16,3.63,12.05,12.22,14.64,13.87s1.15,23.44.67,31.26c-.48,7.82-13.58,15.63-23.05,17.28-1.7.3-3.55.08-5.45-.48,0,0,0,0,0,0v30.86c0,7.59-1.67,13.94,9.64,13.08s17.05,13.34,17.05,15.65,5.45,12.22,7.75,14.86c1.48,1.7,1.65,8.86.06,14.37,5.44,3.34,12.16,8.68,16.02,11.72,5.45,4.29,8.61,16.18,14.36,20.47,5.75,4.29,21.22,0,23.52,1.32s2.01,13.87,6.31,14.86,9.47-11.56,12.08-14.53c2.61-2.97,8.58,0,13.74,0s19.51-4.62,22.38-4.62,8.61,5.94,10.04.99,10.33-5.94,19.23-8.91c8.9-2.97,9.76-12.88,8.04-24.1-1.72-11.23,3.16-18.16,8.03-18.16s5.17-13.87-4.3-15.19Z"/></svg>