<?xml version="1.0" encoding="UTF-8"?><svg id="Layer_1" xmlns="http://www.w3.org/2000/svg" viewBox="0 0 64.5 97"><defs><style>.cls-1{fill:#fff;}</style></defs><path class="cls-1" d="m45.02,79.37c.03.07.06.14.09.22.77,1.98.91,6.13,1.68,13.2,0,0,0,0,0,0,1.45-4.9,7.11-7.94,11.4-12.22s.99-10.87.88-14.09c-.11-3.23-8.12-10.27-7.03-11.17,0,0,2.2-3.38,2.2-5.36s-3.95-.99-3.94-.95c.01.03,5.91-5.3,4.92-8.92s-6.42-6.75-8.07-6.75-3.95,6.59-11.03,7.41c-5.32.62-2.96-.99-3.62-6.91s9.55-12.18,9.55-12.18c0,0-7.08-.82-8.4-.82s-5.43-2.14-8.07-2.8-3.89-10.37-6.42-13.01-4.21,1.24-4.28,6.26-6.42,5.1-10.04,5.1c-.83,0-1.22.51-1.33,1.28,4.73,8.19,9.51,16.72,9.51,24.42,0,0,0,0,0,0,0,3.06.89,5.87,2.18,8.4.02.04.04.07.06.11.51.99,1.09,1.94,1.7,2.84.1.14.19.29.29.43,2.05,2.96,4.41,5.44,6.01,7.4.14.17.27.33.39.49.75.96,1.27,1.78,1.43,2.46.19.79.42,1.59.73,2.35.09.22.18.43.29.64.51,1.05,1.22,1.99,2.25,2.73.2.15.42.29.65.42,1.27.71,2.96,1.14,5.23,1.14,6.6,0,9.31,4.6,10.8,7.9Z"/></svg>