<?xml version="1.0" encoding="UTF-8"?><svg id="Layer_1" xmlns="http://www.w3.org/2000/svg" viewBox="0 0 339 397"><defs><style>.cls-1{fill:#fff;}</style></defs><path class="cls-1" d="m312.65,165.27c-1.93,5.28.36,11.89-7.67,14.2s-28.7-1.98-36.73-7.59-9.83-8.7-20.7-8.81c-10.87-.11-18.91-6.38-23.5-7.37s-19.23-.66-23.82-3.63-7.46-5.61-6.6-19.48c.86-13.87-4.3-22.45-8.32-24.1s-15.21-10.57-17.79-20.8c-2.58-10.24-16.36-9.91-16.36-19.81s-2.58-17.17,6.89-30.38c9.47-13.21,13.2-21.13,10.33-29.39-.34-.99-.74-2-1.18-3.01-2.04,2.81-3.56,5.61-3.56,8.12,0,3.3-8.65-3.3-16.66,0-8.02,3.3-7.73,9.57-18.35,9.57s-11.77-4.62-18.08-4.62-10.62-14.53-14.06-14.53-10.04,6.27-14.06,6.27c-2.95,0-17.03.18-25.33-.9,0,0,0,0,0,0-3.38,20.12-19.01,26.72-19.01,30.12,0,3.63,8.32,8.91,11.19,12.22,2.87,3.3,1.43,18.82-6.89,28.39s-1.72,17.17-14.06,20.47c-4.8,1.28-8.38.82-11.33-.23h-.86c-.13,5.97-.12,16.11,1.28,17.72,2.01,2.31,23.82,25.09,23.82,34.34s-.86,13.54,1.43,16.18,4.59,9.91,4.59,13.87,6.31,11.56,11.19,10.9,12.34,8.25,12.34,12.55c0,.24-.05.46-.14.68,2.18.69,4.54,1.48,5.99,1.96,2.98.99,7.07,0,11.94-1.98,4.88-1.98,17.79-1.32,20.09-.66s2.01,4.29,4.88,7.59,17.51,10.24,29.27,14.86,31.57,20.14,35.01,25.42c3.44,5.28-1.15,17.83-8.04,30.38-6.89,12.55-12.63,7.92-14.64,10.24s-6.03,12.22-12.91,16.84c-6.07,4.08-5.23,8.66-6.33,10.14,5.52,8.16,13.62,23.54,16.66,22.54,4.02-1.32,23.82-3.96,26.42-3.87,2.61.09.84-9.67,1.41-13.63s3.73-.33,6.89,3.3c4.02,4.62,12.91,10.9,11.19,12.88-3.38,3.89-4.02,11.23-4.02,19.81s24.11,6.27,26.4,6.27,5.45-11.89,6.89-11.89,4.59,3.63,7.17,5.28,21.24-1.98,21.24,2.64,6.31,14.2,9.76,16.51c.94.63,1.56,1.79,1.94,3.29,2.22.38,5.24,0,8.1-3.29,5.45-6.27-7.46-12.55-4.59-22.78s3.08-18.8-.47-22.77c-3.55-3.97-5.27-3.51-6.42-4.9-1.15-1.39-6.03-2.38-2.58-6.34s23.82-21.13,27.84-34.34c4.02-13.21-5.17-24.43-4.3-30.05s4.88-10.9,9.47-16.18,12.34,0,12.34-3.63-.86-15.19,2.3-18.82,18.08-12.22,20.66-19.48-2.01-27.07-6.03-31.7-9.62-9.91-11.56-4.62Z"/></svg>