<?xml version="1.0" encoding="UTF-8"?><svg id="Layer_1" xmlns="http://www.w3.org/2000/svg" viewBox="0 0 275 208"><defs><style>.cls-1{fill:#fff;}</style></defs><path class="cls-1" d="m264.46,28.2c-7.46-4.29-19.23-3.63-30.99,5.61-11.77,9.24-31.85,44.57-38.45,50.52s-16.07,13.87-27.55,12.22-11.48-15.85-14.06-23.77-12.05-19.48-12.34-26.41c-.19-4.53,1.1-11.33,1.37-16.32-2.56,1.58-4.56,2.87-5.68,3.6-.8.52-1.77.65-2.62.27-.37-.16-.63-.38-.8-.69.08.93-3.22,1.24-4.89,1.24-3.87,0-8.61.33-11.77-4.29-5.71-8.36-5.31-23.94-11.62-24.6-6.31-.66-6.6,22.12-11.19,24.1-4.59,1.98-11.48-3.63-13.77-5.28s-13.77,0-20.38-1.32c-6.6-1.32-8.6-6.45-8.6-6.45,0,4.92-.71,8.52-2.59,8.76-5.17.66-14.35-9.91-20.38-9.91s-7.75,5.61-11.48,6.6c-.7.19-1.65-.04-2.73-.55-.02.55-.16,5.87.11,9.63.29,3.96,4.59,11.23,8.61,13.54s8.9,7.26,14.06,19.15,26.11,6.27,27.55,13.21c1.43,6.93-3.16,10.24-6.31,14.53s-7.46,19.48-9.47,26.74-11.19,7.59-11.48,12.22c-.29,4.62,3.3,9.24,4.23,14.03.93,4.79.36,9.41,2.08,14.37,1.72,4.95,8.62,8.85,7.9,17.63-.1,1.27-.36,2.2-.73,2.88,1.21,1.42,2.68,3.22,4.2,5.24,3.73,4.95,12.34,14.2,14.64,14.2s13.77-15.19,17.22-17.17c3.44-1.98,16.64-2.64,19.51.66s7.17,4.95,13.2,5.61,11.77-1.32,16.64,5.28c4.88,6.6,9.76,5.28,9.47,1.32s2.49-7.99,7.53-7.1c2.8.5-7-10.07-6.38-15.35s-1.15-23.11,13.49-26.74c14.64-3.63,21.81,3.96,24.39,7.59s9.18,5.94,10.04-1.32,5.74-15.85,12.05-16.51,6.39,2.64,9.36,0,6.13-16.18,8.43-16.51,13.2,15.52,15.78,15.52,2.3-7.92,1.15-12.55-.89-14.59.84-16.37c1.74-1.78,8.05.2,8.63-9.71.57-9.91-5.08-31.92,5.93-40.06,11.01-8.14,15.31-23,7.85-27.29Z"/></svg>