<?xml version="1.0" encoding="UTF-8"?><svg id="Layer_1" xmlns="http://www.w3.org/2000/svg" viewBox="0 0 153 238"><defs><style>.cls-1{fill:#fff;}</style></defs><path class="cls-1" d="m147.44,185.25c-2.3-2.64-7.75-12.55-7.75-14.86s-5.74-16.51-17.05-15.65-9.64-5.48-9.64-13.08v-30.86c-8.72-2.57-18.7-12.42-21.52-14.05-3.44-1.98-17.51-1.65-20.09-6.93s4.59-31.37,4.02-35.66-14.64-3.24-20.66-6.6-2.3-19.48,0-27.4c1.07-3.69.71-8.67.01-12.93-7.13,4.13-17.99-.75-21.23-.63-3.85.14-10.5,12.08-16.24,22.97-2.11,4-4.22,6.13-6.17,7.08,0,0,0,.01,0,.02-2.04,15.79,7.46,25.42,5.74,38.63s-10.9,8.58-10.9,24.76,4.3,25.75,18.94,39.62c14.64,13.87,7.17,12.88,12.34,23.11s30.42,20.8,35.3,23.11,7.75,7.26,10.9,15.85c3.16,8.58,9.47,7.26,14.06,9.91s9.47,19.81,16.64,22.12,8.32-10.24,11.48-17.17,11.77-8.25,17.51-10.57,6.6-18.16,4.3-20.8Z"/></svg>