<?xml version="1.0" encoding="UTF-8"?><svg id="Layer_1" xmlns="http://www.w3.org/2000/svg" viewBox="0 0 132 157"><defs><style>.cls-1{fill:#fff;}</style></defs><path class="cls-1" d="m123.06,120.44c-.29-7.26-19.51-12.55-22.1-32.36s9.18-35,9.76-44.24c.03-.51.04-1.01.03-1.52-10.07,5.42-26.48,2.14-32.17-1.78-5.74-3.96-.29-5.28-5.74-18.82-5.45-13.54-14.06-18.82-18.08-16.18s3.16,21.13-2.3,27.07c-5.45,5.94-43.05,20.14-43.05,20.14,0,0-2.58,8.91,1.43,24.43,4.02,15.52,20.38,21.79,30.71,24.1s12.91,14.2,21.52,34.34,21.52,16.18,21.52,16.18c-.29-6.27,4.88-6.27,7.46-5.94s5.45-1.98,7.17-1.98,4.34-3.61,9.57,5.84c17.32-12.32,14.53-22.02,14.25-29.28Z"/></svg>