<?xml version="1.0" encoding="UTF-8"?><svg id="Layer_1" xmlns="http://www.w3.org/2000/svg" viewBox="0 0 213 297"><defs><style>.cls-1{fill:#fff;}</style></defs><path class="cls-1" d="m204.04,221.19c5.74-6.6,5.45-12.55,3.73-19.15-1.72-6.6-3.44-15.19-9.47-22.12s-21.52-6.27-31.57-11.56c-10.04-5.28-14.06-18.82-15.78-31.04-1.72-12.22-14.35-8.58-16.36-13.21-2.01-4.62-.29-8.25-4.3-12.88s-6.6-10.57-5.74-21.13c.17-2.09.19-4.32.12-6.56-1.64.39-2.68.64-3.03-.44-.68-2.08-3.55-12.32-3.55-12.32,0,0-6.31-2.97-6.31-8.25s2.01-9.91-2.87-18.16c0,0-2.95-3.68-4.07-18.65-.2.11-.38.16-.52.16-2.3,0-10.9-9.24-14.64-14.2-1.52-2.02-2.99-3.82-4.2-5.24-2.19,4.07-8.41-.63-11.28,3.29-3.35,4.58-6.51,7.23-8.52,7.56-2.01.33-1.72,12.88-6.31,15.52s-7.5.2-10.49,4.72c-2.99,4.52-3.29,16.21-15.05,15.09-3.44-.33-7.17-10.57-11.48-14.53s-2.3-13.54-4.3-17.83c-2.01-4.29-7.46-5.28-8.32-3.63-.86,1.65-.86,9.91-1.72,12.55-.77,2.36.03,6.62-3.67,8.4-.15,3.3-.23,7.63.27,9.68.86,3.55,18.08,24.68,18.08,31.95s-3.73,19.48,1.15,25.09c4.88,5.61,23.24,14.53,28.7,25.42,1.52,3.03,3.36,6.2,5.22,9.42.88-.49,1.47-.79,1.61-.79,3.62,0,9.97-.09,10.04-5.1.07-5.01,1.75-8.89,4.28-6.26,2.53,2.63,3.79,12.35,6.42,13.01,2.63.66,6.75,2.8,8.07,2.8s8.4.82,8.4.82c0,0-10.21,6.26-9.55,12.18.66,5.93-1.7,7.53,3.62,6.91,7.08-.82,9.38-7.41,11.03-7.41s7.08,3.13,8.07,6.75c.99,3.62-4.91,8.96-4.92,8.92-.02-.03,3.94-1.02,3.94.95s-2.2,5.36-2.2,5.36c-1.09.9,6.93,7.95,7.03,11.17.11,3.23,3.4,9.81-.88,14.09-4.28,4.28-9.95,7.31-11.4,12.22,0,0,0,0,0,0-.05.08-.09.16-.14.24.58,5.14,1.55,10.28,3.65,12.74,4.54,5.31,4.54,11.25,6.54,16.53,2.01,5.28,8.61,4.95,10.04,8.25,1.43,3.3,2.01,12.88,8.9,20.8,6.89,7.92,9.47,14.2,12.05,17.17,2.58,2.97,8.32,5.94,14.06-4.95s12.39-22.84,16.24-22.97c3.85-.14,18.49,6.8,24.8-2.78,6.31-9.57,13.77-13.54,10.62-22.12s-9.76-9.91-4.02-16.51Z"/></svg>