<?xml version="1.0" encoding="UTF-8"?><svg id="Layer_1" xmlns="http://www.w3.org/2000/svg" viewBox="0 0 364 347"><defs><style>.cls-1{fill:#fff;}</style></defs><path class="cls-1" d="m343.01,235.34c-4.87-5.47-12.63-24.57-14.67-34.5-2.04-9.93-9.15-18.47-17.76-28.37-8.61-9.91-5.17-15.52-18.08-28.06-12.91-12.55-5.45-24.76-17.22-31.37s-28.41-9.57-36.73-2.64c-8.32,6.93-13.77,15.19-23.24,15.19s-20.38-4.95-22.98-9.69c-2.6-4.74-6.58-5.83-11.46-7.81s-9.18-23.75-5.45-33.68c3.73-9.93,3.73-46.55,1.72-57.78-.75-4.2-1.83-6.88-2.87-8.58-2.9,4.78-6.22,9.41-9.9,12.71-10.33,9.24-6.6,23.44-8.9,32.36-2.3,8.91-48.5,41.93-61.7,44.57-13.2,2.64-18.65,9.91-29.27,10.57-10.62.66-22.67-8.58-24.39-2.31-1.72,6.27,8.04,8.91,6.6,14.53-.94,3.66-6.63,9-10.47,14.29.42.99.81,1.97,1.15,2.94,2.87,8.25-.86,16.18-10.33,29.39-9.47,13.21-6.89,20.47-6.89,30.38s13.77,9.57,16.36,19.81c2.58,10.24,13.77,19.15,17.79,20.8s9.18,10.24,8.32,24.1c-.86,13.87,2.01,16.51,6.6,19.48s19.23,2.64,23.82,3.63,12.63,7.26,23.5,7.37c10.87.11,12.66,3.2,20.7,8.81s28.7,9.91,36.73,7.59,5.74-8.91,7.67-14.2c1.93-5.28,7.54,0,11.56,4.62,1.15,1.32,2.34,3.87,3.4,7.02.04-.44-.02-.89-.19-1.35,1.82-.17,3.94-.29,6.26-.29,7.75,0,24.39,10.24,28.98,13.21s24.11,13.54,33,16.18c8.9,2.64,18.65-4.29,21.24-4.29s22.67-19.81,30.13-20.8c4.98-.66,8.93-3.82,11.7-5.85,8.18-10.36,20.94-30.33,23.6-41.04,3.44-13.87-3.44-21.46-8.32-26.94Z"/></svg>