<?xml version="1.0" encoding="UTF-8"?><svg id="Layer_1" xmlns="http://www.w3.org/2000/svg" viewBox="0 0 139 172"><defs><style>.cls-1{fill:#fff;}</style></defs><path class="cls-1" d="m132.47,70.06c-2.58-2.97-18.37-13.54-22.1-26.41s1.43-19.15-4.88-27.4-23.53-9.24-28.98-9.24h-13.09c-.11.74-.33,1.41-.68,1.98-3.44,5.61-1.72,13.21-3.73,17.17s-4.02,6.6-7.46,13.21-14.92,6.6-19.51,8.25-8.61,8.25-8.61,13.87-6.89,10.24-10.9,12.55-1.43,6.6-2.01,17.17.57,12.22,3.73,15.85-2.58,13.87-7.75,14.53c0,0-2.3,2.31,5.74,9.91,8.04,7.59,6.31,24.76,8.9,30.05s18.65,6.93,26.4,1.65,21.52-22.12,21.52-29.39-.86-14.53,2.01-16.18,20.66-10.24,23.24-17.17,1.43-14.86,6.31-20.47c4.88-5.61,8.32-2.31,8.32-1.32s2.18,5.48,6.03,7.26,5.45,2.97,5.45-.33-.29-6.6,4.02-7.59,10.62-4.95,8.04-7.92Z"/></svg>