<?xml version="1.0" encoding="UTF-8"?><svg id="Layer_1" xmlns="http://www.w3.org/2000/svg" viewBox="0 0 242 162"><defs><style>.cls-1{fill:#fff;}</style></defs><path class="cls-1" d="m219.55,89.11c-.86-6.93,2.58-16.18,1.72-22.45-.86-6.27-6.31-6.27-8.9-12.55s2.01-23.44-6.31-28.6c-8.32-5.16-19.75-21.84-19.75-21.84h0c-2.16,2.3-5.24,1.87-6.38,3.03-1.74,1.78-1.99,11.75-.84,16.37s1.43,12.55-1.15,12.55-13.49-15.85-15.78-15.52-5.45,13.87-8.43,16.51-3.05-.66-9.36,0-11.19,9.24-12.05,16.51-7.46,4.95-10.04,1.32-9.76-11.23-24.39-7.59-12.86,21.46-13.49,26.74,9.18,15.85,6.38,15.35c-5.04-.89-7.81,3.14-7.53,7.1s-4.59,5.28-9.47-1.32c-4.88-6.6-10.62-4.62-16.64-5.28s-10.33-2.31-13.2-5.61-16.07-2.64-19.51-.66c-3.35,1.93-14.33,16.38-17.02,17.14.39,6.14,1.42,13.98,4.1,18.52,4.88,8.25,2.87,12.88,2.87,18.16s6.31,8.25,6.31,8.25c0,0,2.87,10.24,3.55,12.32s3.91-.76,9.08-.1c5.17.66,11.19-1.98,13.77-6.6s7.46-8.25,10.33-12.22,16.36-7.92,21.49-7.55c5.14.37,8.06,13.16,14.66,16.8s13.49-4.95,17.86-8.17c4.37-3.22,13.71-17.25,19.16-19.23,5.45-1.98,13.77,6.93,16.96,6.68,3.18-.25,10.88-7.01,15.76-5.03,4.88,1.98,9.32,7.85,12.34,6.27s7.17-1.32,9.18,3.63c2.01,4.95,21.52,7.92,25.63,7.66,4.11-.26,1.63-3.04,3.93-8.65s18.37-11.23,20.09-15.52-14.06-19.48-14.92-26.41Z"/></svg>