<?xml version="1.0" encoding="UTF-8"?><svg id="Layer_1" xmlns="http://www.w3.org/2000/svg" viewBox="0 0 155 153"><defs><style>.cls-1{fill:#fff;}</style></defs><path class="cls-1" d="m88.42,14.41c2.35,5.19,4.99,10.56,8.32,13.37,4.3,3.63,4.02,16.84,17.51,23.77,13.49,6.93,27.84,2.31,29.85,2.31s2.87,8.91,4.88,11.23,2.58,9.24,2.01,12.88-17.22,8.91-20.66,9.91-7.75,3.96-7.82,7.52-3.37,7-5.8,7.99-2.74,0,1.85,12.88-2.87,17.17-4.02,18.49-13.2,10.57-23.82,13.21c-10.62,2.64-21.81-4.29-26.98-6.93-5.17-2.64-19.8-7.26-22.1-8.25s-4.3-3.96-6.31-7.92-24.11-22.12-26.98-25.42c-1.1-1.27-1.57-2.82-1.72-4.26,3.33-.41,6.51-1.38,8.9-3,7.75-5.28,21.52-22.12,21.52-29.39s-.86-14.53,2.01-16.18,20.66-10.24,23.24-17.17c2.58-6.93,1.43-14.86,6.31-20.47s8.32-2.31,8.32-1.32c0,0,.74,3.87,4.1,6.06s5.79,2.99,6.58,2.92.79-2.22.79-2.22Z"/></svg>