<?xml version="1.0" encoding="UTF-8"?><svg id="Layer_1" xmlns="http://www.w3.org/2000/svg" viewBox="0 0 527 377"><defs><style>.cls-1{fill:#fff;}</style></defs><path class="cls-1" d="m503.02,166.45c-9.47,4.95-13.87,30.48-24.39,39.95-10.52,9.47-17.51,18.82-32.43,28.39s-74.9,10.57-82.93,7.26-3.44-11.56-3.44-18.82-4.3-6.93-6.89-9.91c-2.58-2.97-2.01-13.54-14.35-22.45-12.34-8.91-51.65-2.31-60.84-3.96-9.18-1.65-10.9-8.25-6.89-15.52,4.02-7.26,16.36-6.27,13.33-27.59s-27.01-31.07-30.26-44.72-14.92-17.83-20.66-21.13c-5.74-3.3-7.17-21.46-12.57-27.79s-2.92-16.45-8.37-22.73c-5.45-6.27-14.9-18.49-14.9-18.49h0c-8.87,2.31-5.77-3.3-18.39,0-12.63,3.3-6.03,28.06-18.7,31.37-12.67,3.3-7.7-5.61-20.33,0s-12.63,11.23-14.78,12.37c-2.15,1.15-46.92,7.77-57.82,12.39s4.02,30.38-6.89,28.06c-7.85-1.66-26.53,8.98-36.4,15.08.11-.07.21-.13.32-.2-.27,4.99-1.55,11.78-1.37,16.32.29,6.93,9.76,18.49,12.34,26.41s2.58,22.12,14.06,23.77,20.95-6.27,27.55-12.22,26.69-41.27,38.45-50.52c11.77-9.24,23.53-9.91,30.99-5.61,7.46,4.29,3.16,19.15-7.85,27.29-11.01,8.14-5.35,30.16-5.93,40.06-.2,3.46-1.1,5.47-2.27,6.7l.31-.02s11.43,16.68,19.75,21.84c8.32,5.16,3.73,22.33,6.31,28.6s8.04,6.27,8.9,12.55c.86,6.27-2.58,15.52-1.72,22.45.86,6.93,16.64,22.12,14.92,26.41s-17.79,9.91-20.09,15.52.18,8.39-3.93,8.65c-.5.03-1.23.02-2.13-.05.24,1.72.31,3.01.18,3.77-1.72,9.91,1.72,8.91,11.77,10.24,10.04,1.32,19.8-6.6,21.12-6.6s10.16,0,17.05-1.32,8.04-10.57,10.9-13.87,14.92-3.3,23.82,12.53c8.9,15.84,0,32.04,2.58,35.01s27.26,2.64,31.28,2.64,10.62-6.27,14.06-6.27,7.75,14.53,14.06,14.53,7.46,4.62,18.08,4.62,10.33-6.27,18.35-9.57c8.02-3.3,16.66,3.3,16.66,0,0-7.26,12.63-16.84,14.06-22.45s-8.32-8.25-6.6-14.53c1.72-6.27,13.77,2.97,24.39,2.31,10.62-.66,16.07-7.92,29.27-10.57,13.2-2.64,59.4-35.66,61.7-44.57,2.3-8.91-1.43-23.11,8.9-32.36,10.33-9.24,17.79-29.06,21.24-33.02s7.75-23.11,9.76-25.42,4.59-9.57,5.45-13.87-8.32-5.94-17.79-.99Z"/></svg>