<?xml version="1.0" encoding="UTF-8"?>
<svg id="Capa_2" data-name="Capa 2" xmlns="http://www.w3.org/2000/svg" viewBox="0 0 204 252">
  <defs>
    <style>
      .cls-1 {
        stroke: #000;
        stroke-miterlimit: 10;
        stroke-width: 4px;
      }
    </style>
  </defs>
  <path class="cls-1" d="m115.79,153.59c0-8.26-7.16-14.85-15.61-13.91-6.36.71-11.53,5.84-12.28,12.19s2.67,11.85,7.85,14.34c1.22.58,1.87,1.93,1.61,3.25l-5.07,26.13h19l-5.07-26.13c-.26-1.34.42-2.68,1.65-3.27,4.68-2.26,7.92-7.05,7.92-12.6Z"/>
  <path class="cls-1" d="m197.95,94.22c-.11-1.26-.31-2.6-.84-3.73-1.11-2.33-3.34-2.87-5.68-2.89-3.48-.04-6.97-.03-10.45-.02h0s-15,0-15,0c0-6.93.08-13.86-.02-20.79-.18-12.08-3.41-23.36-10.21-33.31-14.86-21.73-35.6-31.27-61.81-28.67-10.9,1.08-20.77,5.06-29.5,11.59-17.27,12.9-26.14,30.22-26.43,51.82-.09,6.45-.02,12.91-.02,19.36h-11c-.45,0-.8,0-1.15,0-4.42,0-8.83-.04-13.25.01-4.33.05-6.52,2.28-6.6,6.59,0,.42,0,.83,0,1.25,0,40.75,0,81.5.01,122.24,0,3.29.05,6.58.26,9.86.47,7.19,3.9,12.68,9.87,16.63,4.25,2.81,9.06,3.41,13.98,3.41,46.17.01,92.33.01,138.49,0,3.16,0,6.33-.1,9.49-.25,8.13-.39,15.71-6.14,18.43-13.79,1.25-3.53,1.45-7.17,1.45-10.83.02-41.16.01-82.33.01-123.49,0-1.67.1-3.34-.03-5Zm-149.28-24.21c-.02-4.68.47-9.3,1.54-13.87,6.45-27.5,33.61-45.09,60.34-40.34,17.71,3.15,30.64,12.9,39,28.75,4.25,8.07,5.73,16.8,5.75,25.82.02,5.74-.03,11.47-.05,17.21H48.77c-.03-5.86-.07-11.72-.1-17.58Zm137.09,161.75c-2,3.2-4.92,4.89-8.67,5.09-1.45.08-2.92.04-4.37.04-47.78,0-95.57,0-143.35,0-2.17,0-4.33.03-6.36-.93-3.8-1.79-5.88-4.78-6.25-8.94-.09-1.03-.08-2.08-.08-3.12,0-40.24,0-80.49,0-120.73,0-1.57,0-3.15,0-4.84h170.55c.02.49.06.92.06,1.36,0,26,.01,51.99.01,77.99,0,15.75,0,31.49.01,47.24,0,2.41-.22,4.75-1.53,6.84Z"/>
</svg>