<?xml version="1.0" encoding="UTF-8"?><svg id="Capa_2" xmlns="http://www.w3.org/2000/svg" viewBox="0 0 98 98"><defs><style>.cls-1{fill:#fff;}</style></defs><path class="cls-1" d="m35.72,78.45c-5.12,0-10.16.02-15.2,0-4.28-.02-7.76-2.56-8.94-6.48-1.58-5.2,1.97-10.75,7.37-11.48,2.52-.34,2.61.03,2.6-2.94-.02-4.87-.16-9.75.04-14.62.44-10.96,5.9-18.61,15.8-23.15.87-.4,1.24-.72,1.19-1.78-.27-5.15,3.72-9.3,8.79-9.28,5.06.02,9.01,4.23,8.7,9.37-.06.96.24,1.32,1.09,1.72,9.94,4.72,15.38,12.56,15.88,23.6.22,4.82.05,9.66.05,14.49,0,2.26,0,2.23,2.2,2.55,3.96.57,6.63,2.73,7.81,6.58,1.48,4.79-1.8,10.2-6.75,11.14-1.05.2-2.15.26-3.22.27-4.7.03-9.41.01-14.21.01-.62,3.58-2.31,6.48-5.39,8.46-2.14,1.37-4.49,1.96-7.01,1.79-4.69-.32-9.64-3.63-10.79-10.25Zm11.51-5.23c8.91,0,17.83,0,26.74,0,2.51,0,4.23-1.49,4.33-3.7.09-2.13-1.68-3.86-4.09-4.01-3.85-.23-6.21-2.68-6.24-6.52-.02-3.25.05-6.5-.02-9.75-.06-3.03.06-6.11-.45-9.08-1.85-10.92-12.83-20-25.74-16.46-9.05,2.48-15,10.45-15.09,20.01-.05,4.96,0,9.91-.02,14.87,0,.78-.02,1.6-.23,2.35-.76,2.78-2.93,4.41-5.98,4.58-3.1.18-4.94,2.8-3.76,5.41.75,1.66,2.12,2.32,3.93,2.31,8.87-.03,17.74-.01,26.62-.01Zm-6.09,5.3c.51,3.04,3.21,5.09,6.51,5,2.86-.07,5.51-2.35,5.8-5h-12.31Zm9.66-60.65c.2-1.47-.36-2.69-1.59-3.43-1.25-.75-2.92-.67-4.08.2-1.11.83-1.57,2.07-1.24,3.23h6.92Z"/></svg>