<?xml version="1.0" encoding="UTF-8"?>
<svg id="Layer_1" data-name="Layer 1" xmlns="http://www.w3.org/2000/svg" viewBox="0 0 57 79">
  <defs>
    <style>
      .cls-1 {
        fill: #fff;
      }
    </style>
  </defs>
  <path class="cls-1" d="m32.47,76.19c3.01-5.07,6.05-10.14,9.08-15.2l.11-.19c3.57-5.96,7.27-12.12,10.86-18.2,3.69-6.25,4.94-12.61,3.7-18.91C53.84,11.47,44.48,0,28.73,0c-1.37,0-2.78.09-4.24.27C10.73,1.96.33,13.95.3,28.16c-.01,5.19,1.34,10.05,4.03,14.44,1.89,3.08,3.79,6.16,5.7,9.23l1.17,1.9c1.16,1.88,2.33,3.75,3.5,5.62l.76,1.22c3.02,4.86,6.45,10.36,9.68,15.69,1.37,2.26,2.73,2.73,3.64,2.73,1.33,0,2.61-.98,3.69-2.81Zm-3.32-8.07l-.44.64-1.67-2.67c-1.11-1.78-2.2-3.52-3.28-5.27l-4.74-7.67c-2.8-4.54-5.61-9.08-8.43-13.61-3.95-6.35-4.47-13.77-1.41-20.38,3.05-6.6,9.03-11.01,16.41-12.11,5.34-.79,11.08.75,15.59,4.17,4.58,3.48,7.59,8.6,8.27,14.04.62,4.99-.34,9.54-2.94,13.91-4.12,6.91-8.26,13.82-12.4,20.72l-4.75,7.92c-.06.1-.13.2-.2.31Z"/>
  <path class="cls-1" d="m43.13,28.18c.03-3.87-1.48-7.54-4.26-10.35-2.8-2.83-6.51-4.39-10.44-4.4h-.04c-8.03,0-14.61,6.56-14.66,14.62-.03,3.92,1.46,7.6,4.18,10.35,2.76,2.78,6.48,4.32,10.49,4.33,8.21,0,14.65-6.39,14.71-14.54Zm-9.41,5.58c-1.43,1.35-3.3,2.09-5.27,2.09-.08,0-.15,0-.23,0-4.32-.14-7.65-3.58-7.57-7.84.04-2.09.88-4.03,2.38-5.47,1.46-1.4,3.4-2.18,5.45-2.18h.18c2.01.05,3.91.9,5.34,2.4,1.44,1.51,2.21,3.47,2.16,5.52-.06,2.1-.92,4.05-2.44,5.48Z"/>
</svg>