<?xml version="1.0" encoding="UTF-8"?><svg id="Capa_2" xmlns="http://www.w3.org/2000/svg" viewBox="0 0 98 98"><defs><style>.cls-1{fill:#fff;}</style></defs><path class="cls-1" d="m47.33,48.08c-10.76.02-19.59-8.65-19.48-19.33.12-11.36,9.01-19.16,18.69-19.39,11.08-.26,20.06,8.34,20.11,19.31.04,10.64-8.7,19.4-19.32,19.42Zm-13.82-19.31c0,7.53,6.16,13.65,13.76,13.67,7.54.02,13.72-6.22,13.72-13.86,0-7.53-6.22-13.59-13.96-13.59-7.47,0-13.53,6.17-13.53,13.78Z"/><path class="cls-1" d="m69.99,79.71c-.29,0-.5,0-.7,0-2.3,0-4.59,0-6.89,0-1.21,0-2.05-.76-2.05-1.84,0-1.08.84-1.84,2.05-1.84,2.3,0,4.59,0,6.89,0,.21,0,.41,0,.7,0,0-.25,0-.46,0-.66,0-2.3,0-4.59,0-6.89,0-1.26.75-2.1,1.85-2.1,1.1,0,1.82.85,1.83,2.12,0,2.28,0,4.55,0,6.83,0,.21,0,.41,0,.69.26,0,.47,0,.67,0,2.37,0,4.74,0,7.11,0,.94,0,1.71.68,1.84,1.57.13.9-.42,1.75-1.33,2.02-.23.07-.49.08-.73.08-2.28,0-4.55,0-6.83,0-.21,0-.42,0-.73,0,0,.25,0,.47,0,.69,0,2.37,0,4.74,0,7.11,0,.94-.7,1.71-1.59,1.83-.9.12-1.75-.44-2.01-1.35-.07-.23-.07-.49-.07-.74,0-2.28,0-4.55,0-6.83,0-.21,0-.42,0-.72Z"/><path class="cls-1" d="m54.93,80.54c-.6.13-1.21.26-1.82.36-1.97.32-3.97.42-5.96.62-8.33-.1-15.58-2.97-21.97-8.19-1.16-.95-1.68-2.2-1.57-3.69.62-8.11,6.31-13.45,14.49-13.48,6.54-.02,13.09.03,19.63.15,3.55.06,6.75,1.59,9.11,3.98h7.05c-3.01-5.35-8.52-9.03-14.92-9.49-1.12-.08-2.24-.12-3.36-.13h0s-14.61-.27-17.54-.08c0,0,0,0,0,0-1.38.03-2.76.08-4.09.35-8.88,1.83-14.59,7.97-15.86,16.96-.55,3.92.42,7.36,3.63,9.91,8.54,6.78,18.15,10.1,29.14,9.04,1.38-.13,2.72-.35,4.05-.6v-5.71Z"/></svg>