<?xml version="1.0" encoding="UTF-8"?>
<svg id="Capa_2" data-name="Capa 2" xmlns="http://www.w3.org/2000/svg" viewBox="0 0 70 70">
  <defs>
    <style>
      .cls-1 {
        fill: #ffff;
      }
    </style>
  </defs>
  <path class="cls-1" d="m29.38,40.6c-.88,0-1.51,0-2.14,0-7,0-13.99,0-20.99,0C2.56,40.59,0,38.28,0,34.99c0-3.29,2.56-5.6,6.25-5.6,7-.01,13.99,0,20.99,0,.63,0,1.26,0,2.14,0,0-.77,0-1.39,0-2.01,0-7,0-13.99,0-20.99C29.39,2.56,31.68-.02,35.03,0c3.34.02,5.56,2.59,5.57,6.47,0,6.94,0,13.88,0,20.81,0,.63,0,1.26,0,2.1.81,0,1.43,0,2.05,0,7.23,0,14.46-.02,21.69.02,2.88.01,5.22,2.08,5.61,4.8.39,2.74-1.29,5.33-4.06,6.15-.71.21-1.49.24-2.24.24-6.94.02-13.88.01-20.81.01-.64,0-1.28,0-2.23,0,0,.76,0,1.43,0,2.09,0,7.23.02,14.46-.02,21.69-.02,2.86-2.14,5.21-4.85,5.57-2.73.37-5.34-1.35-6.12-4.11-.2-.71-.22-1.49-.22-2.24-.02-6.94,0-13.88,0-20.81,0-.63,0-1.27,0-2.19Z"/>
</svg>