<?xml version="1.0" encoding="UTF-8"?>
<svg id="Layer_1" data-name="Layer 1" xmlns="http://www.w3.org/2000/svg" viewBox="0 0 79 79">
  <defs>
    <style>
      .cls-1 {
        fill: #fff;
      }
    </style>
  </defs>
  <path class="cls-1" d="m77,67.18c-1.09-1.16-2.22-2.3-3.28-3.36-5.43-5.43-10.86-10.86-16.29-16.28l.21-.38c.43-.77.87-1.53,1.27-2.32,1.85-3.61,2.9-7.54,3.2-12.02.31-4.52-.48-9.09-2.34-13.58-1.53-3.68-3.7-6.99-6.46-9.83-1.91-1.97-4.04-3.64-6.31-4.96-2.53-1.46-5.18-2.59-7.88-3.34C34.99-.04,30.78-.3,26.61.35c-3.9.61-7.63,1.92-11.08,3.9-3.29,1.89-6.2,4.38-8.65,7.41-1.63,2.02-3,4.29-4.1,6.76C.66,23.22-.25,28.13.08,32.99c.19,2.81.8,5.68,1.8,8.54.86,2.44,2.06,4.8,3.69,7.23,1.44,2.14,3.22,4.12,5.47,6.04,1.96,1.68,4.22,3.11,6.9,4.37,1.48.7,3.1,1.4,4.85,1.83l.66.16c1.19.29,2.43.59,3.68.77,2.38.34,4.88.35,7.42.04,3.92-.49,7.55-1.6,10.8-3.31.66-.34,1.3-.71,1.95-1.07l.24-.14,3.92,3.92c4.3,4.3,8.6,8.61,12.91,12.9l.28.28c.92.92,1.88,1.88,2.89,2.76,1.29,1.12,2.89,1.7,4.49,1.7,1.3,0,2.61-.37,3.77-1.13,1.74-1.13,2.88-2.94,3.13-4.96.25-2.06-.46-4.15-1.93-5.73Zm-27.27-17.8c-4.91,5-11.42,7.78-18.34,7.83-.06,0-.13,0-.19,0-14.27,0-26.02-11.52-26.22-25.78-.1-7,2.56-13.62,7.48-18.65,4.9-5,11.46-7.78,18.48-7.83.06,0,.12,0,.18,0,6.93,0,13.46,2.69,18.39,7.6,4.96,4.93,7.69,11.46,7.7,18.41h0c.08,6.88-2.58,13.42-7.48,18.41Zm4.69,7.96c-.66-.66-1.32-1.33-1.98-1.99l-.9-.9,2.92-2.92.57.57c.77.77,1.54,1.54,2.32,2.31-.98.97-1.95,1.94-2.92,2.93Zm18.53,16.52c-.71.39-1.64.29-2.22-.25-.87-.82-1.71-1.66-2.56-2.51l-10.18-10.17,2.94-2.92,12.12,12.16c.54.54.9,1,.98,1.57.12.88-.29,1.69-1.08,2.13Z"/>
  <path class="cls-1" d="m29.06,11.88c-10.98.91-18.98,10.45-18.03,21.29.98,11.14,10.42,18.34,20.82,18.06,4.95-.29,9.71-2.38,13.46-6.56,3.75-4.19,5.48-9.15,5-14.74-.93-10.79-10.23-18.95-21.25-18.04Zm1.64,36.91c-9.81.05-17.51-8.06-17.31-17.62.2-9.44,7.96-17,17.37-16.92,10.02.08,17.35,8.38,17.19,17.54-.16,9.4-7.87,17.06-17.25,17Z"/>
</svg>