<?xml version="1.0" encoding="UTF-8"?>
<svg id="Capa_1" data-name="Capa 1" xmlns="http://www.w3.org/2000/svg" viewBox="0 0 81 81">
  <defs>
    <style>
      .cls-1 {
        fill: #fff;
      }
    </style>
  </defs>
  <path class="cls-1" d="m49.74,40.45l28.62-28.62c2.34-2.34,2.34-6.13,0-8.46l-.73-.73c-2.34-2.34-6.13-2.34-8.46,0l-28.62,28.62L11.93,2.64C9.59.3,5.8.3,3.46,2.64l-.73.73C.4,5.7.4,9.49,2.73,11.83l28.62,28.62L2.73,69.07c-2.34,2.34-2.34,6.13,0,8.46l.73.73c2.34,2.34,6.13,2.34,8.46,0l28.62-28.62,28.62,28.62c2.34,2.34,6.13,2.34,8.46,0l.73-.73c2.34-2.34,2.34-6.13,0-8.46l-28.62-28.62Z"/>
</svg>