<?xml version="1.0" encoding="UTF-8"?>
<svg id="Layer_1" data-name="Layer 1" xmlns="http://www.w3.org/2000/svg" viewBox="0 0 69.5 79">
  <defs>
    <style>
      .cls-1 {
        fill: #fff;
      }
    </style>
  </defs>
  <path class="cls-1" d="m69.39,21.21c0-.78-.33-1.67-.84-2.25-5.28-6.11-10.54-12.14-15.64-17.91-.51-.58-1.46-1.01-2.24-1.02C42.12,0,33.08-.01,23.02.02c-1.19,0-2.24.15-3.11.45-4.37,1.47-6.97,4.57-7.72,9.24h0c-.56,0-1.12-.01-1.67,0C4.48,9.92.1,14.43.09,20.42c-.02,15.93-.02,31.87,0,47.8,0,5.92,4.83,10.75,10.75,10.76,5.66.01,11.32.02,16.98.02,6.25,0,12.5,0,18.75-.01,4.54,0,8.61-2.89,10.13-7.18.25-.71.41-1.44.56-2.15.02-.11.05-.22.07-.32h1.01c6.31-.02,11.07-4.77,11.07-11.06,0-12.35.01-24.71-.02-37.06Zm-16.88-13.11l9.38,11.2c-.14,0-.29,0-.43,0-1.81.03-3.53.05-5.22-.09-.42-.03-1.1-.51-1.66-1.16-1.34-1.56-2.03-3.34-2.06-5.3-.03-1.51-.02-3.02-.01-4.66Zm-5.84,64.34c-11.76.03-23.82.03-35.85,0-2.42,0-4.18-1.78-4.18-4.23-.02-15.93-.02-31.87,0-47.8,0-2.34,1.42-3.88,3.78-4.12.28-.03.56-.04.85-.04.25,0,.51,0,.79.01.04,0,.07,0,.11,0v.53c0,3.95,0,7.89.02,11.84.02,9.61.04,19.55-.07,29.31-.03,3.02,1.2,6,3.39,8.16,2.19,2.17,5.08,3.34,8.06,3.26,6.22-.13,12.56-.1,18.68-.07,2.66.01,5.32.03,7.98.03h.37c-.52,1.91-1.99,3.11-3.93,3.11Zm11.49-9.65c-11.59,0-23.18,0-34.77,0-3.02,0-4.68-1.67-4.68-4.71,0-15.61,0-31.23,0-46.84,0-3.04,1.66-4.71,4.68-4.71,3.17,0,6.34,0,9.51,0,2.12,0,4.24,0,6.35,0h6.73v1.96c0,2.12,0,4.2,0,6.27,0,6.42,4.69,11.08,11.12,11.1,1.51,0,3.02,0,4.56,0h1.21c0,.14.01.27.01.41,0,10.58,0,21.17,0,31.75,0,3.13-1.64,4.78-4.73,4.78Z"/>
  <path class="cls-1" d="m51.19,33.85c-6.95-.01-13.9-.01-20.86,0-1.14,0-2.13.37-2.79,1.05-.59.59-.89,1.38-.88,2.26.02,1.95,1.49,3.21,3.73,3.21,1.41,0,2.82,0,4.23,0,1.02,0,2.05,0,3.07,0h3.07s3.11,0,3.11,0c2.42,0,4.84,0,7.26,0,1.25,0,2.26-.37,2.94-1.05.57-.58.86-1.35.85-2.24-.02-1.93-1.52-3.23-3.73-3.24Z"/>
  <path class="cls-1" d="m51.58,45.93c-7.38-.03-14.73-.02-21.58,0-1.43,0-2.51.71-3.06,2-.44,1.03-.36,2.12.22,3,.62.95,1.7,1.49,2.97,1.51,1.45.01,2.91.02,4.36.02,1.04,0,2.09,0,3.13,0h3.13s3.09,0,3.09,0c2.55,0,5.1,0,7.64,0,2-.01,3.45-1.38,3.45-3.26,0-1.84-1.44-3.24-3.34-3.25Z"/>
</svg>