<?xml version="1.0" encoding="UTF-8"?>
<svg id="Layer_1" data-name="Layer 1" xmlns="http://www.w3.org/2000/svg" viewBox="0 0 62 79">
  <defs>
    <style>
      .cls-1 {
        fill: #fff;
      }
    </style>
  </defs>
  <path class="cls-1" d="m62.06,30.93c0-7.3,0-14.61,0-21.91,0-4.29-2.56-7.64-6.66-8.74-.82-.22-1.68-.25-2.43-.25-4.37,0-8.75,0-13.12,0-6.61,0-13.23,0-19.85-.02h-.04c-2.97,0-5.33,1.11-7.22,3.38-3.57,4.29-7.13,8.58-10.69,12.87C.63,17.97-.07,19.94-.06,22.29c0,8.47,0,16.93,0,25.4,0,7.37,0,14.75,0,22.12,0,5.49,3.68,9.18,9.16,9.18,7.24,0,14.47.01,21.71.01s14.72,0,22.08-.01c5.39,0,9.15-3.78,9.16-9.18,0-7.16,0-14.32,0-21.48v-8.79s0-8.61,0-8.61ZM16.59,9.09c0,.32,0,.63,0,.95.01,1.5.03,3.05-.03,4.57-.03.87-.51,1.79-1.5,1.91-1.24.14-2.52.11-3.88.08-.26,0-.53-.01-.8-.02l6.21-7.49Zm38.89,60.33c0,2.24-.81,3.03-3.1,3.03-14.25,0-28.5,0-42.75,0-2.35,0-3.11-.76-3.11-3.14V23.28c.66,0,1.31-.01,1.95-.02,1.77-.03,3.43-.05,5.11.05,2.62.16,5.18-.79,7.01-2.62,1.82-1.82,2.77-4.38,2.6-7-.11-1.7-.08-3.39-.05-5.18.01-.64.02-1.3.03-1.95h8.45s20.87,0,20.87,0c2.19,0,3.01.81,3.01,2.98,0,19.96,0,39.92,0,59.88Z"/>
  <path class="cls-1" d="m42.75,41.89c-.79.22-1.48.77-1.92,1.19-1.44,1.37-2.85,2.78-4.34,4.26l-.84.83v-4.55c0-4.94,0-9.87-.02-14.81,0-.84-.14-1.54-.41-2.09-.64-1.3-2.2-1.95-3.68-1.56-1.5.4-2.4,1.63-2.4,3.29,0,4.86,0,9.72,0,14.58v5.1c-.82-.67-1.51-1.38-2.19-2.07l-.71-.73c-.83-.85-1.69-1.73-2.57-2.57-1.37-1.29-3.37-1.33-4.67-.09-.63.6-1,1.46-1.01,2.34-.01.88.32,1.71.93,2.34,3.65,3.72,7.41,7.49,11.18,11.21.68.68,1.46,1.02,2.26,1.02s1.54-.31,2.27-.92c.06-.05.12-.11.22-.21l3.07-3.07c2.61-2.62,5.23-5.23,7.83-7.86,1.13-1.14,1.39-2.72.67-4.03-.75-1.38-2.18-2.01-3.65-1.6Z"/>
</svg>