<?xml version="1.0" encoding="UTF-8"?>
<svg id="Layer_1" data-name="Layer 1" xmlns="http://www.w3.org/2000/svg" viewBox="0 0 78 79">
  <defs>
    <style>
      .cls-1 {
        fill: #fff;
      }
    </style>
  </defs>
  <path class="cls-1" d="m71.32.87c-4.1-1.74-8.67-.81-11.93,2.44-15.34,15.31-30.66,30.64-45.97,45.98-.63.63-1.1,1.43-1.31,2.2-.66,2.48-1.29,4.97-1.92,7.46-.59,2.33-1.19,4.67-1.8,6.99-.37,1.4-.1,2.57.82,3.48.73.72,1.54.92,2.22.92.63,0,1.16-.17,1.43-.25l.87-.28c3.35-1.07,6.82-2.17,10.26-3.13,2.49-.7,4.51-1.9,6.35-3.79,4.61-4.73,9.37-9.47,13.98-14.05,1.81-1.8,3.62-3.61,5.43-5.42l7.55-7.55c5.73-5.73,11.46-11.46,17.19-17.19,2.15-2.14,3.33-4.69,3.4-7.37v-.02c.02-4.69-2.5-8.68-6.57-10.41Zm-7.44,19.17l-2.67,2.67c-12.16,12.16-24.31,24.32-36.48,36.46-.31.31-.79.59-1.27.75-2.08.68-4.16,1.33-6.34,2l-.98.31c.04-.13.07-.26.11-.4.37-1.35.72-2.63.92-3.96.45-3.13,2.13-5.34,4.51-7.68,8.94-8.82,17.97-17.86,26.69-26.6,3.17-3.18,6.34-6.35,9.52-9.53.07-.07.14-.14.21-.21l5.97,6c-.06.06-.12.13-.18.19Zm6.48-6.53c-.43.49-.91.97-1.38,1.43-.01,0-.02.02-.03.03l-5.95-6.02c.07-.08.15-.16.23-.23.86-.89,1.67-1.74,2.9-2.01,1.82-.4,3.67.35,4.61,1.88.97,1.59.82,3.57-.37,4.94Z"/>
  <path class="cls-1" d="m52.46,72.46c-16.22,0-32.43,0-48.65,0-.07,0-.14,0-.22-.01-.35-.03-.82-.07-1.23.23-.13.09-.26.18-.39.28-.67.46-1.44.98-1.73,1.8-.33.92-.02,2.35.69,3.12.73.79,2,1.07,2.87,1.08,4.57.03,9.19.04,13.75.04,1.76,0,3.51,0,5.24,0h5.28s14.82,0,14.82,0c3.27,0,6.54,0,9.81,0,1.13,0,2.07-.36,2.71-1.03.59-.61.88-1.44.84-2.38-.08-1.95-1.5-3.11-3.79-3.11Z"/>
</svg>