<?xml version="1.0" encoding="UTF-8"?>
<svg id="Layer_1" data-name="Layer 1" xmlns="http://www.w3.org/2000/svg" viewBox="0 0 92.5 79">
  <defs>
    <style>
      .cls-1 {
        fill: #fff;
      }
    </style>
  </defs>
  <path class="cls-1" d="m48.06,40.25c3.44-3.53,6.88-7.06,10.35-10.57,5.09-5.16,10.2-10.3,15.31-15.44.99-.99,1.41-2.06,1.31-3.26-.02-.24-.02-.48-.01-.72v-2.42c.01-1.59.01-3.17,0-4.76-.03-2.02-1.11-3.09-3.13-3.09H3.28c-.2,0-.49,0-.75.06C1.21.36.38,1.47.37,2.97c0,.83,0,1.66,0,2.49,0,1.74.02,3.53-.03,5.3-.03,1.44.44,2.6,1.5,3.65,1.81,1.79,3.59,3.61,5.37,5.43.84.86,1.68,1.72,2.53,2.58,5.83,5.92,11.67,11.84,17.51,17.75.12.12.16.22.16.41,0,11.77,0,23.54,0,35.3,0,.32.02.63.07.92.12.73.54,1.38,1.16,1.78.42.27.91.41,1.39.41.22,0,.43-.03.64-.08.39-.1.81-.27,1.29-.5,2.21-1.08,4.43-2.16,6.63-3.26,2.03-1.01,4.05-2.03,6.07-3.05l1.52-.77c1.17-.59,1.77-1.59,1.77-2.98-.01-6.27,0-12.53,0-18.8v-6.27s0-.9,0-.9c0-.61-.01-1.22,0-1.83,0-.13.07-.27.11-.31ZM6.31,8.63c-.22,0-.45,0-.58-.01-.01-.13-.01-.36-.01-.58v-2.69s62.93,0,62.93,0h.42c.19,0,.38,0,.58,0,0,1.07,0,2.14,0,3.27-.32,0-.64,0-.96,0H6.31Zm37.65,28.1c-.58.59-1.24,1.26-1.37,2.28-.03.26-.04.52-.04.77,0,9.08,0,18.16,0,27.24q0,.18-.16.26c-2.43,1.18-4.86,2.37-7.28,3.57l-2.31,1.13v-31.54s-.01-.22-.01-.22c0-.12,0-.25,0-.37.07-1.08-.31-2.01-1.15-2.86-2.36-2.36-4.7-4.75-7.04-7.13l-15.52-15.82h57.2l-10.29,10.46c-3.99,4.06-7.99,8.13-12.03,12.23Z"/>
  <path class="cls-1" d="m87.01,37.15c-3.53-3.8-8.29-5.97-13.4-6.11-5.14-.14-10.04,1.74-13.81,5.3-3.73,3.53-5.95,8.37-6.08,13.27-.14,5.32,1.85,10.35,5.6,14.18,3.63,3.7,8.38,5.73,13.41,5.73.05,0,.1,0,.15,0,10.49-.06,18.77-8.01,19.25-18.48.23-5.14-1.58-10.07-5.12-13.87Zm-12.51,26.63c-3.97.35-7.77-.94-10.67-3.63-2.86-2.66-4.47-6.4-4.41-10.26h0c-.03-6.33,4.58-13.19,13.2-13.45.15,0,.3,0,.44,0,3.56,0,6.89,1.31,9.43,3.72,2.62,2.5,4.17,6.01,4.23,9.65.14,7.58-4.89,13.33-12.23,13.98Z"/>
  <path class="cls-1" d="m80.5,46.14c.2-.2.43-.44.61-.72.68-1.05.42-2.49-.58-3.27-.95-.74-2.27-.61-3.15.29l-4.14,4.27s0,0,0,0c0,0-.01-.01-.02-.02l-.89-.9c-1.12-1.13-2.23-2.26-3.36-3.38-.95-.95-2.32-1-3.26-.13-.98.9-1.07,2.35-.22,3.37.17.2.35.39.54.57l3.8,3.81c-1,.98-1.99,1.97-2.98,2.96l-.83.82c-.21.21-.42.41-.6.64-.6.78-.69,1.67-.26,2.53.47.92,1.22,1.38,2.2,1.39.77,0,1.32-.43,1.75-.85,1.09-1.06,2.19-2.11,3.29-3.16l.92-.88c.26.24.55.5.82.78.46.47.92.94,1.37,1.41.68.7,1.36,1.4,2.05,2.08.43.42.97.64,1.52.64.36,0,.72-.09,1.07-.27.89-.47,1.39-1.4,1.29-2.38-.08-.8-.53-1.34-.92-1.73l-1.17-1.17c-.94-.94-1.88-1.88-2.83-2.81,1.12-1.08,2.23-2.17,3.33-3.27l.62-.62Z"/>
</svg>