<?xml version="1.0" encoding="UTF-8"?>
<svg id="Layer_1" data-name="Layer 1" xmlns="http://www.w3.org/2000/svg" viewBox="0 0 64.5 79">
  <defs>
    <style>
      .cls-1 {
        fill: #fff;
      }
    </style>
  </defs>
  <path class="cls-1" d="m61.69,11.29c-1.4-1.21-3.15-1.79-5.34-1.79h-2.7c-1.84,0-3.68,0-5.57,0,0-.77-.03-1.55-.07-2.32-.17-3.02-2.24-5.72-5.14-6.71-1.09-.37-2.17-.45-3.47-.46C35.14,0,30.87,0,26.61,0c-.99,0-2.01.03-3.03.08-3.58.18-6.68,3.11-7.05,6.67-.07.72-.11,1.44-.14,2.18,0,.18-.02.36-.02.55h-8.21c-1.67.01-3.04.34-4.2,1.02C1.52,11.92.19,14.12.13,16.87c-.08,3.2,1.88,5.99,4.98,7.11.11.04.15.07.15.07,0,0,.02.05.02.16-.01,14.66-.01,29.31,0,43.97,0,.78.08,1.64.23,2.61.75,4.69,4.91,8.21,9.68,8.21h.03c7.19-.02,14.39-.02,21.58-.02,4.13,0,8.25,0,12.38,0,1.84,0,3.48-.41,4.89-1.21,2.29-1.31,3.83-3.17,4.58-5.55.43-1.37.63-2.87.63-4.73,0-9.68,0-19.36,0-29.04v-12.95c0-.42,0-.85-.03-1.3,0-.06,0-.11,0-.16.04-.02.1-.04.17-.06,2.7-1.02,4.38-3.01,4.85-5.76.46-2.69-.42-5.09-2.56-6.93ZM24.15,4.68c.5,0,1,0,1.5,0,.39,0,.78,0,1.17,0h13.35c1.99,0,3.23,1.24,3.25,3.23,0,.45,0,.91,0,1.38v.21h-5.64c-5.55,0-11.1,0-16.72,0,0-.3,0-.6,0-.9,0-.28,0-.55,0-.83.03-1.79,1.3-3.06,3.1-3.09Zm30.44,63.69c0,1.92-.5,3.34-1.58,4.46-.95.98-2.09,1.48-3.39,1.48h-29.69c-.5,0-1,0-1.5,0-1.13,0-2.26-.02-3.39.02-2.2.04-4.17-1.45-4.81-3.68-.18-.64-.28-1.32-.28-1.99-.01-12.39-.01-24.79-.01-37.19v-7.09h44.55s.11,0,.11,0c0,3.76-.01,7.53-.01,11.29,0,10.9,0,21.8,0,32.7Zm2.54-48.65c-.43.03-.86.03-1.28.02h-.39s-47.2,0-47.2,0c-1.07,0-1.86-.12-2.5-.7-.83-.74-1.16-1.92-.82-2.93.37-1.12,1.33-1.87,2.44-1.93.87-.04,1.73-.04,2.6-.04h16.73s8.74,0,8.74,0c6.86,0,13.72,0,20.59,0,.53,0,1.15.01,1.69.15,1.24.32,2.16,1.56,2.04,2.77-.15,1.52-1.15,2.54-2.62,2.64Z"/>
  <path class="cls-1" d="m34.45,29.9c-.28-1.06-1.36-1.75-2.48-1.59-1.26.19-2.04,1.16-2.04,2.53,0,11.32,0,22.64,0,33.95,0,.37.07.75.2,1.1.32.86,1.01,1.39,1.95,1.48.08,0,.15.01.23.01.7,0,1.33-.32,1.78-.91.44-.57.5-1.22.5-1.79v-20.43c0-4.41,0-8.81,0-13.22,0-.39-.05-.78-.15-1.14Z"/>
  <path class="cls-1" d="m45.26,30.24c-.09-.95-.85-1.72-1.87-1.9-.99-.19-1.96.28-2.35,1.13-.22.48-.34,1.08-.34,1.67-.02,11.14-.01,22.28-.01,33.42,0,.29.02.58.07.87.16,1.12,1.06,1.92,2.17,1.96.03,0,.05,0,.08,0,1.1,0,2.06-.8,2.26-1.89.06-.3.08-.6.08-.89,0-4.8,0-9.59,0-14.39v-5.91c.01-3.9.01-7.81,0-11.71,0-.75-.01-1.56-.1-2.37Z"/>
  <path class="cls-1" d="m21.58,28.31c-1.07-.03-2.04.69-2.28,1.72-.09.39-.13.83-.13,1.32,0,4.58,0,9.16,0,13.74v2.24h-.02v16.16c0,.55.01,1.15.07,1.76.11,1.19,1.03,2.09,2.2,2.14.03,0,.06,0,.09,0,1.12,0,2.06-.83,2.24-2,.06-.36.06-.72.06-1.03,0-11.03,0-22.05,0-33.08,0-.39-.03-.74-.08-1.07-.17-1.06-1.08-1.86-2.14-1.89Z"/>
</svg>