<?xml version="1.0" encoding="UTF-8"?>
<svg id="Layer_1" data-name="Layer 1" xmlns="http://www.w3.org/2000/svg" viewBox="0 0 80.5 79">
  <defs>
    <style>
      .cls-1 {
        fill: #fff;
      }
    </style>
  </defs>
  <path class="cls-1" d="m76.44,55.07c-2.84-2.3-5.66-4.48-8.38-6.48-3.93-2.89-8.61-2.79-12.54.26l-.62.48c-1.08.84-2.2,1.7-3.25,2.62-1.08.95-2.1,1.05-3.53.36-8.82-4.26-15.3-10.55-19.82-19.2-1.3-2.5-1.13-4.22.62-5.94.79-.78,1.45-1.69,2.09-2.57l.31-.43c2.9-3.95,2.96-8.27.17-12.14-2-2.78-4.25-5.66-6.66-8.55C21.84-.09,16.59-1.06,12.87,1.26,4.81,6.29.78,12.78.54,21.08v.06s0,.06,0,.06c.23,1.1.42,2.21.61,3.32.42,2.41.85,4.89,1.62,7.25,3.5,10.77,10.16,20.59,20.36,30.01,9.53,8.8,18.48,13.98,28.16,16.31,2.56.61,5.01.92,7.35.92,8.48,0,15.39-4,19.9-11.65,2.48-4.22,1.61-9.27-2.12-12.28Zm-3.78,9.97c-4.08,5.79-8.73,8.02-16.03,7.68h0c-3.53-.13-8.33-1.67-12.84-4.12-15.1-8.19-26.36-19.66-33.46-34.08-2.98-6.04-3.85-11.75-2.68-17.43,1.05-5.08,4.69-8.09,8.46-10.58.43-.29.92-.42,1.41-.42.87,0,1.75.42,2.4,1.22,2.71,3.31,4.86,6.07,6.77,8.68,1.03,1.41.9,2.96-.38,4.61-.56.73-1.15,1.43-1.74,2.14-1.11,1.33-2.26,2.7-3.2,4.18-.7,1.1-1.13,3-.63,4.27,5.12,13.17,14.52,22.6,27.95,28.05,1.29.52,3.28,0,4.49-.75,1.37-.85,2.62-1.9,3.82-2.92.69-.58,1.4-1.19,2.13-1.74,2.02-1.54,3.59-1.56,5.6-.06,2.82,2.1,5.12,3.88,7.22,5.61,2.11,1.73,2.32,3.37.71,5.66Z"/>
  <path class="cls-1" d="m46.7,6.13c.34.08.67.1,1,.12.31.02.59.03.85.1,1.14.31,2.31.58,3.45.83,2.6.59,5.3,1.19,7.6,2.38,8.48,4.41,13.18,11.76,13.96,21.87l.02.35c.12,1.73.29,4.1,3.24,4.24.05,0,.11,0,.16,0,.73,0,1.36-.25,1.84-.71.73-.72,1.1-1.95,1.05-3.56C79.38,14.83,65.63.98,48.49.11h-.31s0,.26,0,.26V.1c-.08,0-.44.01-.8,0-1.94-.09-3.21.95-3.46,2.82-.33,2.44,1.93,3,2.77,3.21Z"/>
  <path class="cls-1" d="m47.58,13.29c-2.24.04-3.54,1.07-3.66,2.92-.06.89.19,1.67.72,2.24.6.65,1.53,1.02,2.64,1.04,7.15.13,12.92,5.82,13.14,12.96.04,1.25.41,2.23,1.07,2.84.52.47,1.19.71,2.01.71.08,0,.17,0,.25,0,1.82-.1,2.84-1.25,2.88-3.22v-.02c-.21-10.54-9.1-19.61-19.05-19.47Z"/>
</svg>