<?xml version="1.0" encoding="UTF-8"?>
<svg id="Layer_1" data-name="Layer 1" xmlns="http://www.w3.org/2000/svg" viewBox="0 0 88 66">
  <defs>
    <style>
      .cls-1 {
        fill: #fff;
      }
    </style>
  </defs>
  <path class="cls-1" d="m87.78,11.72c0-7.98-3.69-11.69-11.6-11.7C54.75,0,33.32,0,11.89.01,4.12.02.32,3.78.27,11.5c-.08,13.88-.08,28.27,0,42.78.04,7.98,3.83,11.71,11.93,11.71,7.49,0,14.99,0,22.48,0h9.54s9.6,0,9.6,0c3.2,0,6.4,0,9.6,0,4.27,0,8.54,0,12.81,0,7.77-.01,11.54-3.77,11.55-11.5,0-12.22,0-24.44,0-36.66v-6.11ZM9.9,6.89c.32-.19.99-.16,1.58-.12.26.01.51.03.75.03h0c8.36,0,16.72,0,25.07,0h14.14c8.36,0,16.72,0,25.07.03,1.26,0,2.31.21,3.03.6.85.46,1.33,1,1.36,1.51.02.52-.44,1.14-1.27,1.69-3.71,2.47-7.42,4.93-11.13,7.39-6.56,4.35-13.35,8.85-20,13.32-3.08,2.07-5.86,2.05-9.01-.07-5.04-3.39-10.1-6.75-15.17-10.11-5.18-3.44-10.36-6.87-15.52-10.34-.55-.37-1.23-1.23-1.42-1.63.48-.81,1.38-1.63,2.5-2.29Zm65.56,52.32H12.17c-4.28,0-5.14-.84-5.14-5,0-8.36,0-16.73,0-25.09v-11.3s.63.41.63.41c1.32.87,2.49,1.64,3.65,2.41l6.42,4.28c5.82,3.87,11.64,7.74,17.44,11.64,5.94,3.99,11.95,3.97,17.88-.04,6.46-4.37,13.07-8.77,19.46-13.01l7.16-4.77c.45-.3.9-.58,1.42-.89.03.36.05.69.05,1,0,11.53.02,23.06,0,34.59,0,5.13-.64,5.78-5.67,5.78Z"/>
</svg>