<?xml version="1.0" encoding="UTF-8"?>
<svg id="Layer_1" data-name="Layer 1" xmlns="http://www.w3.org/2000/svg" viewBox="0 0 79 79">
  <defs>
    <style>
      .cls-1 {
        fill: #fff;
      }
    </style>
  </defs>
  <path class="cls-1" d="m78.09,32.62c-2.84-16.15-12.71-26.9-28.54-31.11-15.73-4.18-29.6.36-40.1,13.13C-.65,26.92-2.31,40.88,4.51,56.15c.85,1.9,1.01,3.43.53,5.12-1.08,3.79-2.08,7.56-3.15,11.54-.42,1.58-.85,3.17-1.28,4.8l-.38,1.39,1.39-.37c1.62-.43,3.21-.84,4.78-1.24,3.77-.97,7.32-1.89,10.9-2.94,2.31-.67,4.37-.52,6.9.52,14.27,5.85,27.44,4.2,39.14-4.88,12.28-9.53,17.38-22.49,14.74-37.47Zm-27.23,36.77c-9.03,3.28-17.85,2.68-26.22-1.77-1.26-.67-2.43-1-3.63-1-.71,0-1.43.12-2.18.35-2.25.69-4.55,1.27-6.98,1.89-.63.16-1.26.32-1.91.49.17-.62.33-1.24.49-1.84.64-2.42,1.24-4.71,1.95-6.95.61-1.92.42-3.53-.63-5.38-5.06-8.93-5.67-19.42-1.69-28.78,3.91-9.19,11.69-15.89,21.34-18.37,16.77-4.31,33.94,5.19,39.08,21.62,5.06,16.16-3.74,34-19.62,39.75Z"/>
  <path class="cls-1" d="m56.28,46.65c-.32-.16-.65-.31-.97-.45-.3-.14-.59-.27-.93-.43-4.63-2.23-5.1-2.13-8.37,1.92-.85,1.06-1.64,1.28-2.82.79-5.52-2.31-9.75-6-12.55-10.96-.3-.54-.18-1.93.12-2.24,2.48-2.54,2.77-5.36.91-8.61-.28-.48-.49-1.03-.71-1.6-.13-.35-.27-.7-.42-1.04-.77-1.73-2-2.81-3.48-3.05-1.49-.24-3.03.4-4.33,1.82-2.05,2.24-3.09,4.8-3.07,7.62v.13c.07.33.1.67.13,1.02.08.87.16,1.76.58,2.56l.49.93c1.45,2.76,2.96,5.61,4.85,8.15,5.69,7.66,12.94,12.54,21.56,14.51.95.22,1.88.33,2.78.33,2.89,0,5.49-1.12,7.62-3.3,1.77-1.82,1.93-3.44,1.75-4.49-.26-1.49-1.34-2.74-3.13-3.61Z"/>
</svg>