<?xml version="1.0" encoding="UTF-8"?>
<svg id="Layer_1" data-name="Layer 1" xmlns="http://www.w3.org/2000/svg" viewBox="0 0 83 79">
  <defs>
    <style>
      .cls-1 {
        fill: #fff;
      }
    </style>
  </defs>
  <path class="cls-1" d="m82.08,40.1c-.05-.06-.11-.12-.21-.22l-2.9-2.9c-2.67-2.67-5.35-5.34-8.03-8-1.14-1.13-2.72-1.39-4.03-.67-1.38.75-2.01,2.18-1.6,3.65.22.79.77,1.48,1.19,1.92,1.37,1.43,2.77,2.84,4.25,4.33l.84.85h-5.08c-2.08,0-4.53,0-7.15,0v-8.46c0-7.2,0-14.39,0-21.59,0-4.29-2.56-7.64-6.66-8.74-.82-.22-1.68-.25-2.43-.25-4.38,0-8.32,0-12.17,0-5.81,0-11.41,0-18.02-.02h-.04c-2.97,0-5.33,1.11-7.22,3.38-3.57,4.29-7.13,8.58-10.69,12.87C.69,17.97,0,19.94,0,22.29c0,8.47,0,16.93,0,25.4C0,55.06,0,62.43.01,69.81c0,5.49,3.68,9.18,9.16,9.18,7.24,0,13.79.01,20.34.01s13.32,0,20.68-.01c5.39,0,9.15-3.78,9.16-9.18,0-7.03,0-14.06,0-21.09v-3.12c1.81,0,3.53,0,5.1,0h7.09c-.67.82-1.38,1.52-2.08,2.2l-.74.72c-.85.83-1.72,1.68-2.55,2.56-1.3,1.37-1.33,3.37-.09,4.67.61.63,1.46,1,2.34,1.01h.05c.86,0,1.67-.33,2.29-.93,3.74-3.67,7.51-7.43,11.21-11.18,1.32-1.34,1.36-3.03.09-4.53ZM16.66,9.09c0,.32,0,.63,0,.95.01,1.5.03,3.05-.03,4.57-.03.87-.51,1.79-1.5,1.91-1.24.14-2.52.11-3.88.08-.26,0-.53-.01-.8-.02l6.21-7.49Zm33.02,63.36c-14.25,0-25.73,0-39.98,0-2.35,0-3.11-.76-3.11-3.14V23.28c.66,0,1.31-.01,1.95-.02,1.77-.03,3.43-.05,5.11.05,2.63.16,5.18-.79,7.01-2.62,1.82-1.82,2.77-4.38,2.6-7-.11-1.7-.08-3.39-.05-5.18.01-.65.02-1.3.03-1.95h8.23s18.32,0,18.32,0c2.19,0,3.01.81,3.01,2.98,0,9.84,0,19.68,0,29.52-8.28,0-16.7,0-19.97.02-.84,0-1.54.14-2.09.41-1.3.65-1.95,2.19-1.56,3.68.4,1.5,1.63,2.4,3.29,2.4,3.36,0,11.94,0,20.32,0,0,7.94,0,15.89,0,23.83,0,2.24-.81,3.03-3.1,3.03Z"/>
</svg>