<?xml version="1.0" encoding="UTF-8"?>
<svg id="Layer_1" data-name="Layer 1" xmlns="http://www.w3.org/2000/svg" viewBox="0 0 80.5 79">
  <defs>
    <style>
      .cls-1 {
        fill: #fff;
      }
    </style>
  </defs>
  <path class="cls-1" d="m79.03,10c-.78-.76-1.55-1.52-2.32-2.29l-.27-.27c-2.18-2.16-4.39-4.34-6.62-6.43-.6-.56-1.61-.97-2.41-.98-10.32-.03-20.16-.04-29.66-.04S18.91.01,9.88.05c-1.44,0-2.98.35-4.35.96C1.84,2.66.05,5.76.05,10.48v28.94S.05,46.53.05,46.53v21.31c0,.63,0,1.31.07,1.96.52,5.6,4.23,9.03,9.94,9.17.73.02,1.46.02,2.19.02h3.29s17.9-.01,17.9-.01c12.19,0,24.38,0,36.56,0,6.44,0,10.45-3.93,10.45-10.23v-22.74c0-10.79,0-21.59,0-32.38,0-1.5-.46-2.68-1.42-3.62Zm-59.6-1.32c0-1.6.39-1.97,2.08-1.97h11.2s4.31,0,4.31,0h4.43c3.69,0,7.39,0,11.08,0,1.65,0,2.05.4,2.05,2.01.01,4.43.01,8.85,0,13.28,0,1.74-.4,2.14-2.09,2.14-5.1,0-10.19.01-15.29.01s-10.49,0-15.73-.01c-1.62,0-2.04-.42-2.04-2.05,0-4.47,0-8.94,0-13.41Zm41.69,61.44c0,1.79-.29,2.08-2.09,2.08-4.9,0-9.8,0-14.7,0-7.62,0-15.24,0-22.86,0-1.7,0-2.05-.34-2.05-1.99,0-6.48,0-12.97,0-19.45,0-1.65.36-2.01,2.03-2.01,2.74,0,5.47,0,8.21,0h10.64s4.37,0,4.37,0c4.74,0,9.47,0,14.21,0,1.99,0,2.24.25,2.24,2.2,0,6.4,0,12.79,0,19.19Zm12.52-1.38c0,2.66-.88,3.53-3.6,3.57-.31,0-.63,0-.98,0h-1.01s0-27.38,0-27.38c0-2.35-.54-2.89-2.89-2.89H15.75c-.16,0-.32,0-.48,0-2.16.06-2.66.57-2.66,2.68v27.67s-1.31-.09-1.31-.09c-.86-.05-1.65-.1-2.43-.23-.7-.12-1.6-.57-1.9-2.09-.09-.49-.09-1-.09-1.59,0-18.94,0-37.88.01-56.82,0-.92.05-1.89.37-2.73.66-1.71,2.18-2.39,4.85-2.11l.45.05v7.5c0,4.6,0,9.21,0,13.81,0,2.1.56,2.64,2.7,2.64,14.36,0,28.72,0,43.08,0,2.66,0,3.09-.43,3.09-3.07V6.71h1.28c1.06-.02,2.03-.03,3,.03.38.02.75.35,1.12.71.92.89,1.82,1.78,2.73,2.67l.09.09c.76.75,1.53,1.51,2.3,2.25,1.16,1.13,1.7,2.42,1.7,4.06-.01,12.18-.01,24.37-.01,36.55v15.67Z"/>
  <path class="cls-1" d="m47.65,8.99c-.87-.03-1.78-.03-2.8,0-1.38.04-1.95.6-1.98,1.94-.02.96-.01,1.93-.01,2.89v2.93s0,2.97,0,2.97c0,1.22.58,1.82,1.77,1.85h.43c.46,0,.92,0,1.38-.02.49-.01.94-.03,1.38-.03,1.13,0,1.7-.58,1.71-1.72.03-3.57.03-6.33,0-8.92-.01-1.27-.58-1.83-1.89-1.88Z"/>
</svg>