<?xml version="1.0" encoding="UTF-8"?>
<svg id="Layer_1" data-name="Layer 1" xmlns="http://www.w3.org/2000/svg" viewBox="0 0 82 79">
  <defs>
    <style>
      .cls-1 {
        fill: #fff;
      }
    </style>
  </defs>
  <path class="cls-1" d="m81.74,21.09c-.02-3.06-1.46-5.53-4.17-7.15-1.33-.79-2.86-1.2-4.57-1.16-1.17.02-2.35.01-3.54,0h-1.1s0-1.13,0-1.13c0-1.13,0-2.19,0-3.26-.05-4.67-3.68-8.34-8.25-8.36-11.23-.05-23.36-.05-38.17,0-2.55,0-4.76,1.08-6.4,3.09-1.27,1.56-1.9,3.35-1.9,5.34,0,1.09,0,2.18,0,3.28v1.04s-1.34,0-1.34,0c-1.27,0-2.49,0-3.7,0C3.91,12.88.24,16.59.24,21.26c0,9.19,0,18.38,0,27.57,0,.57.04,1.03.13,1.45.89,4.37,4.08,6.99,8.54,7.03,1.17.01,2.33,0,3.54,0h1.19s0,4.74,0,4.74c0,2.76,0,5.53,0,8.29.02,5,3.64,8.64,8.62,8.65,6.19,0,12.37.01,18.56.01s12.58,0,18.87-.01c5.01,0,8.65-3.67,8.66-8.71,0-2.82,0-5.64,0-8.46v-4.53c.47,0,.94,0,1.4,0,1.35,0,2.63.02,3.92-.02,4.44-.13,8.07-3.85,8.07-8.31v-3.1c.02-8.12.03-16.52-.01-24.79ZM20.52,8.32c.02-.73.57-1.3,1.35-1.39.26-.03.52-.03.78-.03h.21s36.28,0,36.28,0c1.96,0,2.36.4,2.36,2.35,0,1.16,0,2.31-.02,3.45H20.5v-1.01c0-1.15-.02-2.27.01-3.38Zm40.98,61.66c0,1.67-.46,2.13-2.16,2.13-12.23,0-24.46,0-36.69,0-1.69,0-2.15-.46-2.15-2.13,0-7.51,0-15.02,0-22.53,0-1.67.46-2.12,2.16-2.12h13.18s5.27,0,5.27,0h5.21s13.03,0,13.03,0c1.69,0,2.15.46,2.15,2.13,0,7.51,0,15.02,0,22.53Zm13.4-21.65c0,1.65-.51,2.15-2.17,2.16-1.07,0-2.15,0-3.27,0h-1.09v-3.11c0-5.44-3.52-8.96-8.95-8.96-12.26,0-24.53,0-36.79,0-5.44,0-8.97,3.51-8.98,8.93v3.11c-.43,0-.86,0-1.28.01-1.34.02-2.61.03-3.87-.04-1.14-.06-1.38-1.05-1.39-1.87,0-3.04,0-6.09,0-9.13v-5.56c0-4.01,0-8.02,0-12.04,0-1.71.46-2.18,2.12-2.18h63.52c1.67,0,2.15.48,2.15,2.15,0,8.84,0,17.68,0,26.52Z"/>
  <path class="cls-1" d="m65.86,23.48c-.87-.01-1.75-.01-2.62,0h-1.16s-1.18,0-1.18,0c-.87,0-1.74,0-2.6,0-1.91.04-3.41,1.43-3.49,3.23-.04.92.28,1.8.91,2.47.62.67,1.48,1.05,2.41,1.08,1.3.04,2.63.05,3.99.05s2.59-.02,3.9-.05c1.86-.05,3.36-1.58,3.34-3.42-.03-1.86-1.56-3.34-3.48-3.37Z"/>
</svg>