<?xml version="1.0" encoding="UTF-8"?>
<svg id="Layer_1" data-name="Layer 1" xmlns="http://www.w3.org/2000/svg" viewBox="0 0 79 79">
  <defs>
    <style>
      .cls-1 {
        fill: #fff;
      }
    </style>
  </defs>
  <path class="cls-1" d="m67.83,11.97C60.42,4.35,50.53.1,39.96,0c-.13,0-.26,0-.39,0C18.17,0,.47,17.19.02,38.5c-.23,10.75,3.75,20.88,11.21,28.51,7.41,7.59,17.7,11.95,28.24,11.98h0c21.75-.09,39.1-17.09,39.51-38.72.2-10.65-3.76-20.7-11.16-28.31Zm-4.1,51.31c-6.41,6.52-14.95,10.13-24.05,10.16-.04,0-.08,0-.13,0-18.4,0-33.64-14.91-33.99-33.29-.18-9.28,3.36-18.03,9.95-24.64,6.44-6.45,14.94-9.98,23.99-9.98.2,0,.41,0,.62,0,18.17.32,33.12,15.33,33.33,33.46h0c.12,9.17-3.33,17.79-9.72,24.29Z"/>
  <path class="cls-1" d="m53.04,39.4c-.01-7.4-6.07-13.45-13.51-13.47h-.05c-3.61,0-7.01,1.42-9.57,4-2.57,2.59-4.02,6.1-3.98,9.62.09,7.53,6.05,13.46,13.57,13.51h.02c6.66-.07,13.53-5.2,13.52-13.65Zm-7.85,5.72c-1.54,1.53-3.66,2.39-5.75,2.38-2.14-.02-4.16-.88-5.68-2.44-1.5-1.53-2.31-3.53-2.28-5.63v-.03c-.03-2.01.82-4.03,2.32-5.54,1.53-1.54,3.57-2.39,5.74-2.39h.05c4.28.03,7.9,3.62,7.92,7.85.01,2.85-1.26,4.73-2.33,5.79Z"/>
  <path class="cls-1" d="m62.97,52.39v-5.57c0-1.14-.52-2.04-1.46-2.53-.89-.47-1.9-.45-2.71.04-.86.52-1.37,1.48-1.36,2.56v.94c.02,2.49.03,4.99.03,7.49,0,1.36-.71,2.09-2.06,2.1-.74,0-1.47,0-2.21,0h-2.67c-1.23,0-2.46-.01-3.69,0-.95,0-1.81.42-2.35,1.15-.51.69-.66,1.56-.42,2.38.38,1.27,1.42,2,2.86,2.01h.18c1.37,0,2.75,0,4.12,0,1.46,0,2.93,0,4.4-.01,4.2-.02,7.36-3.22,7.35-7.44,0-.96,0-1.91,0-2.87v-.25h0Z"/>
  <path class="cls-1" d="m32.19,57.42c-.89,0-1.79,0-2.68,0h-2.83c-1.12,0-2.25.01-3.38-.01-.85-.02-1.47-.54-1.66-1.39-.07-.33-.08-.71-.09-1.06,0-1.82,0-3.65,0-5.47v-2.35c0-.25,0-.49-.03-.74-.13-1.27-1.13-2.27-2.43-2.43-1.25-.16-2.5.67-2.86,1.87-.12.4-.18.84-.18,1.35-.01,2.77-.01,5.54,0,8.32,0,.45.02.99.12,1.53.65,3.46,3.57,5.89,7.08,5.93.55,0,1.09,0,1.64,0,.44,0,.89,0,1.33,0h.35s2.09,0,2.09,0c1.02,0,2.04,0,3.07,0,.44,0,.77-.03,1.09-.08.7-.11,1.34-.53,1.76-1.14.42-.61.57-1.37.42-2.07-.3-1.38-1.37-2.24-2.8-2.25Z"/>
  <path class="cls-1" d="m16.1,32.65c.11.92.68,1.71,1.52,2.11.38.18.78.27,1.18.27.5,0,.99-.14,1.43-.41.89-.55,1.34-1.42,1.33-2.6-.01-2-.02-4.01-.02-6.01v-2.26c0-.87.23-1.43.76-1.84.41-.32.94-.39,1.61-.39,1.53,0,3.06,0,4.6.01h3.19c.33.01.71,0,1.09-.05.71-.11,1.36-.53,1.78-1.14.42-.62.58-1.38.42-2.1-.31-1.37-1.38-2.23-2.81-2.23-1.05,0-2.1,0-3.16,0h-1.89s-.71,0-.71,0c-1.05,0-2.1,0-3.15.01-.7.01-1.27.09-1.77.23-3.3.95-5.45,3.7-5.46,7.01-.01,2.11,0,4.22,0,6.33v2.33c0,.24.03.48.06.72Z"/>
  <path class="cls-1" d="m47.04,21.55h.03c2.71-.01,5.42-.02,8.12-.02.63,0,1.09.05,1.46.31.58.4.82.96.82,1.86v.71c-.02,2.6-.03,5.2-.02,7.8,0,.53.16,1.1.44,1.56.49.8,1.36,1.26,2.27,1.26.27,0,.54-.04.81-.12,1.2-.37,1.98-1.42,1.98-2.67,0-2.57,0-5.14,0-7.71v-.24c0-.57,0-1.16-.06-1.77-.36-3.64-3.51-6.49-7.18-6.49h-2.96s-2.43,0-2.43,0c-1.09,0-2.18,0-3.28,0-.34,0-.6.02-.85.07-.95.18-1.72.82-2.05,1.71-.33.89-.18,1.88.42,2.65.58.74,1.39,1.1,2.48,1.1Z"/>
</svg>