<?xml version="1.0" encoding="UTF-8"?>
<svg id="Layer_1" data-name="Layer 1" xmlns="http://www.w3.org/2000/svg" viewBox="0 0 60 79">
  <defs>
    <style>
      .cls-1 {
        fill: #fff;
        stroke: #fff;
        stroke-miterlimit: 10;
        stroke-width: 1.27px;
      }
    </style>
  </defs>
  <path class="cls-1" d="m30.15,39.81c-10.94.02-19.92-8.8-19.8-19.66C10.47,8.6,19.51.68,29.35.44c11.27-.27,20.4,8.48,20.44,19.63.04,10.81-8.84,19.72-19.64,19.74Zm-14.05-19.63c0,7.66,6.26,13.88,13.99,13.9,7.67.02,13.95-6.32,13.95-14.09,0-7.66-6.32-13.82-14.19-13.82-7.59,0-13.75,6.28-13.75,14.01Z"/>
  <path class="cls-1" d="m59.32,58.22c-1.56-8.56-8.64-15.02-17.33-15.64-1.14-.08-2.27-.12-3.41-.13h0s-14.85-.28-17.84-.08c0,0,0,0,0,0-1.4.03-2.81.08-4.16.36C7.54,44.59,1.74,50.82.45,59.96c-.56,3.99.43,7.49,3.69,10.08,8.68,6.89,18.45,10.27,29.63,9.2,8.49-.82,16-3.91,22.49-9.46,1.82-1.56,3.07-3.54,3.27-5.92.16-1.86.13-3.8-.21-5.63Zm-5.34,4.29c-.06,1.25-.65,2.24-1.58,3.02-4.77,4.01-10.19,6.66-16.37,7.65-2,.32-4.04.42-6.06.63-8.47-.1-15.84-3.02-22.34-8.32-1.18-.96-1.71-2.24-1.59-3.75.63-8.24,6.42-13.68,14.73-13.7,6.65-.02,13.31.03,19.96.15,7.55.14,13.63,6.77,13.25,14.33Z"/>
</svg>