<?xml version="1.0" encoding="UTF-8"?>
<svg id="Layer_1" data-name="Layer 1" xmlns="http://www.w3.org/2000/svg" viewBox="0 0 77 79">
  <defs>
    <style>
      .cls-1 {
        fill: #fff;
      }
    </style>
  </defs>
  <path class="cls-1" d="m58.14,67.46c.01.55.05,1.85,1.43,2.2.26.07.51.1.75.1.46,0,.87-.13,1.2-.38.33-.25.73-.75.76-1.69.07-2.41.07-4.9.03-7.62-.03-1.66-.88-2.02-2.25-2.07-.88-.03-1.76-.03-2.64-.02-.38,0-.77,0-1.15,0h-.98c-.78,0-1.55,0-2.33,0h-.14c-.46,0-.98.02-1.43.22-.44.2-.97.64-1.15,1.17-.33.97-.11,1.58.13,1.93.24.35.75.78,1.78.82,1.75.07,3.61.1,5.68.08h.02c.22,0,.28.02.29.03,0,.02.04.1.02.39-.06,1.44-.07,3.01-.02,4.81Z"/>
  <path class="cls-1" d="m74.16,59.7c-.74,0-1.4.27-1.87.75-.47.48-.72,1.14-.71,1.86.01,1.41,1.1,2.45,2.57,2.46h.02c.71,0,1.36-.25,1.84-.7.49-.46.76-1.11.76-1.81,0-.66-.26-1.3-.75-1.79-.49-.5-1.14-.82-1.85-.77Z"/>
  <path class="cls-1" d="m71.64,67.23s-.04,0-.06,0c-1.4,0-2.53,1.09-2.58,2.5-.03.62.21,1.23.66,1.72.48.52,1.16.82,1.86.84.03,0,.05,0,.08,0,1.44,0,2.56-1.04,2.6-2.46.02-.64-.23-1.27-.7-1.77-.49-.52-1.17-.82-1.86-.84Z"/>
  <path class="cls-1" d="m16.61,41.37h0c-.79,0-1.58,0-2.36,0-2.26.02-4,1.64-4.14,3.84-.08,1.16-.07,2.37.02,3.58.15,2.12,1.73,3.59,3.92,3.65.2,0,.39,0,.59,0,.17,0,.33,0,.5,0h.49s.44,0,.44,0c.38,0,.76,0,1.14,0,2.06-.03,3.65-1.43,3.86-3.42.14-1.28.16-2.49.06-3.6-.22-2.56-1.86-4.04-4.52-4.05Zm-.92,7.8c-.88,0-1.48-.15-1.82-.48-.32-.32-.48-.85-.49-1.63,0-.83.18-1.44.56-1.83.36-.36.91-.54,1.66-.55h.03c1.53,0,2.19.68,2.21,2.26.02,1.58-.58,2.21-2.15,2.23Z"/>
  <path class="cls-1" d="m30.54,41.37h0c-.79,0-1.58,0-2.36,0-2.26.02-4,1.64-4.14,3.84-.08,1.16-.07,2.37.02,3.58.15,2.12,1.73,3.59,3.92,3.65.2,0,.39,0,.59,0,.17,0,.33,0,.5,0h.49s.44,0,.44,0c.38,0,.76,0,1.14,0,2.06-.03,3.65-1.43,3.86-3.42.14-1.28.16-2.49.06-3.6-.22-2.56-1.86-4.04-4.52-4.05Zm-.92,7.8c-.89,0-1.48-.15-1.82-.48-.32-.32-.48-.85-.49-1.63,0-.83.18-1.44.56-1.83.36-.36.91-.54,1.66-.55h.03c1.53,0,2.19.68,2.21,2.26.02,1.58-.58,2.21-2.15,2.23Z"/>
  <path class="cls-1" d="m16.61,28.14h0c-.79,0-1.58,0-2.36,0-2.26.02-4,1.64-4.14,3.84-.08,1.16-.07,2.37.02,3.58.15,2.12,1.73,3.59,3.92,3.65.2,0,.39,0,.59,0,.17,0,.33,0,.5,0h.49s.44,0,.44,0c.38,0,.76,0,1.14,0,2.06-.03,3.65-1.43,3.86-3.42.14-1.28.16-2.49.06-3.6-.22-2.56-1.87-4.04-4.52-4.05Zm-.92,7.8c-.88,0-1.48-.15-1.82-.48-.32-.32-.48-.85-.49-1.63,0-.83.18-1.44.56-1.83.36-.36.91-.54,1.66-.55h.03c1.53,0,2.19.68,2.21,2.26.02,1.58-.58,2.21-2.15,2.23Z"/>
  <path class="cls-1" d="m30.54,28.14h0c-.79,0-1.58,0-2.36,0-2.26.02-4,1.64-4.14,3.84-.08,1.16-.07,2.37.02,3.58.15,2.12,1.73,3.59,3.92,3.65.2,0,.39,0,.59,0,.17,0,.33,0,.5,0h.49s.44,0,.44,0c.38,0,.76,0,1.14,0,2.06-.03,3.65-1.43,3.86-3.42.14-1.28.16-2.49.06-3.6-.22-2.56-1.86-4.04-4.52-4.05Zm-.92,7.8c-.89,0-1.48-.15-1.82-.48-.32-.32-.48-.85-.49-1.63,0-.83.18-1.44.56-1.83.36-.36.91-.54,1.66-.55h.03c1.53,0,2.19.68,2.21,2.26.02,1.58-.58,2.21-2.15,2.23Z"/>
  <path class="cls-1" d="m49.21,35.78c.14-1.28.16-2.49.06-3.6-.22-2.56-1.87-4.04-4.52-4.05h0c-.79,0-1.58,0-2.36,0-2.26.02-4,1.64-4.14,3.84-.08,1.16-.07,2.37.02,3.58.15,2.12,1.73,3.59,3.92,3.65.2,0,.39,0,.59,0,.17,0,.33,0,.5,0h.49s.44,0,.44,0c.38,0,.76,0,1.14,0,2.06-.03,3.65-1.43,3.86-3.42Zm-5.37.16c-.89,0-1.48-.15-1.82-.48-.32-.32-.48-.85-.49-1.63,0-.83.18-1.44.56-1.83.36-.36.91-.54,1.66-.55h.03c1.53,0,2.19.68,2.21,2.26.02,1.58-.58,2.21-2.15,2.23Z"/>
  <path class="cls-1" d="m56.26,39.21c.2,0,.39,0,.59,0,.17,0,.33,0,.5,0h.49s.44,0,.44,0c.38,0,.76,0,1.14,0,2.06-.03,3.65-1.43,3.86-3.42.14-1.28.16-2.49.06-3.6-.22-2.56-1.87-4.04-4.52-4.05-.79,0-1.58,0-2.36,0-2.26.02-4,1.64-4.14,3.84-.08,1.16-.07,2.37.02,3.58.15,2.12,1.73,3.59,3.92,3.65Zm-.1-7.2c.36-.36.91-.54,1.66-.55h.03c1.53,0,2.19.68,2.21,2.26.02,1.58-.58,2.21-2.15,2.23-.9,0-1.48-.15-1.82-.48-.32-.32-.48-.85-.49-1.63,0-.83.18-1.44.56-1.83Z"/>
  <path class="cls-1" d="m16.61,54.61h0c-.79,0-1.58,0-2.36,0-2.26.02-4,1.64-4.14,3.84-.08,1.16-.07,2.37.02,3.58.15,2.12,1.73,3.59,3.92,3.65.2,0,.39,0,.59,0,.17,0,.33,0,.5,0h.49s.44,0,.44,0c.38,0,.76,0,1.14,0,2.06-.03,3.65-1.43,3.86-3.42.14-1.28.16-2.49.06-3.6-.22-2.56-1.86-4.04-4.52-4.05Zm-.92,7.8c-.88-.01-1.48-.15-1.82-.48-.32-.32-.48-.85-.49-1.63,0-.83.18-1.44.56-1.83.36-.36.91-.55,1.66-.55h.03c1.53,0,2.2.68,2.22,2.26.02,1.58-.58,2.21-2.15,2.23Z"/>
  <path class="cls-1" d="m30.54,54.61h0c-.79,0-1.58,0-2.36,0-2.26.02-4,1.64-4.14,3.84-.08,1.16-.07,2.37.02,3.58.15,2.12,1.73,3.59,3.92,3.65.2,0,.39,0,.59,0,.17,0,.33,0,.5,0h.49s.44,0,.44,0c.38,0,.76,0,1.14,0,2.06-.03,3.65-1.43,3.86-3.42.14-1.28.16-2.49.06-3.6-.22-2.56-1.86-4.04-4.52-4.05Zm-.92,7.8c-.89-.01-1.48-.15-1.82-.48-.32-.32-.48-.85-.49-1.63,0-.83.18-1.44.56-1.83.36-.36.91-.55,1.66-.55h.03c1.53,0,2.2.68,2.22,2.26.02,1.58-.58,2.21-2.15,2.23Z"/>
  <path class="cls-1" d="m66.24,72.06c-.62.12-1.29.34-2.02.68-3.79,1.75-7.44,1.66-11.16-.27-3.72-1.93-6.35-5.68-6.85-9.79-.51-4.09,1.08-7.99,4.46-10.98,4.41-3.91,12.34-4.57,17.56,1.09l-.32.02c-.25.02-.5.02-.76.03-.62.02-1.27.03-1.89.19-.57.14-1.2.71-1.43,1.3-.33.84-.29,1.66.13,2.31.43.67,1.2,1.07,2.16,1.12,1.87.1,3.3.09,4.62-.01,3.25-.26,5.66-2.53,5.98-5.63.17-1.66.11-3.35.03-5.08-.04-.74-.28-1.32-.72-1.72-.47-.42-1.13-.62-1.97-.58-.94.05-1.62.4-2.02,1.01,0-.13,0-.26,0-.39.02-5.07.02-10.14.02-15.2,0-1.33,0-2.67.01-4,.01-3.33.03-6.77-.05-10.16-.11-4.56-3.8-8.15-8.41-8.16-.72,0-1.45-.01-2.18-.02-.61,0-1.21-.01-1.82-.02-.12,0-.22-.1-.22-.22v-2.66c0-2.71-2.2-4.91-4.91-4.91h-2.4c-2.71,0-4.91,2.2-4.91,4.91v2.6c0,.16-.12.29-.28.3-.16,0-.35,0-.57,0-4.83,0-9.66,0-14.5.01h-4.14s-.83,0-.83,0c-.39,0-.79,0-1.18,0-.13.01-.16-.03-.21-.09-.05-.05-.08-.12-.08-.2v-2.64c0-2.71-2.2-4.91-4.91-4.91h-2.4c-2.71,0-4.91,2.2-4.91,4.91v2.65c0,.07-.03.14-.08.19-.05.05-.1.08-.19.07h-.12c-1.55-.04-3.16-.08-4.74,0C3.54,8.03.19,11.56.19,16.03c0,16.36,0,32.72,0,49.09,0,1.92.62,3.75,1.75,5.15,2.08,2.57,4.79,2.95,7.2,2.95.04,0,.08,0,.11,0,8.22-.04,16.46-.04,24.67-.04h6.63c1.45,0,3,0,4.54.06.29.01.61.13.75.27,3.75,3.67,8.01,5.5,12.71,5.5,2.28,0,4.67-.43,7.15-1.3.81-.28,1.63-.72,2.45-1.31.89-.64,1.1-1.8.56-3.04-.44-1-1.39-1.5-2.47-1.3ZM51.5,6.13c-.01-.47.16-.92.49-1.25.33-.34.77-.52,1.31-.52.47,0,.91.19,1.24.53s.5.78.49,1.26c-.05,1.66-.05,4.47,0,6.27.01.47-.16.92-.49,1.25-.33.34-.77.52-1.31.52-.47,0-.91-.19-1.24-.52-.33-.34-.5-.78-.49-1.26.05-1.69.05-4.5,0-6.27Zm-34.03,0c-.01-.47.16-.92.49-1.25.33-.34.77-.52,1.31-.52.47,0,.91.19,1.24.53s.5.78.49,1.26c-.05,1.68-.05,4.49,0,6.27.01.47-.16.92-.49,1.25-.33.34-.77.52-1.31.52-.47,0-.91-.19-1.24-.52s-.5-.78-.49-1.26c.05-1.71.05-4.52,0-6.27ZM5.04,15.77c.18-1.6,1.75-2.91,3.57-2.98.96-.03,1.92-.03,2.88-.03.48,0,.97,0,1.45,0h0c.06,0,.1.03.12.05.02.02.05.06.05.12v.68c0,2.71,2.2,4.91,4.91,4.91h2.4c2.71,0,4.91-2.2,4.91-4.91l.04-.84h7.31c4.76.01,9.53.03,14.29.02h0c.07,0,.12,0,.15,0v.82c0,2.71,2.2,4.91,4.91,4.91h2.4c2.71,0,4.91-2.2,4.91-4.91v-.58c0-.14.11-.25.34-.26,1.16-.01,2.31-.03,3.47,0,2.13.05,3.88,1.76,3.98,3.91.05,1.03.05,2.09.04,3.12,0,.58,0,1.16,0,1.73,0,.08,0,.13,0,.15-.03,0-.09.02-.2.02-12.7,0-25.41-.01-38.11-.01H4.99c0-.53-.02-1.06-.03-1.59-.04-1.51-.07-2.93.08-4.34Zm37.41,52.71s-.02,0-.03,0c-11.07,0-22.14,0-33.21,0-2.4,0-4.36-1.96-4.36-4.36V26.3s61.74-.01,61.74-.01c.27,0,.58,0,.59-.04.03.07.03.34.03.61l-.03,18.68c-7.83-3.61-14.81-2.59-20.74,3.04-5.41,5.13-6.75,11.83-3.98,19.91Z"/>
</svg>