<?xml version="1.0" encoding="UTF-8"?>
<svg id="Layer_1" data-name="Layer 1" xmlns="http://www.w3.org/2000/svg" viewBox="0 0 72 65.5">
  <defs>
    <style>
      .cls-1 {
        fill: #fff;
      }
    </style>
  </defs>
  <path class="cls-1" d="m46.16,14.25H14.31l7.99-6.99c1.66-1.45,1.83-3.98.38-5.64-1.46-1.66-3.98-1.83-5.64-.38L2.15,14.26c-1.15,1.01-1.81,2.46-1.81,3.99s.66,2.99,1.81,3.99l14.88,13.02c.76.66,1.7.99,2.63.99,1.11,0,2.22-.46,3.01-1.37,1.45-1.66,1.29-4.19-.38-5.64l-7.99-6.99h31.85c9.65,0,17.5,7.85,17.5,17.5s-7.85,17.5-17.5,17.5h-13c-2.21,0-4,1.79-4,4s1.79,4,4,4h13c14.06,0,25.5-11.44,25.5-25.5s-11.44-25.5-25.5-25.5Z"/>
</svg>