<?xml version="1.0" encoding="UTF-8"?>
<svg id="Layer_1" data-name="Layer 1" xmlns="http://www.w3.org/2000/svg" viewBox="0 0 1035 1524">
  <defs>
    <style>
      .cls-1 {
        fill: #0dc0ad;
      }
    </style>
  </defs>
  <path class="cls-1" d="m1032.02,1021.91c-5.48-11.22-10.92-22.49-17.04-33.37-16.43-29.17-33.31-58.1-49.77-87.26-2.02-3.57-4.39-4.62-8.16-5.15-18.25-2.57-35.47.08-51.84,8.71-5.65,2.98-10.36,1.98-14.38-2.8-4.01-4.76-7.99-8.25-14.5-3.21-.12-1.92-.26-2.9-.23-3.88.43-14.16.4-28.35,1.48-42.46,1.07-13.94-3-27.66-1.09-41.53.36-2.62,1.52-5.5,3.21-7.5,6.11-7.27,6.25-7.14.88-14.8-.47-.67-.83-1.4-.6-1.01,1.68-4.13,3.18-7.35,4.26-10.69.51-1.58.24-3.41.33-5.13-1.85.06-4.11-.55-5.47.29-4.94,3.07-9.74,6.41-14.29,10.04-12.91,10.27-25.63,20.77-38.53,31.06-2.02,1.61-4.55,3.65-6.87,3.67-22.63.28-45.26.17-68.46.17,3.12-7.51-1.04-13.2-6.02-18.73-.97-1.08-1.45-2.94-1.5-4.47-.37-10.58-6.33-17.44-16.8-19.01-2.3-.35-4.83.07-6.92-.75-14.51-5.71-29.72-5.27-44.87-5.47-1.75-.02-3.51,0-6.51,0,2.19-2.49,3.52-3.91,4.76-5.41,3.93-4.73,8.31-9.18,11.62-14.31,4.36-6.75,3-12.87-2.36-18.6-3.71-3.96-6.71-8.59-10.31-12.67-2.81-3.19-5.56-7.17-9.21-8.68-4.91-2.04-7.2-4.92-7.72-9.8-.63-6.02-3.71-10.23-9.27-12.6-5.2-2.22-8.07-6.23-9.2-11.64-.38-1.79-.69-3.61-1.19-5.37-2.25-7.94-4.77-15.67-13.33-19.34-1.3-.56-2.17-2.12-3.64-3.64,1.5-.39,2.12-.56,2.74-.71,6.51-1.52,7.54-4.71,2.76-9.61-2.89-2.97-6.24-5.51-9.44-8.17-4.06-3.38-8.19-6.69-12.88-10.51,6.06-3.62,5.63-8.39,3.72-12.31,4.84-1.39,9.2-2.31,13.3-3.88,7.08-2.71,7.86-5.59,4.56-12.28-1.74-3.53-3.55-7.31-4.02-11.13-1.2-9.78,2.63-17.77,11-22.99,6.62-4.13,13.79-7.36,20.54-11.3,6.01-3.51,12.24-6.88,17.51-11.33,5.75-4.86,6.08-9.26,2.76-15.93-5.91-11.88-5.56-23.42,1.46-34.71,1.32-2.12,2.54-4.32,4.03-6.32,5.49-7.37,10.07-14.77,10.28-24.69.15-7.01,4.08-13.97,4.12-20.96.04-7.91,2.34-12.01,10.14-13.93,5.44-1.34,10.97-1.67,15.85-6.7,5.57-5.73,13.92-8.71,17.61-16.78.5-1.08,2.34-1.63,3.65-2.25,6.11-2.9,12.45-5.38,18.32-8.7,5.48-3.1,10.35-7.28,15.72-10.61,4.81-2.98,10.22-4.32,15.81-2.6,5.97,1.84,11-.79,16.29-2.62,2.33-.81,4.92-1.76,7.25-1.48,5.16.62,9.64.58,11.58-5.32,5,2.61,9.57,1.99,14.19-.07.92-.41,2.17-.03,3.26-.1,3.13-.2,7.18.71,9.19-.9,3.91-3.14,8.41-7.28,9.51-11.77,1.45-5.96,4.71-4.66,8.26-4.57,3.19.08,6.7-1.77,9.4,1.63.27.34,1.59,0,2.36-.22,4.13-1.22,8.23-2.53,12.37-3.72.53-.15,1.25.21,1.84.45,1.91.78,3.79,1.62,5.74,2.46.13.62.37,1.27.39,1.92.12,6.58,5.45,8.87,10.08,10.98,1.05.48,4.17-3.62,6.35-5.6.1-.09.32-.06.72-.13.35.37.74.88,1.23,1.27,2.18,1.73,5,5.23,6.47,4.74,2.72-.9,5.95-3.84,6.59-6.51.68-2.83-.54-7.01-2.46-9.37-2.99-3.67-7.45-6.09-10.91-9.43-2.29-2.22-4.69-4.87-5.71-7.78-3.91-11.26-7.59-14.01-18.93-10.38-9.22,2.94-15.39-2.04-23.41-5.91,10.29-15.18,20.3-29.68,30.03-44.38,6.23-9.42,12.62-18.83,17.8-28.83,2.56-4.94,2.76-11.17,3.67-16.87.47-2.97-1.25-4-4.33-3.64-4.03.47-7.26-.63-10.15-4.25-2.59-3.24-6.53-6.88-10.24-7.35-4.76-.6-8.39-2.15-12.04-4.8-2.93-2.13-6.04-2.98-8.85,1.26-2.31-5.86-5.63-10.14-11.72-11.92-2.61-.77-4.71-3.09-7.2-4.44-2.62-1.41-5.33-2.76-8.15-3.67-3.76-1.21-7.54-1.72-7.53,4.25-4.93-.88-8.75-.39-10.72,4.54-.38.95-2.05,1.77-3.22,1.93-4.58.62-9.19.95-14.29,1.44-1.37-3.1-1.13-9.15-8.13-7.46-.15.04-.38-.56-.65-.69-6.34-3.1-12.65-6.27-19.08-9.16-.98-.44-2.73.12-3.8.76-2.26,1.36-4.74,2.72-6.37,4.71-4.22,5.15-8.93,8.16-15.66,10.42-7.28,2.44-15.24,4.26-21.97,8.66-1.19.78-3.4.86-4.79.33-5.53-2.09-11.09-4.24-16.32-6.97-4.07-2.12-7.14-2.89-8.42.98-5.13.73-9.95.35-13.62,2.22-4.68,2.38-6.82,1.19-9.09-2.7-2.43-4.14-5.49-7.03-10.33-2.98-.9-.77-1.54-1.28-2.14-1.84-5.07-4.78-4.76-4.68-1.16-10.46,1.52-2.44,2.33-6.04,1.87-8.86-1.04-6.35-3-12.55-4.72-18.78-1.74-6.28-4.36-7.74-10.58-6.16-1.12.28-2.47,1.05-3.33.69-4.29-1.8-8.68-3.56-12.48-6.15-.9-.61-.1-4.51.67-6.63,2.5-6.92,2.19-8.87-3.19-14.19-.68-.68-1.77-1.37-1.86-2.15-1.08-10.1-9.47-13.73-16.42-18.6-.6-.42-1.98-.16-2.78.23-5.49,2.74-5.69,2.71-8.47-2.93-1.86-3.76-7.66-7.2-11.23-6.52-.83-1.92-1.22-3.67-2.25-4.88-.76-.89-2.85-1.85-3.49-1.44-5.51,3.5-9.54-.6-13.47-2.92-1.91-1.12-4.41-3.79-2.04-7.61.87-1.4-.52-5.97-2.05-6.72-3.59-1.77-3.87-4.55-4.54-7.66-.84-3.86-.86-8.89-3.32-11.22-6.72-6.37-14.27-11.98-22.03-17.08-3.26-2.15-6.2-3.31-6.69-7.88-.21-2.01-2.75-4-4.62-5.51-.75-.6-3.37-.35-3.78.33-2.59,4.27-5.48,2.27-7.96.4-3.72-2.8-6.96-6.22-10.65-9.06-6.85-5.28-11.66-4.77-17.2,1.91-2.76,3.32-6.02,4.7-10.12,3.85-4.55-.94-9.01-2.53-13.6-3.07-1.95-.23-4.12,1.51-6.2,2.36.95,2.21,1.52,6.02,2.93,6.37,7.42,1.82,10.31,7.33,12.76,13.53,2.12,5.37,4.77,10.64,10.35,12.92,4.77,1.95,5.22,4.81,3.93,9.03-2.26,7.41-2.46,14.74,1.02,21.92.46.95.35,2.17.67,4.43-2.75-.82-5.16-.93-6.76-2.13-4.72-3.54-6.07-3.21-7.52,2.72-2.38,9.71-4.78,19.41-7.08,29.13-2.62,11.12-7.76,20.75-15.66,29.11-7.67,8.11-15.27,16.35-22.11,25.15-18.57,23.91-42.5,40.18-70.68,50.36-15.97,5.77-32.29,10.55-48.37,16.01-9.82,3.33-19.37,7.3-26.34,16.4-3.11-5.63-6.53-3.72-9.84-.75-2.48,2.22-5.02,4.43-7.14,6.97-5.46,6.51-10.46,13.42-16.14,19.72-2.91,3.23-4.23,5.76-1.12,9.43.52.61.07,2.05.07,3.1l-1.44-.07c-.43-1.42-.42-3.46-1.37-4.13-2.58-1.8-5.46-3.45-8.46-4.19-.92-.23-3.45,2.51-3.81,4.19-1.97,9.22-3.48,18.54-5.18,27.83-.14.79-.26,1.96-.78,2.24-6.06,3.31-3.09,12.7-10.29,15.25-.51.18-.96,1.5-.89,2.23.78,7.89-3.78,13.93-6.87,20.51-2.23,4.76-3.93,9.62-.77,14.76.43.7.37,1.91.13,2.77-.88,3.18-1.93,6.31-2.93,9.5-13.95,1.69-19.57,8.42-17.69,21.63-4.29,1-7.61,3.08-7.94,8.13-.05.75-1.2,2.1-1.7,2.03-6.16-.77-13.03-.29-18.25-2.99-8.62-4.46-13.99-12.69-16.82-22.12-.66-2.19.11-4.78-.33-7.08-.37-1.95-1.26-3.96-2.47-5.52-.81-1.05-3.06-1.02-3.83-2.08-4.39-5.98-9.72-5.46-15.53-2.68-3.09,1.48-5.43.82-8.01-1.68-2.43-2.35-5.75-3.81-8.76-5.5-2.6-1.46-5.6-2.34-7.93-4.11-7.48-5.68-11.34-4.8-16.79,2.71-2.48,3.42-6.68,5.66-10.34,8.09-.95.63-3.34.49-4.03-.26-.75-.81-.84-3.02-.27-4.14,1.73-3.37,3.99-6.46,5.89-9.74.98-1.69,1.64-3.56,2.45-5.35-2.03-.47-4.05-1.02-6.1-1.39-.93-.17-2.69.24-2.78-.04-1.14-3.52-2.97-7.18-2.72-10.67.21-2.95,3.6-4,6.8-2.91,5.36,1.83,9.75.49,13.39-3.85,1.27-1.51,2.82-2.89,4.49-3.95,3.1-1.96,3.26-3.86,1.22-6.92-1.41-2.11-1.93-4.93-2.4-7.52-1.54-8.47-2.6-17.04-4.52-25.41-.43-1.87-3.45-3.74-5.64-4.38-1.2-.36-3.23,1.75-4.76,2.9-1.57,1.18-3.09,3.75-4.47,3.64-5.32-.41-8.68,1.91-11.77,5.86-1.8,2.31-4.25,4.45-6.86,5.73-14.06,6.85-19.21,22.54-31.36,31.22-.38.27-.72.77-.84,1.22-1.77,6.5-7.11,10.85-12.08,13.45-11.52,6.01-7.22,18.14-12.07,26.51-.48.82.75,2.5.85,3.81.19,2.46,1.08,5.53-.02,7.3-2.58,4.2-.51,6.97,1.81,9.79,4.55,5.53,9.36,10.85,13.92,16.38,1.83,2.21,3.28,4.74,5.12,7.44q-8.42,1.42-9.52,9.34c-.05.33.02.67-.04.99-1.19,6.55,1.65,12.22,7.5,14.92,10.28,4.74,19.21,19.24,18.12,30.4-.25,2.57-2.1,6.08-4.19,7.06-2,.94-5.29-.85-8.01-1.42-1.47-.31-3.45-1.36-4.36-.78-8.01,5.17-10.43,18.28-3.03,24.52,11.38,9.58,23.86,18,36.57,25.79,11.15,6.83,23.71,11.37,34.83,18.26,21.92,13.57,36.87,33.8,49.87,55.57,1.41,2.36,2.83,5.41,2.57,7.96-.76,7.36,3.32,12.21,7.32,17.39,1.89,2.44,4.36,5.25,4.54,8.03.48,7.37,3.69,13.15,8.62,18.06,5.19,5.16,10.48,10.37,16.4,14.61,9.08,6.5,13.77,15.9,18.76,25.2-3.55,3.62-3.64,5.62.43,7.67,7.26,3.65,10.53,9.84,12.27,17.26.91,3.89,1.01,8.23,2.87,11.59,4.37,7.91,2.64,18.89,11,23.54-.79,2.26-2.6,4.93-1.93,5.91,3.05,4.48,6.14,9.48,10.48,12.41,4.67,3.15,5.5,8.04,5.99,11.85.78,6.08,2.63,11.22,5.89,16.12,3.9,5.87,9.4,11.1,7.56,19.25-.13.58.18,1.33.45,1.92,4.21,9.25,4.98,19.95,11.95,28.07,1.49,1.73,2.23,4.09,3.43,6.08,6.45,10.68,12.67,21.5,19.47,31.95,7.6,11.68,13.82,23.87,16.67,37.59-5.66,4.06-5.72,9.65.17,13.55,3.72,2.47,7.79,4.55,11.92,6.26,6.6,2.73,10.38,8.17,14.11,13.7,3.49,5.17,10.06,9.14,6.93,17.02,4.29,9.44,2.42,21.34,11.56,28.87.55.45.98,1.59.82,2.26-.98,4.09,1.83,5.5,4.61,7.18,3.56,2.15,7.2,4.28,10.35,6.95,2.2,1.86,5.41,4.88,5.11,6.93-1.13,7.62,2.91,12.12,7.78,16.59.82.75,1.25,1.96,1.79,2.99,3.68,6.91,7.38,13.81,10.99,20.75,6.94,13.32,14.09,26.5,24.8,37.32.45.46.9,1,1.12,1.58,4.98,12.86,1.67,25.4-1.06,38.25q-7.19-4.78-11.1,1.11c-2.16-.54-4.06-1.53-5.69-1.2-.84.18-1.19,2.72-1.76,4.19,1.99.58,3.97,1.17,6.23,1.83-1.07,3.91,1.33,4.97,5.58,4.89,1.15-.02,3.33,2.01,3.36,3.14.13,4.77-.63,9.57-.51,14.35.05,1.9,1.51,3.76,2.33,5.64,1.31-.67,2.62-1.36,3.95-2.01.26-.13.62-.06,1.17-.11.75,1.09,1.55,2.25,2.08,3.03-1.46,1.2-3.27,1.98-3.59,3.16-.26.96,1,3.14,2.02,3.49,2.72.94,4.16,2.51,5,5.21.32,1.02,1.8,1.91,2.94,2.41,8.29,3.63,10.83,11.16,13.27,18.91.74,2.37,1.88,5.18,3.75,6.54,6.06,4.39,12.42,8.4,18.88,12.17,9.05,5.28,15.67,12.64,20.9,21.66,1.65,2.85,5.22,4.61,7.94,6.82,1.62,1.31,4.92,3.24,4.72,3.7-2.56,5.9,2.89,6.43,4.42,7.76.63,3.08.38,5.64,1.48,6.54,3.68,2.99,7.69,5.65,11.86,7.92,5.24,2.86,10.77,5.2,16.16,7.8,9.11,4.4,18.24,8.78,27.29,13.32,1.35.68,2.9,1.95,3.35,3.29,1.75,5.12,5.61,7.38,10.47,8.11,10.46,1.57,18.87,6.48,26.1,14.15,3.73,3.95,8.01,7.97,12.85,10.16,11.17,5.03,22.84,8.95,34.31,13.34,2.31.88,5.38,1.22,6.71,2.9,3.94,4.96,9.29,6.7,14.93,8.33,2.04.59,3.9,1.84,5.79,2.88,5.92,3.26,11.57,7.18,17.78,9.72,12.32,5.04,25.03,9.11,37.38,14.08,3.08,1.24,5.54,4.23,8.05,6.66,2.45,2.36,4.44,5.22,6.95,7.51,2.39,2.18,5.14,3.97,7.81,5.83,2.8,1.94,5.66,3.79,8.54,5.61,1.1.69,2.35,1.13,3.47,1.79,6.74,3.93,13.34,8.1,20.21,11.76,6.9,3.67,14.09,6.78,21.07,10.3,1.34.68,2.45,2.02,3.38,3.26,4.93,6.6,5.74,14.29,6.17,22.21.13,2.31,1.44,5.33,3.22,6.67,16.8,12.56,33.58,25.2,50.9,37.03,8.87,6.06,18.47,11.39,28.41,15.41,6.01,2.44,13.45,3.01,19.98,2.2,13.39-1.66,20.64-11.64,26.65-22.68,3.33-6.1,5.53-12.02,1.25-18.61-.96-1.48-1.23-3.43-1.71-5.2-1.99-7.37-1.07-8.18,5.88-10.96,5.91-2.36,11.69-5.49,16.84-9.22,8.29-6.01,4.5-19.54-3.05-23.21-1.59-.78-3.12-1.7-5.81-3.18,3.89-3.67,6.7-8.12,10.64-9.63,6.6-2.53,10.47-6.95,13.49-12.77.23-.44.59-.81.89-1.2,3.85-5.02,8.04-9.82,11.43-15.14,2.07-3.25,4.14-5.46,7.96-6.69,6.89-2.21,9.24-6.84,7.8-13.51-1.88-8.73-1.28-9.89,6.82-13.18,1.54-.62,3.35-1.02,4.5-2.09,1.6-1.49,3.24-3.36,3.88-5.37,1.05-3.34-2.02-4.39-4.25-5.81-4.59-2.93-8.72-7.19-14.81-6.06-5.97,1.11-10.14-1.28-13.03-6.11-1.95-3.26-3.69-6.75-4.93-10.33-3.44-9.9-6.6-19.91-9.8-29.89-.28-.88-.44-2.12-.05-2.86,2.74-5.12,5.63-10.16,8.51-15.2.63-1.1,2.1-2.18,2.01-3.16-.43-4.95,2.95-7.02,6.52-8.28,4.37-1.55,4.44-4.36,2.68-7.36-1.91-3.25-4.63-6.03-7.01-9-3-3.75-6.5-7.21-8.91-11.3-2.75-4.67-1.34-12.99,2.28-14,6-1.68,7.3-5.87,7.32-10.97.01-4.24.75-7.33,6.69-6.22-1.46-6.79,3.35-9.09,7.45-11.92,1.51-1.04,3.4-1.91,4.27-3.36,1.1-1.82,2.13-4.31,1.78-6.26-1.28-7.05-1.11-7.98,5.76-8.82,4.46-.54,6.19-3.32,5.37-6.73-1.01-4.21-2.94-8.46-5.45-11.99-3-4.23-4.58-8.6-5.5-13.64-.96-5.2-3.16-10.17-4.81-15.21,4.11-1.16,4.74-6.13,5.84-10.43,3.81-14.82,1.63-29.88.88-44.78-.56-11.14,2.57-18.01,12.98-22.28,6.46-2.65,7.34-5.25,3.77-11.16,7.28-6.52,7.46-6.61,3.11-15.52Z"/>
</svg>