<?xml version="1.0" encoding="UTF-8"?>
<svg id="Capa_1" data-name="Capa 1" xmlns="http://www.w3.org/2000/svg" viewBox="0 0 79 79">
  <defs>
    <style>
      .cls-1 {
        fill: #0dc0ad;
      }
    </style>
  </defs>
  <path class="cls-1" d="m39.55,0c21.94.04,39.83,17.99,39.44,40.24-.38,21.64-18.12,39.2-40.37,38.76C17.61,78.57-.47,61.34.01,38.48.44,17.73,17.39.1,39.55,0Zm-.18,72.84c18.08.11,33.1-14.3,33.48-32.7.38-18.64-14.6-33.68-32.69-33.98C21.29,5.85,6.51,20.84,6.15,38.8c-.37,18.85,14.73,34,33.21,34.04Z"/>
  <path class="cls-1" d="m36.41,32.95c0-3.25,0-6.5,0-9.76,0-.94.25-1.8.98-2.46.87-.79,1.88-1.03,3-.69,1.09.33,1.8,1.06,2.05,2.19.08.36.13.74.13,1.1,0,6.41,0,12.83,0,19.24,0,1.65-.87,2.88-2.3,3.26-1.88.51-3.89-.88-3.88-3.17.02-3.24,0-6.48,0-9.72Z"/>
  <path class="cls-1" d="m43.66,53.95c-.01,2.29-1.89,4.09-4.24,4.08-2.24-.02-4.11-1.94-4.09-4.21.02-2.27,1.94-4.14,4.23-4.12,2.28.03,4.11,1.93,4.1,4.24Z"/>
</svg>