<?xml version="1.0" encoding="UTF-8"?>
<svg id="Capa_1" data-name="Capa 1" xmlns="http://www.w3.org/2000/svg" viewBox="0 0 80 79">
  <defs>
    <style>
      .cls-1 {
        fill: #30bfb1;
      }
    </style>
  </defs>
  <path class="cls-1" d="m68.31,11.9C60.89,4.3,50.95.07,40.32,0,18.77-.18.89,17.19.52,38.64c-.19,10.76,3.79,20.85,11.2,28.42,7.49,7.65,17.52,11.89,28.26,11.94h0c21.77-.2,39.11-17.26,39.49-38.83.19-10.66-3.78-20.69-11.17-28.27Zm-4.4,51.27c-6.38,6.42-14.86,9.96-23.89,9.98h-.06c-9.01,0-17.5-3.57-23.9-10.07-6.4-6.49-9.84-15.08-9.7-24.19C6.63,20.59,21.7,5.83,40.01,5.83c.12,0,.23,0,.35,0,18.35.19,33.28,15.23,33.28,33.54h0c.05,8.98-3.41,17.43-9.74,23.8Z"/>
  <path class="cls-1" d="m52.62,29.47c-.49-5.25-3.16-9.04-7.95-11.28-2.2-1.03-4.36-1.34-6.42-.93-3,.6-5.52,2.01-7.47,4.21-2.93,3.28-3.99,7.25-3.25,12.16.42,2.8,1.7,5.29,3.82,7.39-1.94.94-3.66,2.22-5.11,3.81-2.44,2.66-3.71,5.81-3.78,9.35-.03,1.49,1.28,2.83,2.81,2.87.03,0,.05,0,.08,0,1.68,0,2.89-1.23,2.96-3.03.09-2.17.91-4.05,2.44-5.59,2.02-2.03,4.54-3.17,7.7-3.5.37-.04.75-.06,1.12-.09.77-.05,1.56-.1,2.34-.27,5.37-1.2,8.86-4.52,10.38-9.89.42-1.47.52-3.12.33-5.21Zm-7.57,6.92c-1.28,1.5-2.88,2.36-4.74,2.57-.85.09-1.74-.1-2.78-.61-2.39-1.17-3.8-2.97-4.2-5.34-.43-2.55-.24-4.4.63-6,1.29-2.4,3.25-3.77,5.81-4.08.13-.02.27-.02.4-.02.71,0,1.49.22,2.36.65,2.45,1.24,3.89,3.2,4.26,5.85.05.33.03.69.02,1.01,0,.15-.01.29-.01.42v.04c.19,2.12-.38,3.92-1.74,5.51Z"/>
  <path class="cls-1" d="m64.62,43.26c-.4-.94-1.23-1.59-2.22-1.75-1-.16-1.9.16-2.69.95-3.13,3.13-6.26,6.26-9.39,9.39l-2.95,2.95-.07.07-.16-.16c-.35-.36-.68-.72-1.03-1.06l-.42-.43c-.43-.44-.87-.9-1.35-1.3-.7-.59-1.61-.81-2.49-.62-.89.2-1.63.79-2.03,1.64-.53,1.14-.28,2.43.66,3.39,1.21,1.23,2.43,2.44,3.65,3.66l.98.98c.13.13.28.26.43.37.57.42,1.16.63,1.75.63.4,0,.79-.09,1.19-.28.41-.2.8-.48,1.14-.82,4.54-4.52,9.07-9.06,13.6-13.59l.6-.6c.21-.21.37-.4.5-.58.58-.82.69-1.87.29-2.81Z"/>
</svg>