<?xml version="1.0" encoding="UTF-8"?>
<svg id="Capa_1" data-name="Capa 1" xmlns="http://www.w3.org/2000/svg" viewBox="0 0 84 79">
  <defs>
    <style>
      .cls-1 {
        stroke: #30bfb1;
        stroke-miterlimit: 10;
        stroke-width: .25px;
      }

      .cls-1, .cls-2 {
        fill: #30bfb1;
      }
    </style>
  </defs>
  <g>
    <path class="cls-2" d="m83.59,31.46c-.72-2.76-3.17-4.64-6.11-4.69-2.66-.06-5.23,1.91-5.9,4.54-.2.78-.27,1.58-.34,2.34-.03.28-.05.57-.09.85-.06.55-.11,1.1-.14,1.65-.05,1.11.69,2.01,1.76,2.14,1.14.14,2.06-.56,2.28-1.68.04-.2.06-.4.08-.6l.09-1.09c.05-.66.11-1.31.17-1.97.06-.58.23-1.03.54-1.37.64-.71,1.7-.93,2.57-.54.84.38,1.26,1.23,1.16,2.33-.25,2.54-.47,5.09-.7,7.64l-1.02,11.42c-.2,2.15-.39,4.31-.57,6.46-.1,1.15-.3,1.92-1.02,2.47-.88.67-1.74,1.36-2.61,2.05l-9.35,7.4c-.85.68-1.31,1.61-1.31,2.7v.54c0,.29-.01.59,0,.89-.97,0-1.94,0-2.92,0h-11.39c.02-.96.03-1.93.04-2.9.01-1.11.03-2.21.05-3.31.02-1.07-.1-2.04-.36-2.97-.15-.51-.26-1.09-.34-1.71-.31-2.48.47-4.64,2.32-6.4,1.06-1.01,2.32-1.76,3.77-2.24,1.54-.51,2.61-1.55,3.2-3.1.42-1.1.83-2.2,1.24-3.3l.73-1.93c.12-.31.23-.63.35-.95.28-.77.54-1.5.86-2.2.33-.73,1.18-1.1,1.98-.87.48.14.87.45,1.08.87.23.46.25,1.02.05,1.58-.56,1.53-1.12,3.05-1.68,4.57-.59,1.61-1.19,3.21-1.77,4.82-.05.13-.07.16-.1.17l-.79.37c-1.02.47-2.07.96-3.09,1.52-2.18,1.19-3.87,2.55-5.17,4.16-.13.16-.29.35-.41.58-.31.58-.32,1.28,0,1.86.32.59.91.99,1.58,1.06.86.09,1.44-.38,1.8-.73.17-.17.34-.35.52-.52.53-.54,1.02-1.05,1.57-1.47,1.73-1.34,3.83-2.48,6.61-3.58,2.7-1.07,5.62-1.99,8.94-2.82,1.16-.29,1.69-.89,1.81-2.08.08-.83.16-1.66.23-2.49l.33-3.6c.16-1.73.32-3.45.47-5.18.05-.61-.12-1.18-.5-1.62-.35-.41-.85-.66-1.39-.69-1.14-.08-2.05.76-2.16,1.97-.3,3.35-.6,6.7-.89,10.09-1.33.38-2.65.78-3.97,1.17l-.45.14.42-1.11c.65-1.71,1.29-3.43,1.93-5.15.86-2.29.46-4.43-1.14-6.18-1.55-1.7-3.61-2.25-5.96-1.59-1.84.52-3.15,1.8-3.88,3.82-.33.91-.67,1.83-1.01,2.74-.59,1.61-1.19,3.22-1.76,4.84-.21.6-.54.92-1.16,1.13-3.42,1.17-5.94,3.32-7.48,6.41-1.22,2.44-1.43,5.15-.65,8.29l.05.18c.13.52.25,1,.25,1.45,0,1.38-.04,2.76-.07,4.14-.02.63-.03,1.25-.05,1.88,0,.38,0,.76,0,1.15v.35c0,2.09,1.36,3.45,3.46,3.45h11.29s4.33,0,4.33,0c.1,0,.18,0,.26,0,1.9-.11,3.13-1.41,3.14-3.32v-.54c0-.44,0-.87,0-1.34.43-.3.85-.63,1.26-.96l.09-.07c.78-.61,1.56-1.23,2.33-1.84l3.1-2.45c1.66-1.31,3.32-2.62,4.98-3.93,1.42-1.12,2.24-2.58,2.44-4.36.08-.72.14-1.45.21-2.18l.34-3.89c.15-1.78.31-3.55.47-5.33.17-1.9.34-3.8.52-5.69l.79-8.63c.09-.95.18-1.94-.09-2.98Z"/>
    <path class="cls-2" d="m31.07,51.56c-.38-.12-.6-.34-.76-.78-1-2.72-2.01-5.44-3.03-8.16-.55-1.46-1.63-2.6-3.03-3.22-1.46-.64-3.15-.67-4.63-.06-2.96,1.2-4.31,4.48-3.15,7.63.56,1.51,1.12,3.02,1.69,4.53.21.56.43,1.13.65,1.7l-.33-.1c-1.34-.41-2.68-.82-4.1-1.22-.09-1.44-.21-2.87-.34-4.31-.17-1.94-.35-3.88-.53-5.82l-.37-4.05c-.16-1.82-.33-3.65-.52-5.47-.35-3.3-3.42-5.79-6.7-5.45-3.46.37-6,3.41-5.67,6.79.19,1.91.36,3.83.54,5.75l.26,2.79c.29,3.13.58,6.27.86,9.4.17,1.89.34,3.78.5,5.67l.25,2.84c.16,1.83.96,3.33,2.38,4.45.28.22.56.43.84.64.28.21.56.43.84.64,1.14.91,2.29,1.82,3.42,2.74.58.47,1.3.6,1.98.35.68-.25,1.21-.86,1.34-1.56.22-1.18-.62-1.85-.9-2.07l-1.99-1.57c-.95-.75-1.89-1.5-2.84-2.24-.62-.49-.94-1.03-1-1.7-.17-1.8-.33-3.61-.49-5.41l-1.72-19.03c-.07-.74-.15-1.51-.18-2.25-.03-.88.35-1.51,1.18-1.93.65-.33,1.34-.32,1.94,0,.66.37,1.09,1.06,1.17,1.91.29,2.97.55,5.94.82,8.9l1.02,11.38c.11,1.28.64,1.9,1.87,2.21,3.9.98,7.35,2.12,10.53,3.5,2.14.93,3.75,1.87,5.09,2.97.54.44,1.03.94,1.54,1.46.19.2.39.39.58.59.56.55,1.28.73,2.02.5.76-.24,1.28-.83,1.42-1.62.16-.89-.36-1.51-.61-1.8-1.07-1.28-2.38-2.4-4.12-3.53-1.48-.96-3.09-1.78-4.77-2.43-.18-.07-.26-.14-.35-.37-.62-1.73-1.25-3.46-1.89-5.19l-.4-1.07c-.14-.38-.28-.75-.43-1.13-.28-.72-.56-1.47-.8-2.2-.22-.69.14-1.57.8-1.94.48-.27.99-.33,1.46-.16.51.19.92.62,1.14,1.22l.26.71c.86,2.3,1.71,4.6,2.53,6.92.65,1.83,1.82,2.99,3.58,3.53,1.43.44,2.73,1.29,4.08,2.68.79.8,1.34,1.8,1.64,2.97.37,1.43.3,2.93-.26,5.01-.13.48-.28,1.13-.28,1.79,0,2.44.04,4.87.08,7.03-4.76,0-9.52,0-14.3,0v-.31c0-.27,0-.54,0-.82.05-1.29-.46-2.34-1.5-3.11-.38-.28-.75-.58-1.12-.88-.22-.17-.43-.35-.72-.57-.25-.2-.5-.39-.77-.56-.64-.41-1.39-.42-2.06,0-.62.37-.95.99-.95,1.73,0,.43.14,1.05.79,1.57l.28.23c.65.53,1.31,1.06,1.99,1.58,0,.25,0,.49,0,.74,0,.36.01.71-.01,1.07-.06.89.25,1.75.83,2.38.61.65,1.48,1.01,2.46,1.01,2.29,0,4.59,0,6.88,0,2.97,0,5.94,0,8.91-.02.58,0,1.23-.17,1.82-.48.72-.37,1.58-1.18,1.56-2.87v-.96c-.05-2-.08-4-.13-6-.02-.68.05-1.31.19-1.91.26-1.06.42-1.95.51-2.78.26-2.64-.37-5.08-1.88-7.26-1.76-2.54-4.09-4.28-6.95-5.16Z"/>
  </g>
  <g>
    <path class="cls-1" d="m53.4,38c-.29,0-.54-.11-.76-.29-.72-.59-1.44-1.17-2.15-1.77-.14-.12-.24-.13-.4-.04-.99.54-2.05.94-3.13,1.27-.17.05-.25.13-.26.31-.08.84-.19,1.68-.26,2.53-.07.83-.56,1.31-1.4,1.32-1.44,0-2.88,0-4.32,0-.63,0-1.26,0-1.9,0-.81,0-1.28-.46-1.35-1.27-.07-.89-.16-1.78-.25-2.67,0-.07-.09-.17-.15-.19-1.13-.31-2.18-.8-3.21-1.34-.16-.08-.26-.09-.41.04-.68.56-1.38,1.11-2.08,1.66-.67.53-1.27.49-1.88-.12-1.1-1.1-2.21-2.21-3.31-3.31-.36-.36-.71-.71-1.06-1.07-.54-.55-.58-1.15-.1-1.75.58-.73,1.18-1.45,1.78-2.17.08-.1.08-.16.02-.26-.59-1.05-1.04-2.15-1.36-3.31-.03-.12-.1-.16-.21-.17-.58-.05-1.16-.11-1.74-.17-.38-.04-.76-.08-1.14-.15-.66-.11-1.04-.57-1.04-1.25,0-1.46,0-2.92,0-4.38,0-.65,0-1.3,0-1.96,0-.75.42-1.22,1.16-1.3.35-.04.7-.06,1.04-.09.58-.06,1.15-.12,1.72-.17.13-.01.18-.07.22-.19.33-1.15.78-2.24,1.37-3.28.03-.06,0-.18-.04-.24-.54-.68-1.09-1.35-1.64-2.02-.19-.24-.38-.47-.42-.79-.05-.43.1-.78.4-1.07.56-.56,1.12-1.12,1.68-1.68.92-.92,1.83-1.84,2.75-2.76.58-.58,1.17-.63,1.81-.12.7.55,1.38,1.12,2.06,1.69.14.12.25.13.43.04,1.01-.55,2.06-1,3.18-1.3.15-.04.2-.11.21-.26.1-.92.19-1.84.31-2.76.1-.78.52-1.14,1.31-1.17.2,0,.4,0,.61,0,1.86,0,3.72,0,5.59,0,.9,0,1.36.44,1.43,1.34.07.88.16,1.77.24,2.65.01.15.1.19.22.22.86.23,1.69.58,2.5.96.24.11.48.24.72.37.11.06.19.07.3-.02.7-.56,1.4-1.11,2.09-1.68.38-.31.79-.48,1.26-.31.21.07.41.21.57.36,1.49,1.48,2.98,2.96,4.45,4.45.54.54.55,1.16.06,1.77-.57.71-1.14,1.41-1.71,2.11-.09.11-.1.19-.03.32.53,1.04,1.02,2.1,1.32,3.24.03.13.1.19.25.21.9.09,1.8.18,2.71.28.73.08,1.16.55,1.19,1.31.01.4,0,.79,0,1.19,0,1.63,0,3.27,0,4.9,0,1.01-.44,1.47-1.44,1.56-.84.07-1.67.16-2.51.25-.06,0-.15.08-.17.15-.36,1.14-.8,2.25-1.39,3.3-.08.14-.01.22.07.32.56.71,1.13,1.42,1.69,2.14.23.29.39.61.33,1-.04.26-.15.47-.33.65-1.53,1.52-3.06,3.05-4.59,4.57-.25.25-.56.4-.92.4ZM39.86,2.43c-.01.1-.03.18-.04.27-.09.83-.16,1.66-.26,2.49-.07.56-.38.93-.95,1.07-.25.06-.5.12-.74.19-1.29.37-2.51.91-3.66,1.61-.58.35-1.02.3-1.56-.13-.57-.47-1.14-.94-1.71-1.41-.11-.09-.21-.18-.3-.25-1.04,1.04-2.05,2.07-3.07,3.09.49.62,1,1.25,1.51,1.89.6.75.61,1.11.13,1.95-.29.49-.54,1-.78,1.52-.38.82-.67,1.67-.89,2.54-.13.55-.48.89-1.06.95-.34.04-.68.08-1.02.11-.57.06-1.13.11-1.7.16v4.34s.06.02.09.02c.81.08,1.62.16,2.43.24.77.08,1.11.37,1.3,1.12.1.38.2.77.32,1.14.36,1.09.86,2.11,1.44,3.1.29.5.28.98-.07,1.42-.54.68-1.09,1.35-1.64,2.02-.09.11-.11.18,0,.28.28.27.55.55.83.83.7.7,1.4,1.39,2.11,2.09.06-.04.1-.05.14-.08.64-.51,1.28-1.02,1.92-1.53.57-.45,1.01-.49,1.65-.13.42.23.83.47,1.25.69.96.49,1.97.82,3,1.08.63.16.94.54,1.01,1.18.08.8.15,1.59.22,2.39.01.18.08.23.26.23,1.3,0,2.61,0,3.91,0h.2c.01-.09.03-.15.04-.22.08-.79.17-1.58.25-2.37.08-.72.36-1.06,1.07-1.22,1.49-.35,2.87-.96,4.18-1.74.16-.1.35-.18.54-.22.45-.1.81.1,1.14.38.62.52,1.25,1.03,1.86,1.54.1.08.16.11.27,0,.9-.91,1.8-1.81,2.71-2.71.07-.07.14-.16.23-.25-.54-.68-1.07-1.35-1.6-2.02-.51-.64-.53-1.02-.11-1.72.51-.86.94-1.75,1.26-2.69.18-.53.32-1.07.48-1.6.15-.52.5-.82,1.03-.89.43-.06.86-.08,1.28-.13.49-.05.97-.09,1.47-.14v-4.34c-.86-.09-1.71-.19-2.56-.27-.67-.06-1.06-.38-1.22-1.03-.38-1.51-.95-2.94-1.77-4.26-.37-.59-.33-1.07.11-1.61.46-.57.93-1.13,1.4-1.7.09-.11.18-.23.27-.35-.05-.05-.08-.09-.12-.13-.93-.93-1.86-1.86-2.79-2.8-.11-.11-.18-.09-.29,0-.61.5-1.22.99-1.84,1.48-.65.52-1.02.54-1.74.12-.98-.56-1.99-1.06-3.07-1.41-.45-.15-.91-.25-1.35-.39-.43-.14-.68-.45-.75-.89-.07-.53-.11-1.07-.17-1.6-.04-.43-.08-.85-.13-1.28h-4.35Z"/>
    <path class="cls-1" d="m41.76,32.57c-6.39-.17-11.73-5.39-11.65-12.03.07-6.59,5.45-11.86,12.11-11.77,6.71.09,11.82,5.74,11.67,12.09-.15,6.7-5.51,11.75-12.13,11.71Zm-3.31-3.13c0-.95,0-1.89,0-2.82,0-.05-.04-.12-.09-.15-2.62-1.61-3.74-4.74-3.05-7.48.61-2.4,2.12-4.03,4.43-4.9.85-.32,1.61.26,1.61,1.17,0,1.35,0,2.69,0,4.04,0,.17.06.27.2.35.47.3.47.3.94-.01.12-.07.16-.15.16-.29,0-1.37,0-2.73,0-4.1,0-.21.06-.45.16-.63.31-.58.9-.73,1.6-.47,3,1.11,5,4.37,4.37,7.66-.38,1.99-1.4,3.54-3.1,4.63-.1.06-.13.13-.13.24,0,.87,0,1.74,0,2.6,0,.05,0,.1,0,.16,3.78-1.49,6.57-5.55,5.79-10.38-.74-4.57-4.89-7.95-9.48-7.89-4.63.06-8.63,3.62-9.25,8.09-.66,4.74,2.05,8.65,5.83,10.18Zm.48-12.11c-.08.07-.12.11-.16.15-1.35,1.38-1.65,3.53-.73,5.22.48.89,1.18,1.56,2.09,2,.52.26.75.68.74,1.25,0,1.31,0,2.62,0,3.93,0,.16.05.23.21.22.23,0,.46.03.68.03.45,0,.9-.02,1.35-.04,0-.1,0-.16,0-.22,0-1.29.02-2.58,0-3.87-.01-.67.24-1.1.84-1.39.35-.17.68-.39.97-.64,1.82-1.54,2.07-4.37.55-6.23-.12-.15-.25-.28-.38-.43-.01,0-.03.01-.04.02,0,.07,0,.13,0,.2,0,.83,0,1.67,0,2.5,0,.51-.19.89-.62,1.17-.55.36-1.11.71-1.65,1.08-.54.36-1.06.36-1.59,0-.53-.36-1.06-.72-1.6-1.05-.46-.29-.68-.68-.68-1.22,0-.88,0-1.76,0-2.69Z"/>
  </g>
</svg>