<?xml version="1.0" encoding="UTF-8"?>
<svg id="Capa_1" data-name="Capa 1" xmlns="http://www.w3.org/2000/svg" viewBox="0 0 97 83">
  <defs>
    <style>
      .cls-1 {
        fill: #fff;
        stroke: #fff;
        stroke-linejoin: round;
      }
    </style>
  </defs>
  <path class="cls-1" d="m23.13,31.94c2.47,0,4.94,0,7.41,0,1.52,0,2.58.74,2.99,2.04.09.29.14.62.14.92,0,4.73,0,9.46,0,14.19,0,.96-.26,1.8-1,2.44-.58.5-1.26.74-2.02.74-2.41,0-4.82,0-7.23,0-.63,0-1.1-.3-1.53-.73-2.13-2.11-4.26-4.21-6.38-6.31-.79-.78-1.57-1.56-2.36-2.34-.39-.39-.59-.81-.58-1.39.03-2.15.07-4.31-.01-6.46-.06-1.63,1.25-3.15,3.08-3.12,2.5.03,5,0,7.5,0Zm-7.85,2.76c-.01.25-.03.47-.03.69,0,1.51.01,3.02-.02,4.53,0,.41.1.5.49.5,1.99-.02,3.98-.03,5.97,0,1.58.03,2.74,1.28,2.74,2.85,0,1.93,0,3.86,0,5.79,0,.16.01.32.02.5.12.01.21.03.3.03,1.9,0,3.8-.01,5.7,0,.42,0,.57-.11.57-.55-.01-4.59,0-9.19-.01-13.78,0-.19-.02-.37-.04-.56h-15.7Zm6.46,12.93v-4.52h-4.48c1.5,1.51,2.97,2.99,4.48,4.52Z"/>
  <path class="cls-1" d="m21.66,8.13c2.44,0,4.88,0,7.32,0,1.62,0,2.75.8,3.12,2.18.08.31.12.65.12.98,0,4.72.01,9.43,0,14.15,0,1.78-1.26,3.02-3.03,3.03-2.44.01-4.88,0-7.32,0-.61,0-1.04-.27-1.45-.68-2.58-2.58-5.17-5.16-7.76-7.74-.23-.23-.45-.48-.71-.69-.68-.54-.9-1.24-.88-2.09.05-2.17,0-4.34.06-6.51.03-1.32,1.18-2.45,2.49-2.6.3-.03.6-.04.9-.04,2.38,0,4.76,0,7.14,0Zm1.33,17.6c.1.03.15.05.19.05,1.98,0,3.95-.02,5.93-.02.32,0,.41-.14.41-.44,0-4.65,0-9.31,0-13.96,0-.41-.16-.52-.56-.52-4.88.01-9.76.01-14.64,0-.44,0-.56.15-.56.57.01,1.57.02,3.14-.02,4.71,0,.42.12.48.5.48,1.99-.02,3.98-.03,5.97,0,1.42.02,2.43.87,2.66,2.26.13.82.09,1.67.1,2.5.01,1.45,0,2.9,0,4.37Zm-2.69-2.02v-4.44h-4.49c1.5,1.48,3.01,2.98,4.49,4.44Z"/>
  <path class="cls-1" d="m62.37,43.96c-4.46,0-8.92,0-13.38,0-1,0-1.4-.22-1.66-.91-.28-.73.14-1.54.9-1.72.27-.06.56-.08.85-.08,8.92,0,17.84,0,26.76,0,.22,0,.45.01.67.05.68.11,1.16.68,1.14,1.34-.02.62-.55,1.2-1.18,1.29-.21.03-.42.03-.63.03-4.49,0-8.98,0-13.47,0h0Z"/>
  <path class="cls-1" d="m62.38,50.66c-4.36,0-8.71,0-13.07,0-.36,0-.72-.01-1.07-.09-.59-.13-1-.7-.99-1.29.01-.63.4-1.1,1.03-1.23.25-.05.5-.08.75-.08,8.98,0,17.96,0,26.94,0,.92,0,1.54.43,1.63,1.14.09.71-.31,1.32-1.01,1.47-.32.07-.65.08-.98.08-4.42,0-8.83,0-13.25,0,0,0,0,0,0,0Z"/>
  <path class="cls-1" d="m62.51,27.84c4.45,0,8.89,0,13.34,0,.28,0,.57.03.84.1.51.14.89.64.92,1.15.04.58-.25,1.07-.8,1.27-.29.11-.61.15-.92.15-8.89,0-17.78,0-26.68,0-.31,0-.63-.02-.94-.08-.56-.11-1-.66-1.02-1.22-.02-.59.38-1.15.98-1.29.26-.06.53-.09.8-.09,4.49,0,8.98,0,13.47,0Z"/>
  <path class="cls-1" d="m62.48,34.55c4.4,0,8.8,0,13.2,0,.25,0,.51,0,.76.03.68.08,1.18.65,1.18,1.31,0,.64-.48,1.21-1.15,1.29-.49.06-.99.06-1.48.06-8.17,0-16.34,0-24.51-.02-.66,0-1.32.02-1.97-.03-.73-.06-1.24-.65-1.24-1.3,0-.68.55-1.24,1.29-1.31.24-.02.48-.02.72-.02,4.4,0,8.8,0,13.2,0Z"/>
  <path class="cls-1" d="m54.16,24.55c-1.81,0-3.62,0-5.43,0-.78,0-1.19-.28-1.41-.88-.27-.75.15-1.57.93-1.74.27-.06.56-.08.84-.08,3.38,0,6.76,0,10.14,0,.22,0,.45.02.67.05.75.11,1.27.68,1.25,1.35-.02.71-.6,1.28-1.39,1.3-1.37.02-2.75,0-4.13,0-.49,0-.99,0-1.48,0h0Z"/>
  <path class="cls-1" d="m94.49,9.87c0-.39,0-.78-.04-1.17-.28-2.99-1.83-5.05-4.6-6.19-1.05-.43-2.14-.51-3.26-.51-18.43,0-36.86,0-55.3,0h0s-11.84,0-11.84,0c-.37,0-.75,0-1.12,0-3.07.02-6.14-.04-9.2.08-3.58.13-6.6,3.38-6.6,6.97,0,17.57,0,35.15,0,52.72,0,1.04.14,2.07.59,3.01,1.39,2.92,3.74,4.34,6.95,4.34,6.81,0,13.62,0,20.43,0,.37,0,.73,0,1.11,0v7.42c-1.34,0-2.65,0-3.97,0-.28,0-.57.02-.85.08-.57.11-.98.6-1.02,1.16-.04.59.3,1.14.87,1.32.28.09.59.11.88.11,14.01,0,28.02,0,42.04,0,.12,0,.24,0,.36,0,.79-.04,1.32-.51,1.38-1.21.05-.69-.47-1.3-1.22-1.43-.21-.03-.42-.04-.63-.04-1.2,0-2.4,0-3.59,0-.14,0-.29-.01-.44-.02v-7.37h3.38c0,.15.03.27.02.38-.12,1.01.29,1.74,1.01,2.44,2.8,2.73,5.55,5.5,8.3,8.28.5.51,1.03.76,1.74.75,2.25-.02,4.49,0,6.74-.02.46,0,.94-.06,1.37-.2,1.27-.42,1.97-1.49,1.97-2.95,0-2.92-.01-5.84-.03-8.76,0-.34.09-.53.42-.67.97-.43,1.81-1.03,2.5-1.85,1.23-1.46,1.68-3.17,1.68-5.04,0-17.22,0-34.43,0-51.65Zm-32.32,66.68c-8.57,0-17.15,0-25.72,0-.6,0-1.2,0-1.8,0-.26,0-.34-.08-.33-.34.01-2.23.02-4.46.02-6.69,0-.31.11-.41.42-.41,9.13,0,18.26,0,27.39,0,.15,0,.3.02.51.03,0,.28,0,.5,0,.72,0,2.05,0,4.1.02,6.15,0,.39-.09.51-.49.51Zm15.79-.36c-1.44-1.44-2.89-2.9-4.36-4.37h4.36v4.37Zm9.28,1.49c0,.58,0,.59-.61.59-1.86.01-3.71.01-5.56.04-.35,0-.38-.16-.38-.44.02-1.91.04-3.83.02-5.74,0-1.51-.69-2.51-1.95-2.88-.35-.1-.74-.14-1.1-.14-1.96,0-3.92.02-5.88.04-.07,0-.14,0-.26,0v-5.75c.23-.02.45-.05.66-.05,4.76,0,9.52,0,14.27,0,.12,0,.24,0,.36.01.29.02.44.11.44.46-.01,4.62,0,9.25,0,13.87Zm4.58-18.6c0,1.08.01,2.16-.03,3.23-.06,1.36-.72,2.42-1.84,3.35-.02-.24-.04-.38-.04-.52,0-.52,0-1.05-.02-1.57-.09-1.78-1.26-2.9-3.04-2.92-1.3-.01-2.6,0-3.91,0-3.68,0-7.36,0-11.05,0-1.45,0-2.55.76-2.94,2.04-.12.38-.13.79-.14,1.2-.02.82,0,1.64,0,2.53h-.83c-19.28,0-38.56,0-57.84.01-1.68,0-3.04-.52-4.09-1.83-.5-.62-.77-1.35-.8-2.11-.05-1.7-.02-3.41-.02-5.14h86.58c0,.6,0,1.16,0,1.73ZM42.77,18.98c.08-1.06.68-1.7,1.74-1.84.25-.03.51-.05.76-.05,11.33,0,22.66,0,34,0,.42,0,.84.02,1.25.07.82.1,1.48.79,1.58,1.61.03.3.05.6.05.9,0,5.41,0,10.82,0,16.23h0v1.04c0,.12,0,.24,0,.35v9.96h.01c0,2.29-.01,4.59,0,6.88,0,.44-.12.51-.52.51-12.77,0-25.54,0-38.31,0-.17,0-.35-.01-.57-.03v-.56c0-11.42,0-22.84,0-34.27,0-.27,0-.54.02-.81Zm49.04,35.04c0,.19,0,.38,0,.59h-6.99c0-2.48,0-4.93,0-7.37h0v-9.32c0-.09.01-.19.01-.28,0-6.17-.01-12.34-.02-18.5,0-.33-.01-.66-.08-.98-.49-2.28-2.29-3.69-4.7-3.69-11.74,0-23.47,0-35.21,0-.43,0-.87.04-1.29.15-2.13.56-3.46,2.37-3.46,4.72,0,11.41,0,22.81,0,34.22,0,1.08,0,1.07-1.06,1.07-11.03,0-22.07,0-33.1.01-.72,0-.72,0-.72-.73,0-14.48,0-28.95,0-43.43,0-.57-.01-1.14.02-1.71.05-.84.35-1.59.88-2.26,1.03-1.29,2.38-1.82,4.01-1.8,3.08.03,6.17.01,9.25.01.14,0,.27,0,.41,0h11.53c17.61,0,35.22,0,52.83,0,1.15,0,2.31,0,3.46.02.94.02,1.79.35,2.51.94,1.28,1.04,1.74,2.41,1.74,4.04-.02,14.76-.02,29.52-.02,44.28Z"/>
</svg>