<?xml version="1.0" encoding="UTF-8"?>
<svg id="Capa_1" data-name="Capa 1" xmlns="http://www.w3.org/2000/svg" viewBox="0 0 64 79">
  <defs>
    <style>
      .cls-1 {
        stroke: #30bfb1;
        stroke-miterlimit: 10;
        stroke-width: .25px;
      }

      .cls-1, .cls-2 {
        fill: #30bfb1;
      }
    </style>
  </defs>
  <path class="cls-2" d="m59.15,52.84c-2.17-2.27-4.97-3.7-8.34-4.26-.15-.03-.36-.06-.39-.08-.02-.04,0-.17.02-.33h1.59c.68.02,1.36.03,2.04.02,1.26,0,2.07-.8,2.1-2.06.01-.54.01-1.02,0-1.48-.15-3.41-2.17-5.95-5.4-6.8-.32-.09-.35-.15-.35-.48.01-10.23,0-20.46,0-30.69v-2.19C50.42,1.88,48.54,0,45.94,0H4.94c-.09,0-.18,0-.27,0C2.25.08.36,1.95.36,4.25c0,18.98,0,37.96,0,56.95,0,1.24.45,2.37,1.27,3.18.82.81,1.97,1.24,3.2,1.24,1.3-.01,2.61-.02,3.91-.02h6.78c5.94,0,11.89,0,17.83,0h0c.07,0,.1,0,.11,0,0,0,0,0,0,0,0,0,.02.04.02.13.02.26.05.54.12.88,1.36,7.17,7.71,12.37,14.78,12.37.45,0,.9-.02,1.35-.06,4.44-.42,8.09-2.44,10.86-6.02,1.67-2.16,2.67-4.78,2.97-7.78.46-4.62-1.03-8.76-4.41-12.3Zm-6.98-8.63h-7.2c.17-1.39,1.53-2.58,3.17-2.71,2.16-.17,3.59.79,4.04,2.71Zm-18.68,17.33h0c-.03.2-.04.21-.33.21-5.91,0-11.83,0-17.75,0h-5.49c-1.62,0-3.24,0-4.85,0-.73,0-.77-.05-.77-.79V4.69c0-.66.09-.75.73-.75h40.7c.63,0,.75.13.75.75v33.11c-3.63.98-5.78,4.11-5.54,8.06-.02,0-.04,0-.05,0h-16.95c-.25,0-.5,0-.76.03-1,.1-1.73.89-1.77,1.91-.04.98.65,1.8,1.64,1.97.22.04.41.05.6.05h16.86s0,0,0,0c.75,0,1.58-.11,2.08-.94.11-.17.17-.36.24-.56.01-.04.03-.07.04-.11h3.58v.29l-.44.09c-.46.09-.91.18-1.36.29-2.64.65-5.03,2.09-7.1,4.26-2.29,2.41-3.66,5.23-4.07,8.39Zm15.5,13.55c-3.07.11-6.05-1.03-8.25-3.13-2.24-2.14-3.48-5.09-3.51-8.31-.04-5.36,4.39-11.21,11.06-11.36.07,0,.14,0,.21,0,2.8,0,5.74,1.25,7.88,3.36,1.52,1.49,3.32,4.08,3.3,7.92.06,6.97-5.4,11.34-10.71,11.53Z"/>
  <path class="cls-1" d="m19.54,32.28c0,1.02,0,2.04,0,3.06,0,1.52-1.08,2.62-2.59,2.62-2.01,0-4.02,0-6.02,0-.85,0-1.61-.24-2.19-.9-.44-.5-.62-1.09-.62-1.74,0-2.11-.01-4.22.01-6.33.02-1.48,1.06-2.52,2.58-2.55,2.08-.04,4.16-.03,6.24,0,1.49.02,2.58,1.17,2.6,2.66.01,1.06,0,2.12,0,3.19Zm-3.46-2.41c-1.45,0-2.85,0-4.25,0-.23,0-.29.11-.29.31,0,1.35,0,2.69,0,4.04,0,.3.16.31.38.31.82,0,1.63,0,2.45,0,.57,0,1.14,0,1.72,0v-4.66Z"/>
  <path class="cls-1" d="m8.11,14.1c0-1.02,0-2.04,0-3.06.01-1.67,1.06-2.69,2.73-2.69,1.99,0,3.99.03,5.98-.01,1.66-.04,2.7,1.26,2.71,2.66.02,2.08.02,4.16,0,6.24-.01,1.48-1.14,2.62-2.62,2.64-2.06.03-4.13.03-6.19,0-1.51-.02-2.6-1.16-2.61-2.68,0-1.03,0-2.07,0-3.1,0,0,0,0,0,0Zm3.41,2.31h4.54v-4.64c-.2,0-.37,0-.54,0-1.22,0-2.44,0-3.66.02-.12,0-.33.15-.33.23-.02,1.45-.01,2.9-.01,4.39Z"/>
  <path class="cls-1" d="m13.83,44.5c1,0,2.01.03,3.01,0,1.61-.05,2.66,1.21,2.68,2.59.04,2.12.03,4.25,0,6.37-.02,1.46-1.15,2.55-2.69,2.57-2.03.03-4.07.04-6.11,0-1.57-.03-2.63-1.18-2.63-2.75,0-2.02,0-4.04,0-6.07,0-1.7,1.05-2.72,2.76-2.71.99,0,1.98,0,2.97,0Zm2.24,3.44c-1.41,0-2.8,0-4.18,0-.28,0-.37.07-.36.36.01,1.32,0,2.64,0,3.96,0,.11.03.22.04.32h4.51v-4.64Z"/>
  <path class="cls-1" d="m32.16,28.03c2.77,0,5.54,0,8.3,0,.24,0,.49,0,.73.03.85.12,1.47.83,1.48,1.69,0,.79-.66,1.56-1.45,1.69-.21.03-.43.04-.64.04-5.62,0-11.24,0-16.87,0-.57,0-1.12-.08-1.54-.53-.47-.5-.64-1.08-.42-1.74.22-.68.72-1.05,1.42-1.15.27-.04.54-.03.82-.03,2.72,0,5.45,0,8.17,0Z"/>
  <path class="cls-1" d="m32.17,9.96c2.81,0,5.62,0,8.43,0,.38,0,.78.05,1.13.19.68.27,1.06,1.06.95,1.76-.13.79-.72,1.4-1.5,1.42-1.96.05-3.93.06-5.89.07-3.88.01-7.77,0-11.65,0-.79,0-1.44-.24-1.8-1-.52-1.08.21-2.35,1.4-2.44.5-.03,1,0,1.5,0,2.48,0,4.96,0,7.44,0h0Z"/>
  <path class="cls-1" d="m29.48,18.25c-2.01,0-4.01,0-6.02,0-.77,0-1.35-.32-1.67-1.06-.43-1.01.2-2.14,1.29-2.31.25-.04.51-.07.77-.07,3.84,0,7.68-.01,11.53.01.42,0,.89.14,1.25.35.63.38.85,1.15.64,1.85-.2.69-.81,1.2-1.55,1.21-1.33.02-2.67,0-4,0-.75,0-1.49,0-2.24,0,0,0,0,0,0,0Z"/>
  <path class="cls-1" d="m29.45,54.41c-1.99,0-3.98,0-5.98,0-.78,0-1.38-.32-1.69-1.08-.41-1,.21-2.11,1.27-2.29.27-.04.54-.07.81-.07,3.84,0,7.68,0,11.52,0,.95,0,1.61.43,1.85,1.18.35,1.1-.36,2.13-1.56,2.26-.21.02-.43.02-.64.02-1.86,0-3.73,0-5.59,0h0Z"/>
  <path class="cls-1" d="m29.48,36.33c-1.89,0-3.79,0-5.68,0-.19,0-.37,0-.56-.01-.86-.07-1.51-.73-1.55-1.56-.05-.93.48-1.63,1.37-1.8.18-.04.37-.06.55-.06,3.94,0,7.89,0,11.83,0,.69,0,1.28.22,1.64.84.69,1.18-.08,2.56-1.45,2.58-2.05.03-4.1,0-6.15,0,0,0,0,0,0,0Z"/>
  <path class="cls-2" d="m48.53,54.22c-2.4-.02-4.8.96-6.58,2.72-1.83,1.8-2.83,4.22-2.84,6.81,0,5.69,4.77,9.32,9.2,9.43h.02c5.32,0,9.5-4.14,9.51-9.43,0-4.62-3.47-9.45-9.31-9.53Zm4.54,14.06c-1.23,1.24-2.89,1.98-4.44,1.98h-.11c-3.57-.08-6.49-3.02-6.49-6.56,0-1.76.68-3.41,1.92-4.65,1.22-1.22,2.84-1.89,4.58-1.89,3.57,0,6.37,2.88,6.37,6.57.05,1.69-.59,3.31-1.82,4.55Z"/>
  <path class="cls-2" d="m48.51,64.38c.91.04,1.85.03,2.76.02h.59c.12,0,.24-.03.34-.06.25-.09.46-.43.42-.69-.05-.36-.33-.63-.67-.65-.38-.02-.75-.02-1.15-.01h-1.62s0-1.52,0-1.52c0-.36,0-.71,0-1.05,0-.48-.3-.85-.69-.87,0,0-.02,0-.02,0-.39,0-.7.33-.72.78-.04,1.07-.04,2.18,0,3.32.02.52.23.72.77.74Z"/>
</svg>