<?xml version="1.0" encoding="UTF-8"?>
<svg id="Capa_1" data-name="Capa 1" xmlns="http://www.w3.org/2000/svg" viewBox="0 0 79 79">
  <defs>
    <style>
      .cls-1 {
        fill: #30bfb1;
      }
    </style>
  </defs>
  <g>
    <path class="cls-1" d="m54.54,52.86c2.95-3.47,4.53-7.45,4.97-11.97-.61,0-1.15,0-1.7,0-.25,0-.51-.03-.75-.09-.55-.14-.97-.68-.98-1.23,0-.58.39-1.14.98-1.26.43-.09.89-.08,1.33-.1.36-.01.72,0,1.11,0-.38-4.55-2.06-8.49-4.98-12-.4.39-.76.75-1.12,1.11-.14.14-.28.28-.42.41-.6.52-1.27.51-1.8-.03-.53-.53-.53-1.21,0-1.8.23-.25.46-.49.71-.72.25-.23.51-.44.75-.65-1.44-2.18-7.82-4.89-11.97-5.12,0,.61,0,1.22,0,1.83,0,.65-.24,1.19-.87,1.46-.84.36-1.74-.23-1.8-1.23-.06-1.13-.06-2.27,0-3.4.05-.93.68-1.42,1.66-1.39,1.6.04,3.18.23,4.75.59,5,1.13,9.13,3.7,12.42,7.6,2.73,3.24,4.42,6.98,5.11,11.16.61,3.68.2,7.28-.95,10.81-.95,2.94-2.5,5.52-4.55,7.82-3.79,4.25-8.52,6.73-14.16,7.52-.3.04-.6.1-1,.16.21.22.37.38.53.55.33.34.69.66.99,1.03.42.52.36,1.24-.12,1.72-.48.48-1.18.55-1.72.17-.11-.08-.22-.17-.32-.27-1.07-1.07-2.15-2.14-3.21-3.22-.9-.91-.89-1.59.01-2.49,1.07-1.08,2.13-2.16,3.21-3.21.24-.23.57-.42.89-.5.56-.14,1.02.11,1.32.59.29.47.28.98-.06,1.42-.3.39-.66.72-1,1.07-.09.1-.18.19-.24.34,4.25-.32,7.81-2.19,11.18-4.88-.56-.53-1.1-.98-1.58-1.48-.5-.52-.52-1.11-.12-1.63.5-.65,1.26-.75,1.87-.21.54.47,1.04.98,1.6,1.52Z"/>
    <path class="cls-1" d="m25.93,24.43c.52.49,1.07.95,1.55,1.48.71.77.37,1.85-.63,2.14-.48.14-.86-.03-1.18-.35-.49-.5-.95-1.02-1.48-1.59-2.91,3.6-4.76,7.49-5.02,12.09.6,0,1.2,0,1.8,0,.49,0,.96.11,1.28.51.32.4.44.85.21,1.33-.26.57-.76.81-1.35.84-.64.03-1.29,0-1.92,0-.34,2.89,2.6,9.96,5.03,12.02.47-.5.93-1.03,1.44-1.51.78-.73,1.88-.4,2.17.62.14.49-.07.88-.39,1.22-.48.49-.98.95-1.56,1.51,1.02.72,1.96,1.39,2.92,2.04.29.2.61.35.91.52.79.45,1.04,1.17.66,1.86-.38.69-1.14.9-1.92.48-1.79-.95-3.44-2.12-4.88-3.55-2.4-2.38-4.39-5.07-5.56-8.27-2.42-6.57-2.12-12.99,1.22-19.19,2.06-3.81,4.98-6.81,8.75-8.98,1.73-1,3.56-1.77,5.51-2.23.92-.21,1.63.17,1.8.96.15.66-.19,1.25-.9,1.51-.92.33-1.86.62-2.78.96-1.9.7-4.37,2.25-5.68,3.54Z"/>
    <path class="cls-1" d="m40.82,36.33c.28-.31.55-.63.84-.93,1.09-1.11,2.19-2.22,3.3-3.3.73-.72,1.71-.58,2.14.28.23.46.2.9-.12,1.3-.19.24-.42.45-.63.67-1.96,1.96-3.93,3.93-5.89,5.89-.37.37-.76.68-1.32.6-.73-.11-1.15-.65-1.16-1.47-.01-.78,0-1.57,0-2.35,0-3.31,0-6.62,0-9.92,0-.8.36-1.4.94-1.58.84-.27,1.63.32,1.74,1.32.02.14.01.28.01.42,0,2.86,0,5.72,0,8.58v.41l.14.09Z"/>
  </g>
  <path class="cls-1" d="m61.29,72.63c-.55,0-1.02-.21-1.44-.56-1.37-1.12-2.75-2.24-4.11-3.37-.27-.22-.46-.25-.77-.08-1.9,1.03-3.91,1.8-5.98,2.43-.33.1-.47.25-.5.6-.15,1.61-.36,3.22-.5,4.83-.13,1.59-1.06,2.51-2.67,2.52-2.75,0-5.5,0-8.25,0-1.21,0-2.42,0-3.62,0-1.54,0-2.46-.89-2.58-2.42-.14-1.7-.31-3.4-.48-5.1-.01-.13-.17-.33-.29-.37-2.15-.6-4.16-1.54-6.13-2.56-.3-.15-.49-.16-.78.07-1.31,1.08-2.64,2.13-3.97,3.18-1.29,1.02-2.42.94-3.59-.23-2.11-2.11-4.22-4.22-6.33-6.32-.68-.68-1.36-1.36-2.03-2.05-1.04-1.06-1.11-2.19-.18-3.34,1.12-1.39,2.26-2.77,3.4-4.14.15-.18.15-.31.04-.51-1.13-2-2-4.11-2.6-6.32-.06-.23-.18-.3-.4-.32-1.11-.1-2.22-.21-3.33-.33-.73-.08-1.46-.16-2.18-.28-1.27-.21-1.99-1.09-1.99-2.39,0-2.79,0-5.58,0-8.37,0-1.25-.01-2.49,0-3.74.02-1.44.81-2.33,2.21-2.49.66-.08,1.33-.11,2-.18,1.1-.11,2.2-.23,3.3-.33.24-.02.35-.13.42-.36.63-2.19,1.5-4.28,2.62-6.27.06-.11.02-.35-.07-.46-1.03-1.3-2.08-2.58-3.13-3.86-.37-.45-.72-.9-.79-1.51-.1-.82.19-1.48.76-2.05,1.07-1.07,2.15-2.14,3.22-3.22,1.75-1.76,3.5-3.52,5.25-5.28,1.1-1.11,2.23-1.2,3.46-.23,1.33,1.05,2.63,2.14,3.94,3.22.28.23.48.25.81.07,1.93-1.05,3.95-1.91,6.07-2.48.29-.08.38-.22.41-.5.18-1.76.36-3.53.59-5.28.2-1.5,1-2.18,2.51-2.23.39-.01.77,0,1.16,0,3.56,0,7.12,0,10.68,0,1.72,0,2.59.84,2.73,2.56.13,1.69.31,3.38.46,5.07.02.29.2.36.42.42,1.65.45,3.22,1.12,4.77,1.83.47.21.92.45,1.37.7.22.12.37.13.58-.03,1.33-1.07,2.68-2.12,4-3.2.72-.59,1.5-.93,2.42-.6.4.14.79.4,1.09.69,2.85,2.82,5.69,5.65,8.51,8.5,1.03,1.04,1.06,2.21.12,3.39-1.08,1.36-2.18,2.7-3.28,4.04-.17.21-.19.36-.07.61,1.02,1.99,1.96,4.01,2.52,6.19.07.25.19.37.48.4,1.73.17,3.45.35,5.17.54,1.4.15,2.22,1.04,2.27,2.5.02.76,0,1.52,0,2.28,0,3.12,0,6.25,0,9.37,0,1.92-.84,2.81-2.76,2.98-1.6.14-3.2.3-4.79.47-.12.01-.29.16-.33.28-.68,2.19-1.52,4.31-2.65,6.3-.15.27-.02.43.13.61,1.08,1.36,2.15,2.72,3.22,4.08.44.56.74,1.17.64,1.92-.07.49-.28.91-.63,1.25-2.92,2.91-5.84,5.83-8.77,8.74-.48.48-1.06.76-1.75.76ZM35.42,4.65c-.03.19-.05.35-.07.52-.16,1.58-.3,3.17-.5,4.75-.13,1.07-.73,1.78-1.81,2.05-.47.12-.95.23-1.42.36-2.47.71-4.79,1.75-6.99,3.07-1.12.67-1.96.58-2.97-.25-1.1-.89-2.18-1.79-3.28-2.69-.2-.17-.4-.34-.57-.47-1.98,2-3.93,3.95-5.86,5.9.94,1.18,1.91,2.39,2.89,3.61,1.15,1.44,1.17,2.12.24,3.73-.55.94-1.04,1.92-1.5,2.91-.72,1.56-1.29,3.18-1.7,4.86-.26,1.06-.92,1.69-2.03,1.82-.65.07-1.3.15-1.95.21-1.08.11-2.16.21-3.24.31v8.29c.07.02.11.03.16.04,1.55.16,3.09.31,4.64.47,1.48.15,2.12.71,2.49,2.14.19.73.38,1.47.62,2.18.69,2.08,1.64,4.04,2.76,5.92.56.95.54,1.87-.14,2.72-1.03,1.3-2.08,2.58-3.14,3.86-.18.22-.2.34,0,.53.53.52,1.05,1.06,1.58,1.58,1.34,1.33,2.68,2.66,4.03,3.99.11-.07.19-.1.26-.16,1.23-.98,2.45-1.95,3.68-2.93,1.09-.87,1.94-.93,3.15-.25.79.45,1.59.9,2.4,1.31,1.83.93,3.76,1.57,5.74,2.07,1.2.31,1.8,1.02,1.92,2.26.15,1.52.3,3.04.42,4.57.03.35.15.44.49.44,2.49-.01,4.99,0,7.48,0h.39c.03-.16.06-.29.07-.42.16-1.51.32-3.01.48-4.52.15-1.38.7-2.02,2.04-2.34,2.85-.67,5.49-1.84,8-3.33.31-.19.67-.34,1.02-.42.86-.19,1.54.19,2.18.72,1.18.99,2.38,1.96,3.56,2.95.19.15.31.21.51,0,1.72-1.74,3.45-3.46,5.17-5.19.14-.14.27-.3.43-.47-1.03-1.3-2.05-2.58-3.06-3.86-.98-1.23-1.02-1.94-.22-3.3.97-1.64,1.79-3.35,2.41-5.15.35-1,.61-2.04.91-3.06.29-.99.96-1.57,1.97-1.71.81-.11,1.64-.16,2.45-.24.93-.09,1.86-.18,2.81-.27v-8.3c-1.64-.18-3.27-.37-4.9-.52-1.27-.12-2.02-.73-2.33-1.97-.72-2.88-1.81-5.61-3.39-8.14-.71-1.13-.63-2.04.22-3.08.89-1.08,1.78-2.16,2.67-3.25.18-.22.34-.44.52-.66-.09-.1-.15-.18-.22-.25-1.78-1.78-3.56-3.56-5.34-5.35-.21-.21-.34-.18-.55-.01-1.17.95-2.34,1.89-3.52,2.82-1.25.99-1.95,1.02-3.33.23-1.87-1.08-3.81-2.03-5.86-2.7-.85-.28-1.73-.47-2.59-.74-.83-.26-1.31-.86-1.43-1.7-.14-1.02-.22-2.04-.32-3.07-.08-.81-.16-1.63-.24-2.45h-8.31Z"/>
</svg>