<?xml version="1.0" encoding="UTF-8"?>
<svg id="Capa_2" data-name="Capa 2" xmlns="http://www.w3.org/2000/svg" viewBox="0 0 63 60">
  <defs>
    <style>
      .cls-1 {
        fill: #30bfb1;
      }
    </style>
  </defs>
  <path class="cls-1" d="m38.47,30l21.7-21.7c1.77-1.77,1.77-4.65,0-6.42l-.55-.55c-1.77-1.77-4.65-1.77-6.42,0l-21.7,21.7L9.8,1.33C8.03-.44,5.15-.44,3.38,1.33l-.55.55c-1.77,1.77-1.77,4.65,0,6.42l21.7,21.7L2.83,51.7c-1.77,1.77-1.77,4.65,0,6.42l.55.55c1.77,1.77,4.65,1.77,6.42,0l21.7-21.7,21.7,21.7c1.77,1.77,4.65,1.77,6.42,0l.55-.55c1.77-1.77,1.77-4.65,0-6.42l-21.7-21.7Z"/>
</svg>